<svg width="402" height="575" viewBox="0 0 402 575" fill="none" xmlns="http://www.w3.org/2000/svg">
<rect y="81" width="402" height="494" rx="10" fill="#CFE4D2"/>
<path d="M65.5087 163.9V187H62.7087V163.9H65.5087ZM90.8039 187.35C89.6839 187.35 88.6222 187.14 87.6189 186.72C86.6389 186.3 85.8339 185.623 85.2039 184.69C84.5972 183.733 84.2939 182.497 84.2939 180.98V169.5H87.0939V180.245C87.0939 182.018 87.4789 183.243 88.2489 183.92C89.0189 184.573 90.1039 184.9 91.5039 184.9C92.3905 184.9 93.2305 184.702 94.0239 184.305C94.8172 183.885 95.4705 183.243 95.9839 182.38C96.4972 181.517 96.7539 180.397 96.7539 179.02V169.5H99.5539V187H97.1039L96.9289 184.34C96.3222 185.39 95.4939 186.16 94.4439 186.65C93.4172 187.117 92.2039 187.35 90.8039 187.35ZM112.37 187.35C110.667 187.35 109.092 186.988 107.645 186.265C106.222 185.542 105.125 184.515 104.355 183.185L106.735 181.47C107.249 182.543 107.995 183.383 108.975 183.99C109.979 184.597 111.18 184.9 112.58 184.9C113.817 184.9 114.785 184.667 115.485 184.2C116.185 183.71 116.535 183.08 116.535 182.31C116.535 181.82 116.372 181.377 116.045 180.98C115.742 180.56 115.147 180.257 114.26 180.07L110.06 179.195C108.357 178.845 107.132 178.262 106.385 177.445C105.662 176.628 105.3 175.613 105.3 174.4C105.3 173.443 105.569 172.568 106.105 171.775C106.665 170.982 107.447 170.352 108.45 169.885C109.477 169.395 110.679 169.15 112.055 169.15C113.782 169.15 115.24 169.488 116.43 170.165C117.62 170.842 118.507 171.798 119.09 173.035L116.745 174.575C116.349 173.548 115.707 172.802 114.82 172.335C113.934 171.845 113.012 171.6 112.055 171.6C110.795 171.6 109.815 171.857 109.115 172.37C108.415 172.883 108.065 173.525 108.065 174.295C108.065 174.808 108.24 175.287 108.59 175.73C108.94 176.15 109.594 176.453 110.55 176.64L114.925 177.55C116.559 177.877 117.702 178.413 118.355 179.16C119.009 179.907 119.335 180.817 119.335 181.89C119.335 183.547 118.694 184.877 117.41 185.88C116.127 186.86 114.447 187.35 112.37 187.35ZM131.842 187.35C130.186 187.35 128.704 186.988 127.397 186.265C126.114 185.542 125.111 184.503 124.387 183.15C123.664 181.773 123.302 180.14 123.302 178.25C123.302 176.36 123.664 174.738 124.387 173.385C125.111 172.008 126.102 170.958 127.362 170.235C128.622 169.512 130.057 169.15 131.667 169.15C133.301 169.15 134.689 169.5 135.832 170.2C136.999 170.9 137.886 171.857 138.492 173.07C139.099 174.26 139.402 175.602 139.402 177.095C139.402 177.492 139.391 177.853 139.367 178.18C139.344 178.507 139.309 178.798 139.262 179.055H126.067C126.207 180.898 126.779 182.333 127.782 183.36C128.786 184.387 130.116 184.9 131.772 184.9C133.056 184.9 134.094 184.655 134.887 184.165C135.704 183.675 136.357 183.01 136.847 182.17L139.052 183.465C138.399 184.655 137.454 185.6 136.217 186.3C135.004 187 133.546 187.35 131.842 187.35ZM131.597 171.6C130.127 171.6 128.914 172.043 127.957 172.93C127.024 173.793 126.429 175.007 126.172 176.57H136.602C136.532 174.983 136.042 173.758 135.132 172.895C134.222 172.032 133.044 171.6 131.597 171.6ZM151.553 187.35C150.106 187.35 148.776 186.988 147.563 186.265C146.349 185.542 145.381 184.503 144.658 183.15C143.934 181.773 143.573 180.14 143.573 178.25C143.573 176.313 143.958 174.668 144.728 173.315C145.498 171.962 146.513 170.935 147.773 170.235C149.033 169.512 150.386 169.15 151.833 169.15C153.093 169.15 154.213 169.442 155.193 170.025C156.173 170.585 156.896 171.355 157.363 172.335V161.45H160.163V187H157.713L157.538 183.71C157.048 184.9 156.254 185.81 155.158 186.44C154.061 187.047 152.859 187.35 151.553 187.35ZM151.833 184.9C153.489 184.9 154.819 184.282 155.823 183.045C156.849 181.808 157.363 180.128 157.363 178.005C157.363 175.998 156.861 174.435 155.858 173.315C154.854 172.172 153.559 171.6 151.973 171.6C150.199 171.6 148.823 172.207 147.843 173.42C146.863 174.633 146.373 176.243 146.373 178.25C146.373 180.257 146.851 181.867 147.808 183.08C148.764 184.293 150.106 184.9 151.833 184.9ZM188.416 169.5V171.915H182.046V182.17C182.046 183.033 182.291 183.675 182.781 184.095C183.271 184.515 183.901 184.725 184.671 184.725C185.348 184.725 185.931 184.608 186.421 184.375C186.911 184.142 187.354 183.827 187.751 183.43L188.731 185.775C188.194 186.265 187.553 186.65 186.806 186.93C186.083 187.21 185.243 187.35 184.286 187.35C183.399 187.35 182.571 187.198 181.801 186.895C181.031 186.568 180.413 186.067 179.946 185.39C179.503 184.69 179.269 183.78 179.246 182.66V171.915H175.746V169.5H179.246V165.3L182.046 164.53V169.5H188.416ZM199.824 169.15C201.481 169.15 202.939 169.512 204.199 170.235C205.483 170.958 206.486 172.008 207.209 173.385C207.933 174.738 208.294 176.36 208.294 178.25C208.294 180.14 207.933 181.773 207.209 183.15C206.486 184.503 205.483 185.542 204.199 186.265C202.939 186.988 201.481 187.35 199.824 187.35C198.191 187.35 196.733 186.988 195.449 186.265C194.166 185.542 193.163 184.503 192.439 183.15C191.716 181.773 191.354 180.14 191.354 178.25C191.354 176.36 191.716 174.738 192.439 173.385C193.163 172.008 194.166 170.958 195.449 170.235C196.733 169.512 198.191 169.15 199.824 169.15ZM199.824 171.565C198.051 171.565 196.663 172.16 195.659 173.35C194.656 174.54 194.154 176.173 194.154 178.25C194.154 180.327 194.656 181.96 195.659 183.15C196.663 184.34 198.051 184.935 199.824 184.935C201.598 184.935 202.986 184.34 203.989 183.15C204.993 181.96 205.494 180.327 205.494 178.25C205.494 176.173 204.993 174.54 203.989 173.35C202.986 172.16 201.598 171.565 199.824 171.565ZM235.311 169.5V171.915H228.941V182.17C228.941 183.033 229.186 183.675 229.676 184.095C230.166 184.515 230.796 184.725 231.566 184.725C232.242 184.725 232.826 184.608 233.316 184.375C233.806 184.142 234.249 183.827 234.646 183.43L235.626 185.775C235.089 186.265 234.447 186.65 233.701 186.93C232.977 187.21 232.137 187.35 231.181 187.35C230.294 187.35 229.466 187.198 228.696 186.895C227.926 186.568 227.307 186.067 226.841 185.39C226.397 184.69 226.164 183.78 226.141 182.66V171.915H222.641V169.5H226.141V165.3L228.941 164.53V169.5H235.311ZM239.474 187V161.45H242.274V172.125C242.88 171.075 243.685 170.317 244.689 169.85C245.692 169.383 246.789 169.15 247.979 169.15C249.239 169.15 250.382 169.395 251.409 169.885C252.435 170.352 253.252 171.075 253.859 172.055C254.489 173.035 254.804 174.283 254.804 175.8V187H252.004V176.78C252.004 174.843 251.584 173.502 250.744 172.755C249.927 171.985 248.912 171.6 247.699 171.6C246.859 171.6 246.019 171.798 245.179 172.195C244.339 172.592 243.639 173.245 243.079 174.155C242.542 175.042 242.274 176.232 242.274 177.725V187H239.474ZM261.144 187V169.5H263.419L263.804 172.37C264.784 170.223 266.65 169.15 269.404 169.15C269.707 169.15 270.034 169.173 270.384 169.22C270.757 169.267 271.072 169.36 271.329 169.5L270.839 172.055C270.582 171.962 270.302 171.892 269.999 171.845C269.695 171.798 269.264 171.775 268.704 171.775C267.98 171.775 267.245 171.985 266.499 172.405C265.775 172.825 265.169 173.467 264.679 174.33C264.189 175.17 263.944 176.243 263.944 177.55V187H261.144ZM282.129 169.15C283.786 169.15 285.244 169.512 286.504 170.235C287.787 170.958 288.791 172.008 289.514 173.385C290.237 174.738 290.599 176.36 290.599 178.25C290.599 180.14 290.237 181.773 289.514 183.15C288.791 184.503 287.787 185.542 286.504 186.265C285.244 186.988 283.786 187.35 282.129 187.35C280.496 187.35 279.037 186.988 277.754 186.265C276.471 185.542 275.467 184.503 274.744 183.15C274.021 181.773 273.659 180.14 273.659 178.25C273.659 176.36 274.021 174.738 274.744 173.385C275.467 172.008 276.471 170.958 277.754 170.235C279.037 169.512 280.496 169.15 282.129 169.15ZM282.129 171.565C280.356 171.565 278.967 172.16 277.964 173.35C276.961 174.54 276.459 176.173 276.459 178.25C276.459 180.327 276.961 181.96 277.964 183.15C278.967 184.34 280.356 184.935 282.129 184.935C283.902 184.935 285.291 184.34 286.294 183.15C287.297 181.96 287.799 180.327 287.799 178.25C287.799 176.173 287.297 174.54 286.294 173.35C285.291 172.16 283.902 171.565 282.129 171.565ZM317.268 169.5H320.383L314.293 187H311.493L306.558 173.07L301.903 187H299.103L293.013 169.5H296.128L300.538 183.745L305.298 169.5H308.098L312.858 183.745L317.268 169.5ZM60.475 216.695C60.475 215.388 60.125 214.385 59.425 213.685C58.725 212.962 57.7333 212.6 56.45 212.6C55.2367 212.6 54.21 212.868 53.37 213.405C52.53 213.918 51.9117 214.758 51.515 215.925L49.24 214.525C49.7067 213.218 50.57 212.168 51.83 211.375C53.09 210.558 54.6533 210.15 56.52 210.15C57.78 210.15 58.9233 210.372 59.95 210.815C60.9767 211.235 61.7817 211.888 62.365 212.775C62.9717 213.638 63.275 214.758 63.275 216.135V224.605C63.275 225.445 63.7183 225.865 64.605 225.865C65.0483 225.865 65.48 225.807 65.9 225.69L65.76 227.895C65.2933 228.128 64.6867 228.245 63.94 228.245C63.0767 228.245 62.33 228.035 61.7 227.615C61.0933 227.195 60.6967 226.553 60.51 225.69C59.9033 226.6 59.075 227.277 58.025 227.72C56.975 228.14 55.9367 228.35 54.91 228.35C53.8833 228.35 52.9267 228.175 52.04 227.825C51.1533 227.475 50.4417 226.95 49.905 226.25C49.3917 225.527 49.135 224.64 49.135 223.59C49.135 222.283 49.5667 221.21 50.43 220.37C51.3167 219.507 52.5417 218.923 54.105 218.62L60.475 217.36V216.695ZM52.005 223.45C52.005 224.173 52.285 224.768 52.845 225.235C53.4283 225.678 54.245 225.9 55.295 225.9C56.205 225.9 57.045 225.748 57.815 225.445C58.6083 225.118 59.25 224.64 59.74 224.01C60.23 223.357 60.475 222.528 60.475 221.525V219.67L55.4 220.72C54.2567 220.953 53.405 221.28 52.845 221.7C52.285 222.12 52.005 222.703 52.005 223.45ZM91.6482 210.5H94.7632L88.6732 228H85.8732L80.9382 214.07L76.2832 228H73.4832L67.3932 210.5H70.5082L74.9182 224.745L79.6782 210.5H82.4782L87.2382 224.745L91.6482 210.5ZM108.805 216.695C108.805 215.388 108.455 214.385 107.755 213.685C107.055 212.962 106.063 212.6 104.78 212.6C103.567 212.6 102.54 212.868 101.7 213.405C100.86 213.918 100.242 214.758 99.8451 215.925L97.5701 214.525C98.0367 213.218 98.9001 212.168 100.16 211.375C101.42 210.558 102.983 210.15 104.85 210.15C106.11 210.15 107.253 210.372 108.28 210.815C109.307 211.235 110.112 211.888 110.695 212.775C111.302 213.638 111.605 214.758 111.605 216.135V224.605C111.605 225.445 112.048 225.865 112.935 225.865C113.378 225.865 113.81 225.807 114.23 225.69L114.09 227.895C113.623 228.128 113.017 228.245 112.27 228.245C111.407 228.245 110.66 228.035 110.03 227.615C109.423 227.195 109.027 226.553 108.84 225.69C108.233 226.6 107.405 227.277 106.355 227.72C105.305 228.14 104.267 228.35 103.24 228.35C102.213 228.35 101.257 228.175 100.37 227.825C99.4834 227.475 98.7717 226.95 98.2351 226.25C97.7217 225.527 97.4651 224.64 97.4651 223.59C97.4651 222.283 97.8967 221.21 98.7601 220.37C99.6467 219.507 100.872 218.923 102.435 218.62L108.805 217.36V216.695ZM100.335 223.45C100.335 224.173 100.615 224.768 101.175 225.235C101.758 225.678 102.575 225.9 103.625 225.9C104.535 225.9 105.375 225.748 106.145 225.445C106.938 225.118 107.58 224.64 108.07 224.01C108.56 223.357 108.805 222.528 108.805 221.525V219.67L103.73 220.72C102.587 220.953 101.735 221.28 101.175 221.7C100.615 222.12 100.335 222.703 100.335 223.45ZM131.769 210.5L123.544 230.94C122.867 232.643 122.097 233.833 121.234 234.51C120.394 235.187 119.356 235.525 118.119 235.525C117.326 235.525 116.591 235.408 115.914 235.175C115.261 234.965 114.677 234.673 114.164 234.3L114.934 231.85C115.401 232.27 115.891 232.573 116.404 232.76C116.941 232.97 117.466 233.075 117.979 233.075C118.586 233.075 119.157 232.888 119.694 232.515C120.231 232.142 120.721 231.383 121.164 230.24L122.074 227.965L120.324 223.8L114.759 210.5H117.944L122.319 221.91L123.404 225.025L124.664 221.56L128.759 210.5H131.769ZM157.167 210.5H160.107L152.827 228H150.027L142.747 210.5H145.932L151.462 225.165L157.167 210.5ZM171.081 228.35C169.424 228.35 167.942 227.988 166.636 227.265C165.352 226.542 164.349 225.503 163.626 224.15C162.902 222.773 162.541 221.14 162.541 219.25C162.541 217.36 162.902 215.738 163.626 214.385C164.349 213.008 165.341 211.958 166.601 211.235C167.861 210.512 169.296 210.15 170.906 210.15C172.539 210.15 173.927 210.5 175.071 211.2C176.237 211.9 177.124 212.857 177.731 214.07C178.337 215.26 178.641 216.602 178.641 218.095C178.641 218.492 178.629 218.853 178.606 219.18C178.582 219.507 178.547 219.798 178.501 220.055H165.306C165.446 221.898 166.017 223.333 167.021 224.36C168.024 225.387 169.354 225.9 171.011 225.9C172.294 225.9 173.332 225.655 174.126 225.165C174.942 224.675 175.596 224.01 176.086 223.17L178.291 224.465C177.637 225.655 176.692 226.6 175.456 227.3C174.242 228 172.784 228.35 171.081 228.35ZM170.836 212.6C169.366 212.6 168.152 213.043 167.196 213.93C166.262 214.793 165.667 216.007 165.411 217.57H175.841C175.771 215.983 175.281 214.758 174.371 213.895C173.461 213.032 172.282 212.6 170.836 212.6ZM193.381 225.76C195.038 225.76 196.333 226.145 197.266 226.915C198.199 227.662 198.666 228.665 198.666 229.925C198.666 231.068 198.281 232.06 197.511 232.9C196.764 233.74 195.749 234.382 194.466 234.825C193.206 235.292 191.783 235.525 190.196 235.525C187.443 235.525 185.378 235.058 184.001 234.125C182.648 233.192 181.971 232.072 181.971 230.765C181.971 229.972 182.193 229.248 182.636 228.595C183.079 227.942 183.814 227.475 184.841 227.195C184.281 226.938 183.826 226.588 183.476 226.145C183.126 225.678 182.951 225.06 182.951 224.29C182.951 223.567 183.161 222.913 183.581 222.33C184.001 221.723 184.631 221.257 185.471 220.93C184.584 220.417 183.908 219.74 183.441 218.9C182.974 218.06 182.741 217.115 182.741 216.065C182.741 214.898 183.044 213.872 183.651 212.985C184.281 212.098 185.133 211.41 186.206 210.92C187.279 210.407 188.516 210.15 189.916 210.15C191.386 210.15 192.704 210.442 193.871 211.025C194.034 209.858 194.548 208.948 195.411 208.295C196.298 207.618 197.336 207.28 198.526 207.28H198.701L199.331 209.765H199.086C198.013 209.765 197.173 209.963 196.566 210.36C195.959 210.757 195.621 211.375 195.551 212.215C196.578 213.288 197.091 214.572 197.091 216.065C197.091 217.208 196.788 218.235 196.181 219.145C195.574 220.032 194.723 220.732 193.626 221.245C192.553 221.735 191.316 221.98 189.916 221.98C189.053 221.98 188.248 221.898 187.501 221.735C186.801 221.945 186.299 222.237 185.996 222.61C185.693 222.983 185.541 223.392 185.541 223.835C185.541 225.118 186.451 225.76 188.271 225.76H193.381ZM189.916 212.425C188.703 212.425 187.688 212.763 186.871 213.44C186.054 214.093 185.646 214.968 185.646 216.065C185.646 217.138 186.054 218.013 186.871 218.69C187.688 219.367 188.703 219.705 189.916 219.705C191.129 219.705 192.144 219.367 192.961 218.69C193.778 218.013 194.186 217.138 194.186 216.065C194.186 214.968 193.778 214.093 192.961 213.44C192.144 212.763 191.129 212.425 189.916 212.425ZM190.161 233.18C192.191 233.18 193.684 232.877 194.641 232.27C195.598 231.687 196.076 231.01 196.076 230.24C196.076 229.61 195.819 229.108 195.306 228.735C194.816 228.362 193.918 228.175 192.611 228.175H187.221C186.474 228.175 185.844 228.362 185.331 228.735C184.818 229.132 184.561 229.668 184.561 230.345C184.561 231.208 185.051 231.897 186.031 232.41C187.034 232.923 188.411 233.18 190.161 233.18ZM212.009 225.76C213.666 225.76 214.961 226.145 215.894 226.915C216.827 227.662 217.294 228.665 217.294 229.925C217.294 231.068 216.909 232.06 216.139 232.9C215.392 233.74 214.377 234.382 213.094 234.825C211.834 235.292 210.411 235.525 208.824 235.525C206.071 235.525 204.006 235.058 202.629 234.125C201.276 233.192 200.599 232.072 200.599 230.765C200.599 229.972 200.821 229.248 201.264 228.595C201.707 227.942 202.442 227.475 203.469 227.195C202.909 226.938 202.454 226.588 202.104 226.145C201.754 225.678 201.579 225.06 201.579 224.29C201.579 223.567 201.789 222.913 202.209 222.33C202.629 221.723 203.259 221.257 204.099 220.93C203.212 220.417 202.536 219.74 202.069 218.9C201.602 218.06 201.369 217.115 201.369 216.065C201.369 214.898 201.672 213.872 202.279 212.985C202.909 212.098 203.761 211.41 204.834 210.92C205.907 210.407 207.144 210.15 208.544 210.15C210.014 210.15 211.332 210.442 212.499 211.025C212.662 209.858 213.176 208.948 214.039 208.295C214.926 207.618 215.964 207.28 217.154 207.28H217.329L217.959 209.765H217.714C216.641 209.765 215.801 209.963 215.194 210.36C214.587 210.757 214.249 211.375 214.179 212.215C215.206 213.288 215.719 214.572 215.719 216.065C215.719 217.208 215.416 218.235 214.809 219.145C214.202 220.032 213.351 220.732 212.254 221.245C211.181 221.735 209.944 221.98 208.544 221.98C207.681 221.98 206.876 221.898 206.129 221.735C205.429 221.945 204.927 222.237 204.624 222.61C204.321 222.983 204.169 223.392 204.169 223.835C204.169 225.118 205.079 225.76 206.899 225.76H212.009ZM208.544 212.425C207.331 212.425 206.316 212.763 205.499 213.44C204.682 214.093 204.274 214.968 204.274 216.065C204.274 217.138 204.682 218.013 205.499 218.69C206.316 219.367 207.331 219.705 208.544 219.705C209.757 219.705 210.772 219.367 211.589 218.69C212.406 218.013 212.814 217.138 212.814 216.065C212.814 214.968 212.406 214.093 211.589 213.44C210.772 212.763 209.757 212.425 208.544 212.425ZM208.789 233.18C210.819 233.18 212.312 232.877 213.269 232.27C214.226 231.687 214.704 231.01 214.704 230.24C214.704 229.61 214.447 229.108 213.934 228.735C213.444 228.362 212.546 228.175 211.239 228.175H205.849C205.102 228.175 204.472 228.362 203.959 228.735C203.446 229.132 203.189 229.668 203.189 230.345C203.189 231.208 203.679 231.897 204.659 232.41C205.662 232.923 207.039 233.18 208.789 233.18ZM222.622 207.14C221.992 207.14 221.478 206.953 221.082 206.58C220.708 206.183 220.522 205.67 220.522 205.04C220.522 204.41 220.708 203.908 221.082 203.535C221.478 203.138 221.992 202.94 222.622 202.94C223.252 202.94 223.753 203.138 224.127 203.535C224.523 203.908 224.722 204.41 224.722 205.04C224.722 205.67 224.523 206.183 224.127 206.58C223.753 206.953 223.252 207.14 222.622 207.14ZM224.022 210.5V228H221.222V210.5H224.022ZM237.834 228.35C236.177 228.35 234.695 227.988 233.389 227.265C232.105 226.542 231.102 225.503 230.379 224.15C229.655 222.773 229.294 221.14 229.294 219.25C229.294 217.36 229.655 215.738 230.379 214.385C231.102 213.008 232.094 211.958 233.354 211.235C234.614 210.512 236.049 210.15 237.659 210.15C239.292 210.15 240.68 210.5 241.824 211.2C242.99 211.9 243.877 212.857 244.484 214.07C245.09 215.26 245.394 216.602 245.394 218.095C245.394 218.492 245.382 218.853 245.359 219.18C245.335 219.507 245.3 219.798 245.254 220.055H232.059C232.199 221.898 232.77 223.333 233.774 224.36C234.777 225.387 236.107 225.9 237.764 225.9C239.047 225.9 240.085 225.655 240.879 225.165C241.695 224.675 242.349 224.01 242.839 223.17L245.044 224.465C244.39 225.655 243.445 226.6 242.209 227.3C240.995 228 239.537 228.35 237.834 228.35ZM237.589 212.6C236.119 212.6 234.905 213.043 233.949 213.93C233.015 214.793 232.42 216.007 232.164 217.57H242.594C242.524 215.983 242.034 214.758 241.124 213.895C240.214 213.032 239.035 212.6 237.589 212.6ZM257.019 228.35C255.316 228.35 253.741 227.988 252.294 227.265C250.871 226.542 249.774 225.515 249.004 224.185L251.384 222.47C251.897 223.543 252.644 224.383 253.624 224.99C254.627 225.597 255.829 225.9 257.229 225.9C258.466 225.9 259.434 225.667 260.134 225.2C260.834 224.71 261.184 224.08 261.184 223.31C261.184 222.82 261.021 222.377 260.694 221.98C260.391 221.56 259.796 221.257 258.909 221.07L254.709 220.195C253.006 219.845 251.781 219.262 251.034 218.445C250.311 217.628 249.949 216.613 249.949 215.4C249.949 214.443 250.217 213.568 250.754 212.775C251.314 211.982 252.096 211.352 253.099 210.885C254.126 210.395 255.327 210.15 256.704 210.15C258.431 210.15 259.889 210.488 261.079 211.165C262.269 211.842 263.156 212.798 263.739 214.035L261.394 215.575C260.997 214.548 260.356 213.802 259.469 213.335C258.582 212.845 257.661 212.6 256.704 212.6C255.444 212.6 254.464 212.857 253.764 213.37C253.064 213.883 252.714 214.525 252.714 215.295C252.714 215.808 252.889 216.287 253.239 216.73C253.589 217.15 254.242 217.453 255.199 217.64L259.574 218.55C261.207 218.877 262.351 219.413 263.004 220.16C263.657 220.907 263.984 221.817 263.984 222.89C263.984 224.547 263.342 225.877 262.059 226.88C260.776 227.86 259.096 228.35 257.019 228.35ZM290.921 210.5V212.915H284.551V223.17C284.551 224.033 284.796 224.675 285.286 225.095C285.776 225.515 286.406 225.725 287.176 225.725C287.853 225.725 288.436 225.608 288.926 225.375C289.416 225.142 289.859 224.827 290.256 224.43L291.236 226.775C290.699 227.265 290.058 227.65 289.311 227.93C288.588 228.21 287.748 228.35 286.791 228.35C285.904 228.35 285.076 228.198 284.306 227.895C283.536 227.568 282.918 227.067 282.451 226.39C282.008 225.69 281.774 224.78 281.751 223.66V212.915H278.251V210.5H281.751V206.3L284.551 205.53V210.5H290.921ZM295.084 228V202.45H297.884V213.125C298.491 212.075 299.296 211.317 300.299 210.85C301.302 210.383 302.399 210.15 303.589 210.15C304.849 210.15 305.992 210.395 307.019 210.885C308.046 211.352 308.862 212.075 309.469 213.055C310.099 214.035 310.414 215.283 310.414 216.8V228H307.614V217.78C307.614 215.843 307.194 214.502 306.354 213.755C305.537 212.985 304.522 212.6 303.309 212.6C302.469 212.6 301.629 212.798 300.789 213.195C299.949 213.592 299.249 214.245 298.689 215.155C298.152 216.042 297.884 217.232 297.884 218.725V228H295.084ZM326.974 216.695C326.974 215.388 326.624 214.385 325.924 213.685C325.224 212.962 324.232 212.6 322.949 212.6C321.736 212.6 320.709 212.868 319.869 213.405C319.029 213.918 318.411 214.758 318.014 215.925L315.739 214.525C316.206 213.218 317.069 212.168 318.329 211.375C319.589 210.558 321.152 210.15 323.019 210.15C324.279 210.15 325.422 210.372 326.449 210.815C327.476 211.235 328.281 211.888 328.864 212.775C329.471 213.638 329.774 214.758 329.774 216.135V224.605C329.774 225.445 330.217 225.865 331.104 225.865C331.547 225.865 331.979 225.807 332.399 225.69L332.259 227.895C331.792 228.128 331.186 228.245 330.439 228.245C329.576 228.245 328.829 228.035 328.199 227.615C327.592 227.195 327.196 226.553 327.009 225.69C326.402 226.6 325.574 227.277 324.524 227.72C323.474 228.14 322.436 228.35 321.409 228.35C320.382 228.35 319.426 228.175 318.539 227.825C317.652 227.475 316.941 226.95 316.404 226.25C315.891 225.527 315.634 224.64 315.634 223.59C315.634 222.283 316.066 221.21 316.929 220.37C317.816 219.507 319.041 218.923 320.604 218.62L326.974 217.36V216.695ZM318.504 223.45C318.504 224.173 318.784 224.768 319.344 225.235C319.927 225.678 320.744 225.9 321.794 225.9C322.704 225.9 323.544 225.748 324.314 225.445C325.107 225.118 325.749 224.64 326.239 224.01C326.729 223.357 326.974 222.528 326.974 221.525V219.67L321.899 220.72C320.756 220.953 319.904 221.28 319.344 221.7C318.784 222.12 318.504 222.703 318.504 223.45ZM346.395 210.5V212.915H340.025V223.17C340.025 224.033 340.27 224.675 340.76 225.095C341.25 225.515 341.88 225.725 342.65 225.725C343.326 225.725 343.91 225.608 344.4 225.375C344.89 225.142 345.333 224.827 345.73 224.43L346.71 226.775C346.173 227.265 345.531 227.65 344.785 227.93C344.061 228.21 343.221 228.35 342.265 228.35C341.378 228.35 340.55 228.198 339.78 227.895C339.01 227.568 338.391 227.067 337.925 226.39C337.481 225.69 337.248 224.78 337.225 223.66V212.915H333.725V210.5H337.225V206.3L340.025 205.53V210.5H346.395ZM72.2 251.5H75.315L69.225 269H66.425L61.49 255.07L56.835 269H54.035L47.945 251.5H51.06L55.47 265.745L60.23 251.5H63.03L67.79 265.745L72.2 251.5ZM86.2809 269.35C84.6243 269.35 83.1426 268.988 81.8359 268.265C80.5526 267.542 79.5493 266.503 78.8259 265.15C78.1026 263.773 77.7409 262.14 77.7409 260.25C77.7409 258.36 78.1026 256.738 78.8259 255.385C79.5493 254.008 80.5409 252.958 81.8009 252.235C83.0609 251.512 84.4959 251.15 86.1059 251.15C87.7393 251.15 89.1276 251.5 90.2709 252.2C91.4376 252.9 92.3243 253.857 92.9309 255.07C93.5376 256.26 93.8409 257.602 93.8409 259.095C93.8409 259.492 93.8293 259.853 93.8059 260.18C93.7826 260.507 93.7476 260.798 93.7009 261.055H80.5059C80.6459 262.898 81.2176 264.333 82.2209 265.36C83.2243 266.387 84.5543 266.9 86.2109 266.9C87.4943 266.9 88.5326 266.655 89.3259 266.165C90.1426 265.675 90.7959 265.01 91.2859 264.17L93.4909 265.465C92.8376 266.655 91.8926 267.6 90.6559 268.3C89.4426 269 87.9843 269.35 86.2809 269.35ZM86.0359 253.6C84.5659 253.6 83.3526 254.043 82.3959 254.93C81.4626 255.793 80.8676 257.007 80.6109 258.57H91.0409C90.9709 256.983 90.4809 255.758 89.5709 254.895C88.6609 254.032 87.4826 253.6 86.0359 253.6ZM99.1661 269V251.5H101.441L101.826 254.37C102.806 252.223 104.673 251.15 107.426 251.15C107.729 251.15 108.056 251.173 108.406 251.22C108.779 251.267 109.094 251.36 109.351 251.5L108.861 254.055C108.604 253.962 108.324 253.892 108.021 253.845C107.718 253.798 107.286 253.775 106.726 253.775C106.003 253.775 105.268 253.985 104.521 254.405C103.798 254.825 103.191 255.467 102.701 256.33C102.211 257.17 101.966 258.243 101.966 259.55V269H99.1661ZM120.221 269.35C118.565 269.35 117.083 268.988 115.776 268.265C114.493 267.542 113.49 266.503 112.766 265.15C112.043 263.773 111.681 262.14 111.681 260.25C111.681 258.36 112.043 256.738 112.766 255.385C113.49 254.008 114.481 252.958 115.741 252.235C117.001 251.512 118.436 251.15 120.046 251.15C121.68 251.15 123.068 251.5 124.211 252.2C125.378 252.9 126.265 253.857 126.871 255.07C127.478 256.26 127.781 257.602 127.781 259.095C127.781 259.492 127.77 259.853 127.746 260.18C127.723 260.507 127.688 260.798 127.641 261.055H114.446C114.586 262.898 115.158 264.333 116.161 265.36C117.165 266.387 118.495 266.9 120.151 266.9C121.435 266.9 122.473 266.655 123.266 266.165C124.083 265.675 124.736 265.01 125.226 264.17L127.431 265.465C126.778 266.655 125.833 267.6 124.596 268.3C123.383 269 121.925 269.35 120.221 269.35ZM119.976 253.6C118.506 253.6 117.293 254.043 116.336 254.93C115.403 255.793 114.808 257.007 114.551 258.57H124.981C124.911 256.983 124.421 255.758 123.511 254.895C122.601 254.032 121.423 253.6 119.976 253.6ZM155.255 257.695C155.255 256.388 154.905 255.385 154.205 254.685C153.505 253.962 152.514 253.6 151.23 253.6C150.017 253.6 148.99 253.868 148.15 254.405C147.31 254.918 146.692 255.758 146.295 256.925L144.02 255.525C144.487 254.218 145.35 253.168 146.61 252.375C147.87 251.558 149.434 251.15 151.3 251.15C152.56 251.15 153.704 251.372 154.73 251.815C155.757 252.235 156.562 252.888 157.145 253.775C157.752 254.638 158.055 255.758 158.055 257.135V265.605C158.055 266.445 158.499 266.865 159.385 266.865C159.829 266.865 160.26 266.807 160.68 266.69L160.54 268.895C160.074 269.128 159.467 269.245 158.72 269.245C157.857 269.245 157.11 269.035 156.48 268.615C155.874 268.195 155.477 267.553 155.29 266.69C154.684 267.6 153.855 268.277 152.805 268.72C151.755 269.14 150.717 269.35 149.69 269.35C148.664 269.35 147.707 269.175 146.82 268.825C145.934 268.475 145.222 267.95 144.685 267.25C144.172 266.527 143.915 265.64 143.915 264.59C143.915 263.283 144.347 262.21 145.21 261.37C146.097 260.507 147.322 259.923 148.885 259.62L155.255 258.36V257.695ZM146.785 264.45C146.785 265.173 147.065 265.768 147.625 266.235C148.209 266.678 149.025 266.9 150.075 266.9C150.985 266.9 151.825 266.748 152.595 266.445C153.389 266.118 154.03 265.64 154.52 265.01C155.01 264.357 155.255 263.528 155.255 262.525V260.67L150.18 261.72C149.037 261.953 148.185 262.28 147.625 262.7C147.065 263.12 146.785 263.703 146.785 264.45ZM173.434 269.35C172.104 269.35 170.914 269.035 169.864 268.405C168.814 267.775 168.021 266.947 167.484 265.92L167.309 269H164.859V243.45H167.659V254.23C168.219 253.32 169.001 252.585 170.004 252.025C171.031 251.442 172.186 251.15 173.469 251.15C174.916 251.15 176.246 251.512 177.459 252.235C178.673 252.958 179.641 253.997 180.364 255.35C181.088 256.703 181.449 258.337 181.449 260.25C181.449 262.14 181.076 263.773 180.329 265.15C179.606 266.503 178.638 267.542 177.424 268.265C176.211 268.988 174.881 269.35 173.434 269.35ZM173.154 266.9C174.881 266.9 176.223 266.293 177.179 265.08C178.159 263.867 178.649 262.257 178.649 260.25C178.649 258.243 178.171 256.633 177.214 255.42C176.258 254.207 174.916 253.6 173.189 253.6C171.556 253.6 170.226 254.218 169.199 255.455C168.173 256.692 167.659 258.313 167.659 260.32C167.659 262.327 168.161 263.925 169.164 265.115C170.191 266.305 171.521 266.9 173.154 266.9ZM194.048 251.15C195.705 251.15 197.163 251.512 198.423 252.235C199.706 252.958 200.71 254.008 201.433 255.385C202.156 256.738 202.518 258.36 202.518 260.25C202.518 262.14 202.156 263.773 201.433 265.15C200.71 266.503 199.706 267.542 198.423 268.265C197.163 268.988 195.705 269.35 194.048 269.35C192.415 269.35 190.956 268.988 189.673 268.265C188.39 267.542 187.386 266.503 186.663 265.15C185.94 263.773 185.578 262.14 185.578 260.25C185.578 258.36 185.94 256.738 186.663 255.385C187.386 254.008 188.39 252.958 189.673 252.235C190.956 251.512 192.415 251.15 194.048 251.15ZM194.048 253.565C192.275 253.565 190.886 254.16 189.883 255.35C188.88 256.54 188.378 258.173 188.378 260.25C188.378 262.327 188.88 263.96 189.883 265.15C190.886 266.34 192.275 266.935 194.048 266.935C195.821 266.935 197.21 266.34 198.213 265.15C199.216 263.96 199.718 262.327 199.718 260.25C199.718 258.173 199.216 256.54 198.213 255.35C197.21 254.16 195.821 253.565 194.048 253.565ZM214.124 269.35C213.004 269.35 211.943 269.14 210.939 268.72C209.959 268.3 209.154 267.623 208.524 266.69C207.918 265.733 207.614 264.497 207.614 262.98V251.5H210.414V262.245C210.414 264.018 210.799 265.243 211.569 265.92C212.339 266.573 213.424 266.9 214.824 266.9C215.711 266.9 216.551 266.702 217.344 266.305C218.138 265.885 218.791 265.243 219.304 264.38C219.818 263.517 220.074 262.397 220.074 261.02V251.5H222.874V269H220.424L220.249 266.34C219.643 267.39 218.814 268.16 217.764 268.65C216.738 269.117 215.524 269.35 214.124 269.35ZM239.891 251.5V253.915H233.521V264.17C233.521 265.033 233.766 265.675 234.256 266.095C234.746 266.515 235.376 266.725 236.146 266.725C236.822 266.725 237.406 266.608 237.896 266.375C238.386 266.142 238.829 265.827 239.226 265.43L240.206 267.775C239.669 268.265 239.027 268.65 238.281 268.93C237.557 269.21 236.717 269.35 235.761 269.35C234.874 269.35 234.046 269.198 233.276 268.895C232.506 268.568 231.887 268.067 231.421 267.39C230.977 266.69 230.744 265.78 230.721 264.66V253.915H227.221V251.5H230.721V247.3L233.521 246.53V251.5H239.891ZM265.799 251.5V253.915H259.429V264.17C259.429 265.033 259.674 265.675 260.164 266.095C260.654 266.515 261.284 266.725 262.054 266.725C262.731 266.725 263.314 266.608 263.804 266.375C264.294 266.142 264.737 265.827 265.134 265.43L266.114 267.775C265.577 268.265 264.936 268.65 264.189 268.93C263.466 269.21 262.626 269.35 261.669 269.35C260.782 269.35 259.954 269.198 259.184 268.895C258.414 268.568 257.796 268.067 257.329 267.39C256.886 266.69 256.652 265.78 256.629 264.66V253.915H253.129V251.5H256.629V247.3L259.429 246.53V251.5H265.799ZM277.207 251.15C278.864 251.15 280.322 251.512 281.582 252.235C282.865 252.958 283.869 254.008 284.592 255.385C285.315 256.738 285.677 258.36 285.677 260.25C285.677 262.14 285.315 263.773 284.592 265.15C283.869 266.503 282.865 267.542 281.582 268.265C280.322 268.988 278.864 269.35 277.207 269.35C275.574 269.35 274.115 268.988 272.832 268.265C271.549 267.542 270.545 266.503 269.822 265.15C269.099 263.773 268.737 262.14 268.737 260.25C268.737 258.36 269.099 256.738 269.822 255.385C270.545 254.008 271.549 252.958 272.832 252.235C274.115 251.512 275.574 251.15 277.207 251.15ZM277.207 253.565C275.434 253.565 274.045 254.16 273.042 255.35C272.039 256.54 271.537 258.173 271.537 260.25C271.537 262.327 272.039 263.96 273.042 265.15C274.045 266.34 275.434 266.935 277.207 266.935C278.98 266.935 280.369 266.34 281.372 265.15C282.375 263.96 282.877 262.327 282.877 260.25C282.877 258.173 282.375 256.54 281.372 255.35C280.369 254.16 278.98 253.565 277.207 253.565ZM57.57 310.35C55.9133 310.35 54.4317 309.988 53.125 309.265C51.8417 308.542 50.8383 307.503 50.115 306.15C49.3917 304.773 49.03 303.14 49.03 301.25C49.03 299.36 49.3917 297.738 50.115 296.385C50.8383 295.008 51.83 293.958 53.09 293.235C54.35 292.512 55.785 292.15 57.395 292.15C59.0283 292.15 60.4167 292.5 61.56 293.2C62.7267 293.9 63.6133 294.857 64.22 296.07C64.8267 297.26 65.13 298.602 65.13 300.095C65.13 300.492 65.1183 300.853 65.095 301.18C65.0717 301.507 65.0367 301.798 64.99 302.055H51.795C51.935 303.898 52.5067 305.333 53.51 306.36C54.5133 307.387 55.8433 307.9 57.5 307.9C58.7833 307.9 59.8217 307.655 60.615 307.165C61.4317 306.675 62.085 306.01 62.575 305.17L64.78 306.465C64.1267 307.655 63.1817 308.6 61.945 309.3C60.7317 310 59.2733 310.35 57.57 310.35ZM57.325 294.6C55.855 294.6 54.6417 295.043 53.685 295.93C52.7517 296.793 52.1567 298.007 51.9 299.57H62.33C62.26 297.983 61.77 296.758 60.86 295.895C59.95 295.032 58.7717 294.6 57.325 294.6ZM71.4858 292.5L76.1058 298.975L80.6558 292.5H83.9458L77.6108 301.075L84.0508 310H80.6208L75.7908 303.245L70.8208 310H67.5658L74.2858 301.18L67.9858 292.5H71.4858ZM88.4679 317.35V292.5H90.9179L91.0929 295.58C91.6296 294.553 92.4229 293.725 93.4729 293.095C94.5462 292.465 95.7712 292.15 97.1479 292.15C98.5712 292.15 99.8779 292.512 101.068 293.235C102.281 293.958 103.25 294.997 103.973 296.35C104.696 297.703 105.058 299.337 105.058 301.25C105.058 303.14 104.685 304.773 103.938 306.15C103.215 307.503 102.246 308.542 101.033 309.265C99.8196 309.988 98.4896 310.35 97.0429 310.35C95.7362 310.35 94.5812 310.07 93.5779 309.51C92.5746 308.927 91.8046 308.18 91.2679 307.27V317.35H88.4679ZM96.7629 307.9C98.4896 307.9 99.8312 307.293 100.788 306.08C101.768 304.867 102.258 303.257 102.258 301.25C102.258 299.243 101.78 297.633 100.823 296.42C99.8896 295.207 98.5712 294.6 96.8679 294.6C95.1879 294.6 93.8346 295.207 92.8079 296.42C91.7812 297.633 91.2679 299.243 91.2679 301.25C91.2679 303.257 91.7696 304.867 92.7729 306.08C93.7762 307.293 95.1062 307.9 96.7629 307.9ZM111.811 289.14C111.181 289.14 110.668 288.953 110.271 288.58C109.898 288.183 109.711 287.67 109.711 287.04C109.711 286.41 109.898 285.908 110.271 285.535C110.668 285.138 111.181 284.94 111.811 284.94C112.441 284.94 112.943 285.138 113.316 285.535C113.713 285.908 113.911 286.41 113.911 287.04C113.911 287.67 113.713 288.183 113.316 288.58C112.943 288.953 112.441 289.14 111.811 289.14ZM113.211 292.5V310H110.411V292.5H113.211ZM119.708 310V292.5H121.983L122.368 295.37C123.348 293.223 125.215 292.15 127.968 292.15C128.271 292.15 128.598 292.173 128.948 292.22C129.321 292.267 129.636 292.36 129.893 292.5L129.403 295.055C129.146 294.962 128.866 294.892 128.563 294.845C128.26 294.798 127.828 294.775 127.268 294.775C126.545 294.775 125.81 294.985 125.063 295.405C124.34 295.825 123.733 296.467 123.243 297.33C122.753 298.17 122.508 299.243 122.508 300.55V310H119.708ZM140.763 310.35C139.107 310.35 137.625 309.988 136.318 309.265C135.035 308.542 134.032 307.503 133.308 306.15C132.585 304.773 132.223 303.14 132.223 301.25C132.223 299.36 132.585 297.738 133.308 296.385C134.032 295.008 135.023 293.958 136.283 293.235C137.543 292.512 138.978 292.15 140.588 292.15C142.222 292.15 143.61 292.5 144.753 293.2C145.92 293.9 146.807 294.857 147.413 296.07C148.02 297.26 148.323 298.602 148.323 300.095C148.323 300.492 148.312 300.853 148.288 301.18C148.265 301.507 148.23 301.798 148.183 302.055H134.988C135.128 303.898 135.7 305.333 136.703 306.36C137.707 307.387 139.037 307.9 140.693 307.9C141.977 307.9 143.015 307.655 143.808 307.165C144.625 306.675 145.278 306.01 145.768 305.17L147.973 306.465C147.32 307.655 146.375 308.6 145.138 309.3C143.925 310 142.467 310.35 140.763 310.35ZM140.518 294.6C139.048 294.6 137.835 295.043 136.878 295.93C135.945 296.793 135.35 298.007 135.093 299.57H145.523C145.453 297.983 144.963 296.758 144.053 295.895C143.143 295.032 141.965 294.6 140.518 294.6ZM155.049 305.8C155.725 305.8 156.274 306.01 156.694 306.43C157.114 306.85 157.324 307.398 157.324 308.075C157.324 308.752 157.114 309.3 156.694 309.72C156.274 310.14 155.725 310.35 155.049 310.35C154.372 310.35 153.824 310.14 153.404 309.72C152.984 309.3 152.774 308.752 152.774 308.075C152.774 307.398 152.984 306.85 153.404 306.43C153.824 306.01 154.372 305.8 155.049 305.8ZM193.529 286.9V310H190.064L180.404 294.53L177.954 290.19H177.919L178.059 293.69V310H175.399V286.9H178.864L188.489 302.3L190.974 306.745H191.009L190.869 303.21V286.9H193.529ZM207.549 292.15C209.205 292.15 210.664 292.512 211.924 293.235C213.207 293.958 214.21 295.008 214.934 296.385C215.657 297.738 216.019 299.36 216.019 301.25C216.019 303.14 215.657 304.773 214.934 306.15C214.21 307.503 213.207 308.542 211.924 309.265C210.664 309.988 209.205 310.35 207.549 310.35C205.915 310.35 204.457 309.988 203.174 309.265C201.89 308.542 200.887 307.503 200.164 306.15C199.44 304.773 199.079 303.14 199.079 301.25C199.079 299.36 199.44 297.738 200.164 296.385C200.887 295.008 201.89 293.958 203.174 293.235C204.457 292.512 205.915 292.15 207.549 292.15ZM207.549 294.565C205.775 294.565 204.387 295.16 203.384 296.35C202.38 297.54 201.879 299.173 201.879 301.25C201.879 303.327 202.38 304.96 203.384 306.15C204.387 307.34 205.775 307.935 207.549 307.935C209.322 307.935 210.71 307.34 211.714 306.15C212.717 304.96 213.219 303.327 213.219 301.25C213.219 299.173 212.717 297.54 211.714 296.35C210.71 295.16 209.322 294.565 207.549 294.565ZM242.688 292.5H245.803L239.713 310H236.913L231.978 296.07L227.323 310H224.523L218.433 292.5H221.548L225.958 306.745L230.718 292.5H233.518L238.278 306.745L242.688 292.5ZM264.469 286.9V310H261.669V286.9H264.469ZM289.729 310.35C288.025 310.35 286.45 309.988 285.004 309.265C283.58 308.542 282.484 307.515 281.714 306.185L284.094 304.47C284.607 305.543 285.354 306.383 286.334 306.99C287.337 307.597 288.539 307.9 289.939 307.9C291.175 307.9 292.144 307.667 292.844 307.2C293.544 306.71 293.894 306.08 293.894 305.31C293.894 304.82 293.73 304.377 293.404 303.98C293.1 303.56 292.505 303.257 291.619 303.07L287.419 302.195C285.715 301.845 284.49 301.262 283.744 300.445C283.02 299.628 282.659 298.613 282.659 297.4C282.659 296.443 282.927 295.568 283.464 294.775C284.024 293.982 284.805 293.352 285.809 292.885C286.835 292.395 288.037 292.15 289.414 292.15C291.14 292.15 292.599 292.488 293.789 293.165C294.979 293.842 295.865 294.798 296.449 296.035L294.104 297.575C293.707 296.548 293.065 295.802 292.179 295.335C291.292 294.845 290.37 294.6 289.414 294.6C288.154 294.6 287.174 294.857 286.474 295.37C285.774 295.883 285.424 296.525 285.424 297.295C285.424 297.808 285.599 298.287 285.949 298.73C286.299 299.15 286.952 299.453 287.909 299.64L292.284 300.55C293.917 300.877 295.06 301.413 295.714 302.16C296.367 302.907 296.694 303.817 296.694 304.89C296.694 306.547 296.052 307.877 294.769 308.88C293.485 309.86 291.805 310.35 289.729 310.35ZM312.106 298.695C312.106 297.388 311.756 296.385 311.056 295.685C310.356 294.962 309.364 294.6 308.081 294.6C306.868 294.6 305.841 294.868 305.001 295.405C304.161 295.918 303.543 296.758 303.146 297.925L300.871 296.525C301.338 295.218 302.201 294.168 303.461 293.375C304.721 292.558 306.284 292.15 308.151 292.15C309.411 292.15 310.554 292.372 311.581 292.815C312.608 293.235 313.413 293.888 313.996 294.775C314.603 295.638 314.906 296.758 314.906 298.135V306.605C314.906 307.445 315.349 307.865 316.236 307.865C316.679 307.865 317.111 307.807 317.531 307.69L317.391 309.895C316.924 310.128 316.318 310.245 315.571 310.245C314.708 310.245 313.961 310.035 313.331 309.615C312.724 309.195 312.328 308.553 312.141 307.69C311.534 308.6 310.706 309.277 309.656 309.72C308.606 310.14 307.568 310.35 306.541 310.35C305.514 310.35 304.558 310.175 303.671 309.825C302.784 309.475 302.073 308.95 301.536 308.25C301.023 307.527 300.766 306.64 300.766 305.59C300.766 304.283 301.198 303.21 302.061 302.37C302.948 301.507 304.173 300.923 305.736 300.62L312.106 299.36V298.695ZM303.636 305.45C303.636 306.173 303.916 306.768 304.476 307.235C305.059 307.678 305.876 307.9 306.926 307.9C307.836 307.9 308.676 307.748 309.446 307.445C310.239 307.118 310.881 306.64 311.371 306.01C311.861 305.357 312.106 304.528 312.106 303.525V301.67L307.031 302.72C305.888 302.953 305.036 303.28 304.476 303.7C303.916 304.12 303.636 304.703 303.636 305.45ZM332.714 292.5H335.654L328.374 310H325.574L318.294 292.5H321.479L327.009 307.165L332.714 292.5ZM346.628 310.35C344.971 310.35 343.489 309.988 342.183 309.265C340.899 308.542 339.896 307.503 339.173 306.15C338.449 304.773 338.088 303.14 338.088 301.25C338.088 299.36 338.449 297.738 339.173 296.385C339.896 295.008 340.888 293.958 342.148 293.235C343.408 292.512 344.843 292.15 346.453 292.15C348.086 292.15 349.474 292.5 350.618 293.2C351.784 293.9 352.671 294.857 353.278 296.07C353.884 297.26 354.188 298.602 354.188 300.095C354.188 300.492 354.176 300.853 354.153 301.18C354.129 301.507 354.094 301.798 354.048 302.055H340.853C340.993 303.898 341.564 305.333 342.568 306.36C343.571 307.387 344.901 307.9 346.558 307.9C347.841 307.9 348.879 307.655 349.673 307.165C350.489 306.675 351.143 306.01 351.633 305.17L353.838 306.465C353.184 307.655 352.239 308.6 351.003 309.3C349.789 310 348.331 310.35 346.628 310.35ZM346.383 294.6C344.913 294.6 343.699 295.043 342.743 295.93C341.809 296.793 341.214 298.007 340.958 299.57H351.388C351.318 297.983 350.828 296.758 349.918 295.895C349.008 295.032 347.829 294.6 346.383 294.6ZM50.255 351V333.5H52.705L52.88 336.23C53.51 335.157 54.3267 334.375 55.33 333.885C56.3567 333.395 57.4067 333.15 58.48 333.15C59.7167 333.15 60.8833 333.43 61.98 333.99C63.0767 334.55 63.9167 335.413 64.5 336.58C64.8733 335.787 65.3983 335.145 66.075 334.655C66.7517 334.142 67.4867 333.768 68.28 333.535C69.0967 333.278 69.8667 333.15 70.59 333.15C71.71 333.15 72.7717 333.383 73.775 333.85C74.8017 334.317 75.6417 335.04 76.295 336.02C76.9483 337 77.275 338.26 77.275 339.8V351H74.475V340.08C74.475 338.493 74.0783 337.35 73.285 336.65C72.4917 335.95 71.5117 335.6 70.345 335.6C69.435 335.6 68.5833 335.822 67.79 336.265C66.9967 336.708 66.355 337.362 65.865 338.225C65.3983 339.088 65.165 340.15 65.165 341.41V351H62.365V340.08C62.365 338.493 61.9683 337.35 61.175 336.65C60.3817 335.95 59.4017 335.6 58.235 335.6C57.465 335.6 56.6717 335.81 55.855 336.23C55.0617 336.627 54.3967 337.268 53.86 338.155C53.3233 339.042 53.055 340.208 53.055 341.655V351H50.255ZM90.8594 333.15C92.516 333.15 93.9744 333.512 95.2344 334.235C96.5177 334.958 97.521 336.008 98.2444 337.385C98.9677 338.738 99.3294 340.36 99.3294 342.25C99.3294 344.14 98.9677 345.773 98.2444 347.15C97.521 348.503 96.5177 349.542 95.2344 350.265C93.9744 350.988 92.516 351.35 90.8594 351.35C89.226 351.35 87.7677 350.988 86.4844 350.265C85.201 349.542 84.1977 348.503 83.4744 347.15C82.751 345.773 82.3894 344.14 82.3894 342.25C82.3894 340.36 82.751 338.738 83.4744 337.385C84.1977 336.008 85.201 334.958 86.4844 334.235C87.7677 333.512 89.226 333.15 90.8594 333.15ZM90.8594 335.565C89.086 335.565 87.6977 336.16 86.6944 337.35C85.691 338.54 85.1894 340.173 85.1894 342.25C85.1894 344.327 85.691 345.96 86.6944 347.15C87.6977 348.34 89.086 348.935 90.8594 348.935C92.6327 348.935 94.021 348.34 95.0244 347.15C96.0277 345.96 96.5294 344.327 96.5294 342.25C96.5294 340.173 96.0277 338.54 95.0244 337.35C94.021 336.16 92.6327 335.565 90.8594 335.565ZM104.601 351V333.5H107.051L107.226 336.23C107.832 335.133 108.661 334.352 109.711 333.885C110.761 333.395 111.892 333.15 113.106 333.15C114.366 333.15 115.509 333.395 116.536 333.885C117.562 334.352 118.379 335.075 118.986 336.055C119.616 337.035 119.931 338.283 119.931 339.8V351H117.131V340.78C117.131 338.843 116.711 337.502 115.871 336.755C115.054 335.985 114.039 335.6 112.826 335.6C111.986 335.6 111.146 335.798 110.306 336.195C109.466 336.592 108.766 337.233 108.206 338.12C107.669 339.007 107.401 340.197 107.401 341.69V351H104.601ZM133.586 351.35C131.929 351.35 130.447 350.988 129.141 350.265C127.857 349.542 126.854 348.503 126.131 347.15C125.407 345.773 125.046 344.14 125.046 342.25C125.046 340.36 125.407 338.738 126.131 337.385C126.854 336.008 127.846 334.958 129.106 334.235C130.366 333.512 131.801 333.15 133.411 333.15C135.044 333.15 136.432 333.5 137.576 334.2C138.742 334.9 139.629 335.857 140.236 337.07C140.842 338.26 141.146 339.602 141.146 341.095C141.146 341.492 141.134 341.853 141.111 342.18C141.087 342.507 141.052 342.798 141.006 343.055H127.811C127.951 344.898 128.522 346.333 129.526 347.36C130.529 348.387 131.859 348.9 133.516 348.9C134.799 348.9 135.837 348.655 136.631 348.165C137.447 347.675 138.101 347.01 138.591 346.17L140.796 347.465C140.142 348.655 139.197 349.6 137.961 350.3C136.747 351 135.289 351.35 133.586 351.35ZM133.341 335.6C131.871 335.6 130.657 336.043 129.701 336.93C128.767 337.793 128.172 339.007 127.916 340.57H138.346C138.276 338.983 137.786 337.758 136.876 336.895C135.966 336.032 134.787 335.6 133.341 335.6ZM160.001 333.5L151.776 353.94C151.1 355.643 150.33 356.833 149.466 357.51C148.626 358.187 147.588 358.525 146.351 358.525C145.558 358.525 144.823 358.408 144.146 358.175C143.493 357.965 142.91 357.673 142.396 357.3L143.166 354.85C143.633 355.27 144.123 355.573 144.636 355.76C145.173 355.97 145.698 356.075 146.211 356.075C146.818 356.075 147.39 355.888 147.926 355.515C148.463 355.142 148.953 354.383 149.396 353.24L150.306 350.965L148.556 346.8L142.991 333.5H146.176L150.551 344.91L151.636 348.025L152.896 344.56L156.991 333.5H160.001ZM196.852 339.695C196.852 338.388 196.502 337.385 195.802 336.685C195.102 335.962 194.11 335.6 192.827 335.6C191.614 335.6 190.587 335.868 189.747 336.405C188.907 336.918 188.289 337.758 187.892 338.925L185.617 337.525C186.084 336.218 186.947 335.168 188.207 334.375C189.467 333.558 191.03 333.15 192.897 333.15C194.157 333.15 195.3 333.372 196.327 333.815C197.354 334.235 198.159 334.888 198.742 335.775C199.349 336.638 199.652 337.758 199.652 339.135V347.605C199.652 348.445 200.095 348.865 200.982 348.865C201.425 348.865 201.857 348.807 202.277 348.69L202.137 350.895C201.67 351.128 201.064 351.245 200.317 351.245C199.454 351.245 198.707 351.035 198.077 350.615C197.47 350.195 197.074 349.553 196.887 348.69C196.28 349.6 195.452 350.277 194.402 350.72C193.352 351.14 192.314 351.35 191.287 351.35C190.26 351.35 189.304 351.175 188.417 350.825C187.53 350.475 186.819 349.95 186.282 349.25C185.769 348.527 185.512 347.64 185.512 346.59C185.512 345.283 185.944 344.21 186.807 343.37C187.694 342.507 188.919 341.923 190.482 341.62L196.852 340.36V339.695ZM188.382 346.45C188.382 347.173 188.662 347.768 189.222 348.235C189.805 348.678 190.622 348.9 191.672 348.9C192.582 348.9 193.422 348.748 194.192 348.445C194.985 348.118 195.627 347.64 196.117 347.01C196.607 346.357 196.852 345.528 196.852 344.525V342.67L191.777 343.72C190.634 343.953 189.782 344.28 189.222 344.7C188.662 345.12 188.382 345.703 188.382 346.45ZM206.456 351V333.5H208.906L209.081 336.23C209.688 335.133 210.516 334.352 211.566 333.885C212.616 333.395 213.748 333.15 214.961 333.15C216.221 333.15 217.365 333.395 218.391 333.885C219.418 334.352 220.235 335.075 220.841 336.055C221.471 337.035 221.786 338.283 221.786 339.8V351H218.986V340.78C218.986 338.843 218.566 337.502 217.726 336.755C216.91 335.985 215.895 335.6 214.681 335.6C213.841 335.6 213.001 335.798 212.161 336.195C211.321 336.592 210.621 337.233 210.061 338.12C209.525 339.007 209.256 340.197 209.256 341.69V351H206.456ZM234.951 351.35C233.504 351.35 232.174 350.988 230.961 350.265C229.748 349.542 228.779 348.503 228.056 347.15C227.333 345.773 226.971 344.14 226.971 342.25C226.971 340.313 227.356 338.668 228.126 337.315C228.896 335.962 229.911 334.935 231.171 334.235C232.431 333.512 233.784 333.15 235.231 333.15C236.491 333.15 237.611 333.442 238.591 334.025C239.571 334.585 240.294 335.355 240.761 336.335V325.45H243.561V351H241.111L240.936 347.71C240.446 348.9 239.653 349.81 238.556 350.44C237.459 351.047 236.258 351.35 234.951 351.35ZM235.231 348.9C236.888 348.9 238.218 348.282 239.221 347.045C240.248 345.808 240.761 344.128 240.761 342.005C240.761 339.998 240.259 338.435 239.256 337.315C238.253 336.172 236.958 335.6 235.371 335.6C233.598 335.6 232.221 336.207 231.241 337.42C230.261 338.633 229.771 340.243 229.771 342.25C229.771 344.257 230.249 345.867 231.206 347.08C232.163 348.293 233.504 348.9 235.231 348.9ZM261.998 351V333.5H264.273L264.658 336.37C265.638 334.223 267.505 333.15 270.258 333.15C270.561 333.15 270.888 333.173 271.238 333.22C271.611 333.267 271.926 333.36 272.183 333.5L271.693 336.055C271.436 335.962 271.156 335.892 270.853 335.845C270.55 335.798 270.118 335.775 269.558 335.775C268.835 335.775 268.1 335.985 267.353 336.405C266.63 336.825 266.023 337.467 265.533 338.33C265.043 339.17 264.798 340.243 264.798 341.55V351H261.998ZM283.053 351.35C281.397 351.35 279.915 350.988 278.608 350.265C277.325 349.542 276.322 348.503 275.598 347.15C274.875 345.773 274.513 344.14 274.513 342.25C274.513 340.36 274.875 338.738 275.598 337.385C276.322 336.008 277.313 334.958 278.573 334.235C279.833 333.512 281.268 333.15 282.878 333.15C284.512 333.15 285.9 333.5 287.043 334.2C288.21 334.9 289.097 335.857 289.703 337.07C290.31 338.26 290.613 339.602 290.613 341.095C290.613 341.492 290.602 341.853 290.578 342.18C290.555 342.507 290.52 342.798 290.473 343.055H277.278C277.418 344.898 277.99 346.333 278.993 347.36C279.997 348.387 281.327 348.9 282.983 348.9C284.267 348.9 285.305 348.655 286.098 348.165C286.915 347.675 287.568 347.01 288.058 346.17L290.263 347.465C289.61 348.655 288.665 349.6 287.428 350.3C286.215 351 284.757 351.35 283.053 351.35ZM282.808 335.6C281.338 335.6 280.125 336.043 279.168 336.93C278.235 337.793 277.64 339.007 277.383 340.57H287.813C287.743 338.983 287.253 337.758 286.343 336.895C285.433 336.032 284.255 335.6 282.808 335.6ZM302.764 351.35C301.317 351.35 299.987 350.988 298.774 350.265C297.56 349.542 296.592 348.503 295.869 347.15C295.145 345.773 294.784 344.14 294.784 342.25C294.784 340.313 295.169 338.668 295.939 337.315C296.709 335.962 297.724 334.935 298.984 334.235C300.244 333.512 301.597 333.15 303.044 333.15C304.304 333.15 305.424 333.442 306.404 334.025C307.384 334.585 308.107 335.355 308.574 336.335V325.45H311.374V351H308.924L308.749 347.71C308.259 348.9 307.465 349.81 306.369 350.44C305.272 351.047 304.07 351.35 302.764 351.35ZM303.044 348.9C304.7 348.9 306.03 348.282 307.034 347.045C308.06 345.808 308.574 344.128 308.574 342.005C308.574 339.998 308.072 338.435 307.069 337.315C306.065 336.172 304.77 335.6 303.184 335.6C301.41 335.6 300.034 336.207 299.054 337.42C298.074 338.633 297.584 340.243 297.584 342.25C297.584 344.257 298.062 345.867 299.019 347.08C299.975 348.293 301.317 348.9 303.044 348.9ZM324.217 351.35C323.097 351.35 322.035 351.14 321.032 350.72C320.052 350.3 319.247 349.623 318.617 348.69C318.01 347.733 317.707 346.497 317.707 344.98V333.5H320.507V344.245C320.507 346.018 320.892 347.243 321.662 347.92C322.432 348.573 323.517 348.9 324.917 348.9C325.804 348.9 326.644 348.702 327.437 348.305C328.23 347.885 328.884 347.243 329.397 346.38C329.91 345.517 330.167 344.397 330.167 343.02V333.5H332.967V351H330.517L330.342 348.34C329.735 349.39 328.907 350.16 327.857 350.65C326.83 351.117 325.617 351.35 324.217 351.35ZM346.729 333.15C348.525 333.15 350.019 333.57 351.209 334.41C352.399 335.227 353.32 336.358 353.974 337.805L351.314 339.065C350.94 337.945 350.369 337.093 349.599 336.51C348.852 335.903 347.872 335.6 346.659 335.6C344.909 335.6 343.532 336.195 342.529 337.385C341.549 338.552 341.059 340.173 341.059 342.25C341.059 344.327 341.549 345.96 342.529 347.15C343.532 348.317 344.909 348.9 346.659 348.9C348.035 348.9 349.132 348.585 349.949 347.955C350.765 347.325 351.302 346.438 351.559 345.295L354.149 346.205C353.565 347.815 352.644 349.075 351.384 349.985C350.147 350.895 348.595 351.35 346.729 351.35C345.095 351.35 343.637 350.988 342.354 350.265C341.07 349.542 340.067 348.503 339.344 347.15C338.62 345.773 338.259 344.14 338.259 342.25C338.259 340.36 338.62 338.738 339.344 337.385C340.067 336.008 341.07 334.958 342.354 334.235C343.637 333.512 345.095 333.15 346.729 333.15ZM366.383 351.35C364.727 351.35 363.245 350.988 361.938 350.265C360.655 349.542 359.652 348.503 358.928 347.15C358.205 345.773 357.843 344.14 357.843 342.25C357.843 340.36 358.205 338.738 358.928 337.385C359.652 336.008 360.643 334.958 361.903 334.235C363.163 333.512 364.598 333.15 366.208 333.15C367.842 333.15 369.23 333.5 370.373 334.2C371.54 334.9 372.427 335.857 373.033 337.07C373.64 338.26 373.943 339.602 373.943 341.095C373.943 341.492 373.932 341.853 373.908 342.18C373.885 342.507 373.85 342.798 373.803 343.055H360.608C360.748 344.898 361.32 346.333 362.323 347.36C363.327 348.387 364.657 348.9 366.313 348.9C367.597 348.9 368.635 348.655 369.428 348.165C370.245 347.675 370.898 347.01 371.388 346.17L373.593 347.465C372.94 348.655 371.995 349.6 370.758 350.3C369.545 351 368.087 351.35 366.383 351.35ZM366.138 335.6C364.668 335.6 363.455 336.043 362.498 336.93C361.565 337.793 360.97 339.007 360.713 340.57H371.143C371.073 338.983 370.583 337.758 369.673 336.895C368.763 336.032 367.585 335.6 366.138 335.6ZM60.265 374.5V376.915H54.42V392H51.62V376.915H48.12V374.5H51.62V371.56C51.62 369.997 52.0983 368.725 53.055 367.745C54.0117 366.765 55.4467 366.275 57.36 366.275C57.9667 366.275 58.5383 366.345 59.075 366.485C59.6117 366.625 60.0317 366.823 60.335 367.08L59.6 369.355C59.04 369.005 58.375 368.83 57.605 368.83C56.6017 368.83 55.82 369.075 55.26 369.565C54.7 370.032 54.42 370.79 54.42 371.84V374.5H60.265ZM70.7617 374.15C72.4184 374.15 73.8767 374.512 75.1367 375.235C76.4201 375.958 77.4234 377.008 78.1467 378.385C78.8701 379.738 79.2317 381.36 79.2317 383.25C79.2317 385.14 78.8701 386.773 78.1467 388.15C77.4234 389.503 76.4201 390.542 75.1367 391.265C73.8767 391.988 72.4184 392.35 70.7617 392.35C69.1284 392.35 67.6701 391.988 66.3867 391.265C65.1034 390.542 64.1001 389.503 63.3767 388.15C62.6534 386.773 62.2917 385.14 62.2917 383.25C62.2917 381.36 62.6534 379.738 63.3767 378.385C64.1001 377.008 65.1034 375.958 66.3867 375.235C67.6701 374.512 69.1284 374.15 70.7617 374.15ZM70.7617 376.565C68.9884 376.565 67.6001 377.16 66.5967 378.35C65.5934 379.54 65.0917 381.173 65.0917 383.25C65.0917 385.327 65.5934 386.96 66.5967 388.15C67.6001 389.34 68.9884 389.935 70.7617 389.935C72.5351 389.935 73.9234 389.34 74.9267 388.15C75.9301 386.96 76.4317 385.327 76.4317 383.25C76.4317 381.173 75.9301 379.54 74.9267 378.35C73.9234 377.16 72.5351 376.565 70.7617 376.565ZM91.748 374.15C93.4047 374.15 94.863 374.512 96.123 375.235C97.4064 375.958 98.4097 377.008 99.133 378.385C99.8564 379.738 100.218 381.36 100.218 383.25C100.218 385.14 99.8564 386.773 99.133 388.15C98.4097 389.503 97.4064 390.542 96.123 391.265C94.863 391.988 93.4047 392.35 91.748 392.35C90.1147 392.35 88.6564 391.988 87.373 391.265C86.0897 390.542 85.0864 389.503 84.363 388.15C83.6397 386.773 83.278 385.14 83.278 383.25C83.278 381.36 83.6397 379.738 84.363 378.385C85.0864 377.008 86.0897 375.958 87.373 375.235C88.6564 374.512 90.1147 374.15 91.748 374.15ZM91.748 376.565C89.9747 376.565 88.5864 377.16 87.583 378.35C86.5797 379.54 86.078 381.173 86.078 383.25C86.078 385.327 86.5797 386.96 87.583 388.15C88.5864 389.34 89.9747 389.935 91.748 389.935C93.5214 389.935 94.9097 389.34 95.913 388.15C96.9164 386.96 97.418 385.327 97.418 383.25C97.418 381.173 96.9164 379.54 95.913 378.35C94.9097 377.16 93.5214 376.565 91.748 376.565ZM112.314 392.35C110.868 392.35 109.538 391.988 108.324 391.265C107.111 390.542 106.143 389.503 105.419 388.15C104.696 386.773 104.334 385.14 104.334 383.25C104.334 381.313 104.719 379.668 105.489 378.315C106.259 376.962 107.274 375.935 108.534 375.235C109.794 374.512 111.148 374.15 112.594 374.15C113.854 374.15 114.974 374.442 115.954 375.025C116.934 375.585 117.658 376.355 118.124 377.335V366.45H120.924V392H118.474L118.299 388.71C117.809 389.9 117.016 390.81 115.919 391.44C114.823 392.047 113.621 392.35 112.314 392.35ZM112.594 389.9C114.251 389.9 115.581 389.282 116.584 388.045C117.611 386.808 118.124 385.128 118.124 383.005C118.124 380.998 117.623 379.435 116.619 378.315C115.616 377.172 114.321 376.6 112.734 376.6C110.961 376.6 109.584 377.207 108.604 378.42C107.624 379.633 107.134 381.243 107.134 383.25C107.134 385.257 107.613 386.867 108.569 388.08C109.526 389.293 110.868 389.9 112.594 389.9ZM160.52 374.5H163.635L157.545 392H154.745L149.81 378.07L145.155 392H142.355L136.265 374.5H139.38L143.79 388.745L148.55 374.5H151.35L156.11 388.745L160.52 374.5ZM177.677 380.695C177.677 379.388 177.327 378.385 176.627 377.685C175.927 376.962 174.935 376.6 173.652 376.6C172.439 376.6 171.412 376.868 170.572 377.405C169.732 377.918 169.114 378.758 168.717 379.925L166.442 378.525C166.909 377.218 167.772 376.168 169.032 375.375C170.292 374.558 171.855 374.15 173.722 374.15C174.982 374.15 176.125 374.372 177.152 374.815C178.179 375.235 178.984 375.888 179.567 376.775C180.174 377.638 180.477 378.758 180.477 380.135V388.605C180.477 389.445 180.92 389.865 181.807 389.865C182.25 389.865 182.682 389.807 183.102 389.69L182.962 391.895C182.495 392.128 181.889 392.245 181.142 392.245C180.279 392.245 179.532 392.035 178.902 391.615C178.295 391.195 177.899 390.553 177.712 389.69C177.105 390.6 176.277 391.277 175.227 391.72C174.177 392.14 173.139 392.35 172.112 392.35C171.085 392.35 170.129 392.175 169.242 391.825C168.355 391.475 167.644 390.95 167.107 390.25C166.594 389.527 166.337 388.64 166.337 387.59C166.337 386.283 166.769 385.21 167.632 384.37C168.519 383.507 169.744 382.923 171.307 382.62L177.677 381.36V380.695ZM169.207 387.45C169.207 388.173 169.487 388.768 170.047 389.235C170.63 389.678 171.447 389.9 172.497 389.9C173.407 389.9 174.247 389.748 175.017 389.445C175.81 389.118 176.452 388.64 176.942 388.01C177.432 387.357 177.677 386.528 177.677 385.525V383.67L172.602 384.72C171.459 384.953 170.607 385.28 170.047 385.7C169.487 386.12 169.207 386.703 169.207 387.45ZM193.581 392.35C191.878 392.35 190.303 391.988 188.856 391.265C187.433 390.542 186.336 389.515 185.566 388.185L187.946 386.47C188.46 387.543 189.206 388.383 190.186 388.99C191.19 389.597 192.391 389.9 193.791 389.9C195.028 389.9 195.996 389.667 196.696 389.2C197.396 388.71 197.746 388.08 197.746 387.31C197.746 386.82 197.583 386.377 197.256 385.98C196.953 385.56 196.358 385.257 195.471 385.07L191.271 384.195C189.568 383.845 188.343 383.262 187.596 382.445C186.873 381.628 186.511 380.613 186.511 379.4C186.511 378.443 186.78 377.568 187.316 376.775C187.876 375.982 188.658 375.352 189.661 374.885C190.688 374.395 191.89 374.15 193.266 374.15C194.993 374.15 196.451 374.488 197.641 375.165C198.831 375.842 199.718 376.798 200.301 378.035L197.956 379.575C197.56 378.548 196.918 377.802 196.031 377.335C195.145 376.845 194.223 376.6 193.266 376.6C192.006 376.6 191.026 376.857 190.326 377.37C189.626 377.883 189.276 378.525 189.276 379.295C189.276 379.808 189.451 380.287 189.801 380.73C190.151 381.15 190.805 381.453 191.761 381.64L196.136 382.55C197.77 382.877 198.913 383.413 199.566 384.16C200.22 384.907 200.546 385.817 200.546 386.89C200.546 388.547 199.905 389.877 198.621 390.88C197.338 391.86 195.658 392.35 193.581 392.35ZM216.238 374.5V376.915H209.868V387.17C209.868 388.033 210.113 388.675 210.603 389.095C211.093 389.515 211.723 389.725 212.493 389.725C213.17 389.725 213.753 389.608 214.243 389.375C214.733 389.142 215.177 388.827 215.573 388.43L216.553 390.775C216.017 391.265 215.375 391.65 214.628 391.93C213.905 392.21 213.065 392.35 212.108 392.35C211.222 392.35 210.393 392.198 209.623 391.895C208.853 391.568 208.235 391.067 207.768 390.39C207.325 389.69 207.092 388.78 207.068 387.66V376.915H203.568V374.5H207.068V370.3L209.868 369.53V374.5H216.238ZM227.716 392.35C226.06 392.35 224.578 391.988 223.271 391.265C221.988 390.542 220.985 389.503 220.261 388.15C219.538 386.773 219.176 385.14 219.176 383.25C219.176 381.36 219.538 379.738 220.261 378.385C220.985 377.008 221.976 375.958 223.236 375.235C224.496 374.512 225.931 374.15 227.541 374.15C229.175 374.15 230.563 374.5 231.706 375.2C232.873 375.9 233.76 376.857 234.366 378.07C234.973 379.26 235.276 380.602 235.276 382.095C235.276 382.492 235.265 382.853 235.241 383.18C235.218 383.507 235.183 383.798 235.136 384.055H221.941C222.081 385.898 222.653 387.333 223.656 388.36C224.66 389.387 225.99 389.9 227.646 389.9C228.93 389.9 229.968 389.655 230.761 389.165C231.578 388.675 232.231 388.01 232.721 387.17L234.926 388.465C234.273 389.655 233.328 390.6 232.091 391.3C230.878 392 229.42 392.35 227.716 392.35ZM227.471 376.6C226.001 376.6 224.788 377.043 223.831 377.93C222.898 378.793 222.303 380.007 222.046 381.57H232.476C232.406 379.983 231.916 378.758 231.006 377.895C230.096 377.032 228.918 376.6 227.471 376.6ZM253.755 376.81C252.939 376.81 252.297 376.495 251.83 375.865C251.364 375.235 251.13 374.418 251.13 373.415C251.13 372.248 251.434 371.128 252.04 370.055C252.647 368.982 253.615 368.13 254.945 367.5L256.415 368.865C255.459 369.192 254.689 369.693 254.105 370.37C253.522 371.023 253.149 371.712 252.985 372.435L253.125 372.505C253.219 372.435 253.335 372.377 253.475 372.33C253.615 372.283 253.825 372.26 254.105 372.26C254.525 372.26 254.945 372.447 255.365 372.82C255.809 373.17 256.03 373.718 256.03 374.465C256.03 375.095 255.809 375.643 255.365 376.11C254.922 376.577 254.385 376.81 253.755 376.81ZM260.335 376.81C259.519 376.81 258.877 376.495 258.41 375.865C257.944 375.235 257.71 374.418 257.71 373.415C257.71 372.248 258.014 371.128 258.62 370.055C259.227 368.982 260.195 368.13 261.525 367.5L262.995 368.865C262.039 369.192 261.269 369.693 260.685 370.37C260.102 371.023 259.729 371.712 259.565 372.435L259.705 372.505C259.799 372.435 259.915 372.377 260.055 372.33C260.195 372.283 260.405 372.26 260.685 372.26C261.105 372.26 261.525 372.447 261.945 372.82C262.389 373.17 262.61 373.718 262.61 374.465C262.61 375.095 262.389 375.643 261.945 376.11C261.502 376.577 260.965 376.81 260.335 376.81Z" fill="#2F2E41"/>
<path d="M44.41 505.89V510.06H33.43V505.89H44.41ZM63.5596 496.2V508.38C63.5596 510.88 62.8396 512.83 61.3996 514.23C59.9596 515.61 57.9196 516.3 55.2796 516.3C53.3396 516.3 51.7796 515.96 50.5996 515.28C49.4396 514.58 48.6296 513.62 48.1696 512.4C47.7296 511.16 47.6396 509.75 47.8996 508.17L52.9396 507.27C52.6996 509.09 52.7796 510.38 53.1796 511.14C53.5996 511.88 54.3596 512.25 55.4596 512.25C56.5396 512.25 57.2996 511.89 57.7396 511.17C58.1796 510.45 58.3996 509.34 58.3996 507.84V496.2H63.5596ZM74.4566 516.3C71.9566 516.3 69.9766 515.62 68.5166 514.26C67.0766 512.9 66.3566 510.98 66.3566 508.5C66.3566 506.86 66.6866 505.46 67.3466 504.3C68.0266 503.12 68.9466 502.23 70.1066 501.63C71.2866 501.01 72.6566 500.7 74.2166 500.7C75.7966 500.7 77.1366 501.01 78.2366 501.63C79.3566 502.23 80.2066 503.07 80.7866 504.15C81.3666 505.21 81.6566 506.43 81.6566 507.81C81.6566 508.19 81.6366 508.56 81.5966 508.92C81.5766 509.26 81.5566 509.55 81.5366 509.79H71.3066C71.4466 510.83 71.7866 511.58 72.3266 512.04C72.8666 512.48 73.5766 512.7 74.4566 512.7C75.2166 512.7 75.8166 512.55 76.2566 512.25C76.7166 511.95 77.0566 511.53 77.2766 510.99L81.3566 512.34C81.0766 513.2 80.5866 513.93 79.8866 514.53C79.2066 515.11 78.3866 515.55 77.4266 515.85C76.4866 516.15 75.4966 516.3 74.4566 516.3ZM74.2166 504.27C72.5966 504.27 71.6366 505.2 71.3366 507.06H76.8266C76.6066 505.2 75.7366 504.27 74.2166 504.27ZM90.8097 516.3C89.3097 516.3 87.9197 516.06 86.6397 515.58C85.3597 515.08 84.2897 514.37 83.4297 513.45L85.8297 510.63C86.3297 511.27 86.9897 511.81 87.8097 512.25C88.6497 512.67 89.5797 512.88 90.5997 512.88C91.2197 512.88 91.7297 512.79 92.1297 512.61C92.5297 512.43 92.7297 512.15 92.7297 511.77C92.7297 511.51 92.6297 511.29 92.4297 511.11C92.2297 510.93 91.8297 510.78 91.2297 510.66L89.1297 510.24C87.2497 509.86 85.9097 509.3 85.1097 508.56C84.3297 507.8 83.9397 506.81 83.9397 505.59C83.9397 504.77 84.1897 503.99 84.6897 503.25C85.1897 502.51 85.9597 501.9 86.9997 501.42C88.0397 500.94 89.3697 500.7 90.9897 500.7C94.0897 500.7 96.3497 501.56 97.7697 503.28L95.3397 506.04C94.8597 505.44 94.2397 504.97 93.4797 504.63C92.7197 504.29 91.9597 504.12 91.1997 504.12C89.7397 504.12 89.0097 504.49 89.0097 505.23C89.0097 505.49 89.1297 505.72 89.3697 505.92C89.6297 506.12 90.0997 506.28 90.7797 506.4L93.5097 506.94C95.0497 507.24 96.1597 507.76 96.8397 508.5C97.5197 509.22 97.8597 510.1 97.8597 511.14C97.8597 512.6 97.2697 513.83 96.0897 514.83C94.9297 515.81 93.1697 516.3 90.8097 516.3ZM106.806 516.3C105.306 516.3 103.916 516.06 102.636 515.58C101.356 515.08 100.286 514.37 99.4258 513.45L101.826 510.63C102.326 511.27 102.986 511.81 103.806 512.25C104.646 512.67 105.576 512.88 106.596 512.88C107.216 512.88 107.726 512.79 108.126 512.61C108.526 512.43 108.726 512.15 108.726 511.77C108.726 511.51 108.626 511.29 108.426 511.11C108.226 510.93 107.826 510.78 107.226 510.66L105.126 510.24C103.246 509.86 101.906 509.3 101.106 508.56C100.326 507.8 99.9358 506.81 99.9358 505.59C99.9358 504.77 100.186 503.99 100.686 503.25C101.186 502.51 101.956 501.9 102.996 501.42C104.036 500.94 105.366 500.7 106.986 500.7C110.086 500.7 112.346 501.56 113.766 503.28L111.336 506.04C110.856 505.44 110.236 504.97 109.476 504.63C108.716 504.29 107.956 504.12 107.196 504.12C105.736 504.12 105.006 504.49 105.006 505.23C105.006 505.49 105.126 505.72 105.366 505.92C105.626 506.12 106.096 506.28 106.776 506.4L109.506 506.94C111.046 507.24 112.156 507.76 112.836 508.5C113.516 509.22 113.856 510.1 113.856 511.14C113.856 512.6 113.266 513.83 112.086 514.83C110.926 515.81 109.166 516.3 106.806 516.3ZM119.052 499.26C118.012 499.26 117.252 499.07 116.772 498.69C116.312 498.29 116.082 497.67 116.082 496.83C116.082 495.97 116.312 495.35 116.772 494.97C117.252 494.57 118.012 494.37 119.052 494.37C120.072 494.37 120.822 494.57 121.302 494.97C121.782 495.35 122.022 495.97 122.022 496.83C122.022 497.67 121.782 498.29 121.302 498.69C120.822 499.07 120.072 499.26 119.052 499.26ZM121.602 501V516H116.502V501H121.602ZM132.342 500.7C133.862 500.7 135.122 500.92 136.122 501.36C137.142 501.8 137.932 502.37 138.492 503.07C139.052 503.77 139.412 504.53 139.572 505.35L134.862 506.91C134.742 506.05 134.492 505.41 134.112 504.99C133.732 504.55 133.192 504.33 132.492 504.33C131.532 504.33 130.802 504.67 130.302 505.35C129.822 506.03 129.582 507.1 129.582 508.56C129.582 510.04 129.842 511.1 130.362 511.74C130.902 512.36 131.622 512.67 132.522 512.67C133.942 512.67 134.772 511.86 135.012 510.24L139.602 511.71C139.382 513.01 138.652 514.1 137.412 514.98C136.192 515.86 134.572 516.3 132.552 516.3C130.092 516.3 128.122 515.62 126.642 514.26C125.182 512.88 124.452 510.96 124.452 508.5C124.452 506.86 124.782 505.46 125.442 504.3C126.122 503.14 127.052 502.25 128.232 501.63C129.412 501.01 130.782 500.7 132.342 500.7ZM150.624 506.49C150.624 505.79 150.424 505.24 150.024 504.84C149.644 504.42 149.124 504.21 148.464 504.21C147.804 504.21 147.234 504.38 146.754 504.72C146.294 505.04 145.974 505.62 145.794 506.46L141.474 505.44C141.754 504 142.494 502.85 143.694 501.99C144.894 501.13 146.584 500.7 148.764 500.7C150.964 500.7 152.664 501.19 153.864 502.17C155.084 503.13 155.694 504.54 155.694 506.4V511.89C155.694 512.67 156.044 513.06 156.744 513.06C157.104 513.06 157.394 513.02 157.614 512.94L157.314 515.85C156.714 516.13 155.984 516.27 155.124 516.27C154.184 516.27 153.374 516.09 152.694 515.73C152.014 515.35 151.554 514.78 151.314 514.02C150.894 514.8 150.224 515.38 149.304 515.76C148.404 516.12 147.444 516.3 146.424 516.3C144.884 516.3 143.654 515.95 142.734 515.25C141.834 514.53 141.384 513.5 141.384 512.16C141.384 511.08 141.704 510.19 142.344 509.49C143.004 508.77 144.034 508.27 145.434 507.99L150.624 506.91V506.49ZM146.424 511.68C146.424 512.12 146.584 512.45 146.904 512.67C147.224 512.89 147.604 513 148.044 513C148.724 513 149.324 512.8 149.844 512.4C150.364 511.98 150.624 511.33 150.624 510.45V509.61L148.194 510.12C147.594 510.24 147.144 510.42 146.844 510.66C146.564 510.88 146.424 511.22 146.424 511.68ZM178.093 501V504.63H173.833V516H168.733V504.63H166.333V501H168.733V499.62C168.733 498.34 169.003 497.31 169.543 496.53C170.103 495.73 170.833 495.15 171.733 494.79C172.653 494.41 173.643 494.22 174.703 494.22C175.523 494.22 176.243 494.31 176.863 494.49C177.483 494.65 177.943 494.84 178.243 495.06L177.733 498.24C177.513 498.12 177.263 498.02 176.983 497.94C176.703 497.84 176.353 497.79 175.933 497.79C175.213 497.79 174.633 497.95 174.193 498.27C173.753 498.59 173.533 499.15 173.533 499.95V501H178.093ZM180.164 516V501H184.664L184.874 504.24C185.234 503.14 185.784 502.28 186.524 501.66C187.284 501.02 188.254 500.7 189.434 500.7C189.814 500.7 190.134 500.74 190.394 500.82C190.674 500.88 190.894 500.95 191.054 501.03L190.544 505.23C190.344 505.17 190.084 505.11 189.764 505.05C189.464 504.99 189.094 504.96 188.654 504.96C187.734 504.96 186.934 505.25 186.254 505.83C185.594 506.41 185.264 507.28 185.264 508.44V516H180.164ZM200.019 500.7C201.599 500.7 202.979 501.01 204.159 501.63C205.359 502.25 206.289 503.14 206.949 504.3C207.629 505.46 207.969 506.86 207.969 508.5C207.969 510.14 207.629 511.54 206.949 512.7C206.289 513.86 205.359 514.75 204.159 515.37C202.979 515.99 201.599 516.3 200.019 516.3C198.459 516.3 197.079 515.99 195.879 515.37C194.699 514.75 193.769 513.86 193.089 512.7C192.429 511.54 192.099 510.14 192.099 508.5C192.099 506.86 192.429 505.46 193.089 504.3C193.769 503.14 194.699 502.25 195.879 501.63C197.079 501.01 198.459 500.7 200.019 500.7ZM200.019 504.33C199.139 504.33 198.449 504.66 197.949 505.32C197.469 505.96 197.229 507.02 197.229 508.5C197.229 509.96 197.469 511.02 197.949 511.68C198.449 512.34 199.139 512.67 200.019 512.67C200.919 512.67 201.609 512.34 202.089 511.68C202.589 511.02 202.839 509.96 202.839 508.5C202.839 507.02 202.589 505.96 202.089 505.32C201.609 504.66 200.919 504.33 200.019 504.33ZM210.838 516V501H215.398L215.548 503.91C216.028 502.85 216.698 502.05 217.558 501.51C218.438 500.97 219.448 500.7 220.588 500.7C221.688 500.7 222.648 500.95 223.468 501.45C224.308 501.95 224.928 502.69 225.328 503.67C225.788 502.69 226.468 501.95 227.368 501.45C228.288 500.95 229.288 500.7 230.368 500.7C231.848 500.7 233.068 501.15 234.028 502.05C235.008 502.93 235.498 504.25 235.498 506.01V516H230.398V507.18C230.398 506.22 230.208 505.55 229.828 505.17C229.448 504.79 228.958 504.6 228.358 504.6C227.598 504.6 226.968 504.89 226.468 505.47C225.968 506.03 225.718 506.87 225.718 507.99V516H220.618V507.18C220.618 506.22 220.428 505.55 220.048 505.17C219.668 504.79 219.178 504.6 218.578 504.6C217.878 504.6 217.258 504.87 216.718 505.41C216.198 505.95 215.938 506.84 215.938 508.08V516H210.838ZM265.574 510.33C264.994 512.41 263.924 513.93 262.364 514.89C260.824 515.83 259.004 516.3 256.904 516.3C254.884 516.3 253.144 515.9 251.684 515.1C250.244 514.28 249.134 513.11 248.354 511.59C247.574 510.07 247.184 508.24 247.184 506.1C247.184 503.96 247.574 502.13 248.354 500.61C249.134 499.09 250.244 497.93 251.684 497.13C253.144 496.31 254.874 495.9 256.874 495.9C258.934 495.9 260.734 496.34 262.274 497.22C263.814 498.1 264.834 499.48 265.334 501.36L260.804 503.19C260.524 501.97 260.064 501.13 259.424 500.67C258.804 500.19 258.014 499.95 257.054 499.95C255.614 499.95 254.484 500.47 253.664 501.51C252.864 502.55 252.464 504.08 252.464 506.1C252.464 508.12 252.844 509.65 253.604 510.69C254.384 511.73 255.544 512.25 257.084 512.25C258.044 512.25 258.854 511.99 259.514 511.47C260.194 510.93 260.654 510.11 260.894 509.01L265.574 510.33ZM276.454 506.49C276.454 505.79 276.254 505.24 275.854 504.84C275.474 504.42 274.954 504.21 274.294 504.21C273.634 504.21 273.064 504.38 272.584 504.72C272.124 505.04 271.804 505.62 271.624 506.46L267.304 505.44C267.584 504 268.324 502.85 269.524 501.99C270.724 501.13 272.414 500.7 274.594 500.7C276.794 500.7 278.494 501.19 279.694 502.17C280.914 503.13 281.524 504.54 281.524 506.4V511.89C281.524 512.67 281.874 513.06 282.574 513.06C282.934 513.06 283.224 513.02 283.444 512.94L283.144 515.85C282.544 516.13 281.814 516.27 280.954 516.27C280.014 516.27 279.204 516.09 278.524 515.73C277.844 515.35 277.384 514.78 277.144 514.02C276.724 514.8 276.054 515.38 275.134 515.76C274.234 516.12 273.274 516.3 272.254 516.3C270.714 516.3 269.484 515.95 268.564 515.25C267.664 514.53 267.214 513.5 267.214 512.16C267.214 511.08 267.534 510.19 268.174 509.49C268.834 508.77 269.864 508.27 271.264 507.99L276.454 506.91V506.49ZM272.254 511.68C272.254 512.12 272.414 512.45 272.734 512.67C273.054 512.89 273.434 513 273.874 513C274.554 513 275.154 512.8 275.674 512.4C276.194 511.98 276.454 511.33 276.454 510.45V509.61L274.024 510.12C273.424 510.24 272.974 510.42 272.674 510.66C272.394 510.88 272.254 511.22 272.254 511.68ZM285.457 516V501H290.017L290.167 504.03C290.627 502.93 291.297 502.1 292.177 501.54C293.057 500.98 294.097 500.7 295.297 500.7C296.837 500.7 298.087 501.15 299.047 502.05C300.007 502.95 300.487 504.27 300.487 506.01V516H295.387V507.36C295.387 506.32 295.187 505.6 294.787 505.2C294.387 504.8 293.877 504.6 293.257 504.6C292.517 504.6 291.877 504.86 291.337 505.38C290.817 505.9 290.557 506.79 290.557 508.05V516H285.457ZM312.43 506.49C312.43 505.79 312.23 505.24 311.83 504.84C311.45 504.42 310.93 504.21 310.27 504.21C309.61 504.21 309.04 504.38 308.56 504.72C308.1 505.04 307.78 505.62 307.6 506.46L303.28 505.44C303.56 504 304.3 502.85 305.5 501.99C306.7 501.13 308.39 500.7 310.57 500.7C312.77 500.7 314.47 501.19 315.67 502.17C316.89 503.13 317.5 504.54 317.5 506.4V511.89C317.5 512.67 317.85 513.06 318.55 513.06C318.91 513.06 319.2 513.02 319.42 512.94L319.12 515.85C318.52 516.13 317.79 516.27 316.93 516.27C315.99 516.27 315.18 516.09 314.5 515.73C313.82 515.35 313.36 514.78 313.12 514.02C312.7 514.8 312.03 515.38 311.11 515.76C310.21 516.12 309.25 516.3 308.23 516.3C306.69 516.3 305.46 515.95 304.54 515.25C303.64 514.53 303.19 513.5 303.19 512.16C303.19 511.08 303.51 510.19 304.15 509.49C304.81 508.77 305.84 508.27 307.24 507.99L312.43 506.91V506.49ZM308.23 511.68C308.23 512.12 308.39 512.45 308.71 512.67C309.03 512.89 309.41 513 309.85 513C310.53 513 311.13 512.8 311.65 512.4C312.17 511.98 312.43 511.33 312.43 510.45V509.61L310 510.12C309.4 510.24 308.95 510.42 308.65 510.66C308.37 510.88 308.23 511.22 308.23 511.68ZM326.836 516.3C324.976 516.3 323.476 515.62 322.336 514.26C321.216 512.9 320.656 511 320.656 508.56C320.656 506.88 320.916 505.46 321.436 504.3C321.976 503.12 322.716 502.23 323.656 501.63C324.616 501.01 325.716 500.7 326.956 500.7C328.016 500.7 328.916 500.96 329.656 501.48C330.416 502 330.986 502.69 331.366 503.55V494.64H336.466V516H331.906L331.726 513.06C331.306 514.06 330.666 514.85 329.806 515.43C328.966 516.01 327.976 516.3 326.836 516.3ZM328.606 512.55C329.446 512.55 330.116 512.2 330.616 511.5C331.116 510.8 331.366 509.77 331.366 508.41C331.366 507.15 331.126 506.18 330.646 505.5C330.166 504.8 329.496 504.45 328.636 504.45C327.756 504.45 327.056 504.78 326.536 505.44C326.036 506.08 325.786 507.1 325.786 508.5C325.786 509.9 326.036 510.93 326.536 511.59C327.036 512.23 327.726 512.55 328.606 512.55ZM348.495 506.49C348.495 505.79 348.295 505.24 347.895 504.84C347.515 504.42 346.995 504.21 346.335 504.21C345.675 504.21 345.105 504.38 344.625 504.72C344.165 505.04 343.845 505.62 343.665 506.46L339.345 505.44C339.625 504 340.365 502.85 341.565 501.99C342.765 501.13 344.455 500.7 346.635 500.7C348.835 500.7 350.535 501.19 351.735 502.17C352.955 503.13 353.565 504.54 353.565 506.4V511.89C353.565 512.67 353.915 513.06 354.615 513.06C354.975 513.06 355.265 513.02 355.485 512.94L355.185 515.85C354.585 516.13 353.855 516.27 352.995 516.27C352.055 516.27 351.245 516.09 350.565 515.73C349.885 515.35 349.425 514.78 349.185 514.02C348.765 514.8 348.095 515.38 347.175 515.76C346.275 516.12 345.315 516.3 344.295 516.3C342.755 516.3 341.525 515.95 340.605 515.25C339.705 514.53 339.255 513.5 339.255 512.16C339.255 511.08 339.575 510.19 340.215 509.49C340.875 508.77 341.905 508.27 343.305 507.99L348.495 506.91V506.49ZM344.295 511.68C344.295 512.12 344.455 512.45 344.775 512.67C345.095 512.89 345.475 513 345.915 513C346.595 513 347.195 512.8 347.715 512.4C348.235 511.98 348.495 511.33 348.495 510.45V509.61L346.065 510.12C345.465 510.24 345.015 510.42 344.715 510.66C344.435 510.88 344.295 511.22 344.295 511.68Z" fill="black"/>
<path d="M32.3657 125.26C26.4657 125.26 21.83 122.984 18.4586 118.433C15.0871 113.881 13.4014 107.981 13.4014 100.733C13.4014 92.3043 15.5929 84.2128 19.9757 76.4586C24.3586 68.7043 31.3543 62.5514 40.9629 58L51.5829 67.8614C44.6714 70.2214 39.1086 73.8457 34.8943 78.7343C30.68 83.4543 27.9829 88.4271 26.8029 93.6529L27.8143 94.1586C28.4886 93.6529 29.3314 93.2314 30.3429 92.8943C31.3543 92.5571 32.8714 92.3886 34.8943 92.3886C37.9286 92.3886 40.9629 93.7371 43.9971 96.4343C47.2 98.9628 48.8014 102.924 48.8014 108.319C48.8014 112.87 47.2 116.831 43.9971 120.203C40.7943 123.574 36.9171 125.26 32.3657 125.26ZM79.9029 125.26C74.0029 125.26 69.3671 122.984 65.9957 118.433C62.6243 113.881 60.9386 107.981 60.9386 100.733C60.9386 92.3043 63.13 84.2128 67.5129 76.4586C71.8957 68.7043 78.8914 62.5514 88.5 58L99.12 67.8614C92.2086 70.2214 86.6457 73.8457 82.4314 78.7343C78.2171 83.4543 75.52 88.4271 74.34 93.6529L75.3514 94.1586C76.0257 93.6529 76.8686 93.2314 77.88 92.8943C78.8914 92.5571 80.4086 92.3886 82.4314 92.3886C85.4657 92.3886 88.5 93.7371 91.5343 96.4343C94.7371 98.9628 96.3386 102.924 96.3386 108.319C96.3386 112.87 94.7371 116.831 91.5343 120.203C88.3314 123.574 84.4543 125.26 79.9029 125.26Z" fill="#498352"/>
<path d="M126.739 434.063L115.908 432.489L111.066 422.673C110.934 422.404 110.716 422.187 110.447 422.054C109.773 421.722 108.954 421.999 108.617 422.673L103.775 432.489L92.9442 434.063C92.6456 434.106 92.3725 434.246 92.1635 434.46C91.9108 434.72 91.7715 435.069 91.7763 435.431C91.7811 435.794 91.9296 436.139 92.1891 436.392L100.026 444.033L98.1742 454.821C98.1308 455.072 98.1586 455.33 98.2544 455.566C98.3502 455.802 98.5102 456.007 98.7163 456.156C98.9224 456.306 99.1663 456.395 99.4203 456.413C99.6744 456.431 99.9284 456.378 100.154 456.259L109.842 451.165L119.53 456.259C119.794 456.4 120.101 456.447 120.396 456.395C121.138 456.267 121.637 455.563 121.509 454.821L119.658 444.033L127.494 436.392C127.707 436.183 127.848 435.91 127.891 435.612C128.006 434.865 127.486 434.174 126.739 434.063Z" fill="#FDA202"/>
<path d="M172.17 434.063L161.339 432.489L156.497 422.673C156.364 422.404 156.147 422.186 155.878 422.054C155.204 421.721 154.385 421.999 154.048 422.673L149.206 432.489L138.375 434.063C138.076 434.105 137.803 434.246 137.594 434.46C137.342 434.719 137.202 435.069 137.207 435.431C137.212 435.793 137.36 436.139 137.62 436.392L145.456 444.032L143.605 454.821C143.562 455.072 143.589 455.33 143.685 455.566C143.781 455.802 143.941 456.006 144.147 456.156C144.353 456.306 144.597 456.395 144.851 456.413C145.105 456.431 145.359 456.377 145.584 456.259L155.272 451.165L164.96 456.259C165.225 456.399 165.532 456.446 165.826 456.395C166.569 456.267 167.068 455.563 166.94 454.821L165.088 444.032L172.925 436.392C173.138 436.183 173.279 435.91 173.322 435.611C173.437 434.865 172.916 434.174 172.17 434.063Z" fill="#FDA202"/>
<path d="M217.601 434.063L206.769 432.489L201.927 422.673C201.795 422.404 201.578 422.186 201.309 422.054C200.635 421.721 199.816 421.999 199.479 422.673L194.637 432.489L183.806 434.063C183.507 434.105 183.234 434.246 183.025 434.46C182.772 434.719 182.633 435.069 182.638 435.431C182.643 435.793 182.791 436.139 183.051 436.392L190.887 444.032L189.036 454.821C188.992 455.072 189.02 455.33 189.116 455.566C189.212 455.802 189.372 456.006 189.578 456.156C189.784 456.306 190.028 456.395 190.282 456.413C190.536 456.431 190.79 456.377 191.015 456.259L200.703 451.165L210.391 456.259C210.656 456.399 210.963 456.446 211.257 456.395C211.999 456.267 212.498 455.563 212.37 454.821L210.519 444.032L218.356 436.392C218.569 436.183 218.71 435.91 218.752 435.611C218.868 434.865 218.347 434.174 217.601 434.063Z" fill="#FDA202"/>
<path d="M263.031 434.063L252.2 432.489L247.358 422.673C247.226 422.404 247.008 422.186 246.74 422.054C246.066 421.721 245.247 421.999 244.909 422.673L240.068 432.489L229.236 434.063C228.938 434.105 228.665 434.246 228.456 434.46C228.203 434.719 228.064 435.069 228.069 435.431C228.073 435.793 228.222 436.139 228.481 436.392L236.318 444.032L234.466 454.821C234.423 455.072 234.451 455.33 234.547 455.566C234.642 455.802 234.802 456.006 235.009 456.156C235.215 456.306 235.458 456.395 235.713 456.413C235.967 456.431 236.221 456.377 236.446 456.259L246.134 451.165L255.822 456.259C256.086 456.399 256.393 456.446 256.688 456.395C257.43 456.267 257.929 455.563 257.801 454.821L255.95 444.032L263.786 436.392C264 436.183 264.14 435.91 264.183 435.611C264.298 434.865 263.778 434.174 263.031 434.063Z" fill="#FDA202"/>
<path d="M308.462 434.063L297.631 432.489L292.789 422.673C292.657 422.404 292.439 422.186 292.17 422.054C291.496 421.721 290.677 421.999 290.34 422.673L285.498 432.489L274.667 434.063C274.368 434.105 274.095 434.246 273.886 434.46C273.634 434.719 273.494 435.069 273.499 435.431C273.504 435.793 273.653 436.139 273.912 436.392L281.749 444.032L279.897 454.821C279.854 455.072 279.882 455.33 279.977 455.566C280.073 455.802 280.233 456.006 280.439 456.156C280.645 456.306 280.889 456.395 281.143 456.413C281.397 456.431 281.651 456.377 281.877 456.259L291.565 451.165L301.253 456.259C301.517 456.399 301.824 456.446 302.119 456.395C302.861 456.267 303.36 455.563 303.232 454.821L301.381 444.032L309.217 436.392C309.43 436.183 309.571 435.91 309.614 435.611C309.729 434.865 309.209 434.174 308.462 434.063Z" fill="#FDA202"/>
</svg>
