<svg width="403" height="582" viewBox="0 0 403 582" fill="none" xmlns="http://www.w3.org/2000/svg">
<rect y="88" width="403" height="494" rx="10" fill="#CFE4D2"/>
<path d="M70.41 512.89V517.06H59.43V512.89H70.41ZM97.9596 503.2V523H93.3996V513.91L93.5496 507.82H93.4896L88.5996 523H84.4296L79.5396 507.82H79.4796L79.6296 513.91V523H75.0396V503.2H82.3896L85.5096 513.28L86.6196 517.48H86.6796L87.8196 513.31L90.9096 503.2H97.9596ZM110.296 513.49C110.296 512.79 110.096 512.24 109.696 511.84C109.316 511.42 108.796 511.21 108.136 511.21C107.476 511.21 106.906 511.38 106.426 511.72C105.966 512.04 105.646 512.62 105.466 513.46L101.146 512.44C101.426 511 102.166 509.85 103.366 508.99C104.566 508.13 106.256 507.7 108.436 507.7C110.636 507.7 112.336 508.19 113.536 509.17C114.756 510.13 115.366 511.54 115.366 513.4V518.89C115.366 519.67 115.716 520.06 116.416 520.06C116.776 520.06 117.066 520.02 117.286 519.94L116.986 522.85C116.386 523.13 115.656 523.27 114.796 523.27C113.856 523.27 113.046 523.09 112.366 522.73C111.686 522.35 111.226 521.78 110.986 521.02C110.566 521.8 109.896 522.38 108.976 522.76C108.076 523.12 107.116 523.3 106.096 523.3C104.556 523.3 103.326 522.95 102.406 522.25C101.506 521.53 101.056 520.5 101.056 519.16C101.056 518.08 101.376 517.19 102.016 516.49C102.676 515.77 103.706 515.27 105.106 514.99L110.296 513.91V513.49ZM106.096 518.68C106.096 519.12 106.256 519.45 106.576 519.67C106.896 519.89 107.276 520 107.716 520C108.396 520 108.996 519.8 109.516 519.4C110.036 518.98 110.296 518.33 110.296 517.45V516.61L107.866 517.12C107.266 517.24 106.816 517.42 106.516 517.66C106.236 517.88 106.096 518.22 106.096 518.68ZM119.299 523V508H123.799L124.009 511.24C124.369 510.14 124.919 509.28 125.659 508.66C126.419 508.02 127.389 507.7 128.569 507.7C128.949 507.7 129.269 507.74 129.529 507.82C129.809 507.88 130.029 507.95 130.189 508.03L129.679 512.23C129.479 512.17 129.219 512.11 128.899 512.05C128.599 511.99 128.229 511.96 127.789 511.96C126.869 511.96 126.069 512.25 125.389 512.83C124.729 513.41 124.399 514.28 124.399 515.44V523H119.299ZM137.289 501.64V514.3L142.989 508H148.659L143.139 513.88L148.989 523H143.349L139.719 516.85L137.289 519.55V523H132.189V501.64H137.289ZM169.142 508V511.63H164.882V523H159.782V511.63H157.382V508H159.782V506.62C159.782 505.34 160.052 504.31 160.592 503.53C161.152 502.73 161.882 502.15 162.782 501.79C163.702 501.41 164.692 501.22 165.752 501.22C166.572 501.22 167.292 501.31 167.912 501.49C168.532 501.65 168.992 501.84 169.292 502.06L168.782 505.24C168.562 505.12 168.312 505.02 168.032 504.94C167.752 504.84 167.402 504.79 166.982 504.79C166.262 504.79 165.682 504.95 165.242 505.27C164.802 505.59 164.582 506.15 164.582 506.95V508H169.142ZM171.213 523V508H175.713L175.923 511.24C176.283 510.14 176.833 509.28 177.573 508.66C178.333 508.02 179.303 507.7 180.483 507.7C180.863 507.7 181.183 507.74 181.443 507.82C181.723 507.88 181.943 507.95 182.103 508.03L181.593 512.23C181.393 512.17 181.133 512.11 180.813 512.05C180.513 511.99 180.143 511.96 179.703 511.96C178.783 511.96 177.983 512.25 177.303 512.83C176.643 513.41 176.313 514.28 176.313 515.44V523H171.213ZM191.068 507.7C192.648 507.7 194.028 508.01 195.208 508.63C196.408 509.25 197.338 510.14 197.998 511.3C198.678 512.46 199.018 513.86 199.018 515.5C199.018 517.14 198.678 518.54 197.998 519.7C197.338 520.86 196.408 521.75 195.208 522.37C194.028 522.99 192.648 523.3 191.068 523.3C189.508 523.3 188.128 522.99 186.928 522.37C185.748 521.75 184.818 520.86 184.138 519.7C183.478 518.54 183.148 517.14 183.148 515.5C183.148 513.86 183.478 512.46 184.138 511.3C184.818 510.14 185.748 509.25 186.928 508.63C188.128 508.01 189.508 507.7 191.068 507.7ZM191.068 511.33C190.188 511.33 189.498 511.66 188.998 512.32C188.518 512.96 188.278 514.02 188.278 515.5C188.278 516.96 188.518 518.02 188.998 518.68C189.498 519.34 190.188 519.67 191.068 519.67C191.968 519.67 192.658 519.34 193.138 518.68C193.638 518.02 193.888 516.96 193.888 515.5C193.888 514.02 193.638 512.96 193.138 512.32C192.658 511.66 191.968 511.33 191.068 511.33ZM201.887 523V508H206.447L206.597 510.91C207.077 509.85 207.747 509.05 208.607 508.51C209.487 507.97 210.497 507.7 211.637 507.7C212.737 507.7 213.697 507.95 214.517 508.45C215.357 508.95 215.977 509.69 216.377 510.67C216.837 509.69 217.517 508.95 218.417 508.45C219.337 507.95 220.337 507.7 221.417 507.7C222.897 507.7 224.117 508.15 225.077 509.05C226.057 509.93 226.547 511.25 226.547 513.01V523H221.447V514.18C221.447 513.22 221.257 512.55 220.877 512.17C220.497 511.79 220.007 511.6 219.407 511.6C218.647 511.6 218.017 511.89 217.517 512.47C217.017 513.03 216.767 513.87 216.767 514.99V523H211.667V514.18C211.667 513.22 211.477 512.55 211.097 512.17C210.717 511.79 210.227 511.6 209.627 511.6C208.927 511.6 208.307 511.87 207.767 512.41C207.247 512.95 206.987 513.84 206.987 515.08V523H201.887ZM256.383 503.2V514.93C256.383 520.51 253.433 523.3 247.533 523.3C244.633 523.3 242.433 522.61 240.933 521.23C239.433 519.83 238.683 517.73 238.683 514.93V503.2H243.873V515.02C243.873 517.84 245.093 519.25 247.533 519.25C249.993 519.25 251.223 517.84 251.223 515.02V503.2H256.383ZM268.112 502.9C269.952 502.9 271.572 503.19 272.972 503.77C274.392 504.33 275.622 505.16 276.662 506.26L274.172 509.59C273.312 508.69 272.382 508.02 271.382 507.58C270.402 507.12 269.282 506.89 268.022 506.89C266.922 506.89 266.132 507.07 265.652 507.43C265.172 507.79 264.932 508.23 264.932 508.75C264.932 509.17 265.122 509.53 265.502 509.83C265.902 510.11 266.542 510.35 267.422 510.55L270.752 511.3C272.732 511.76 274.182 512.43 275.102 513.31C276.022 514.19 276.482 515.36 276.482 516.82C276.482 518.22 276.122 519.41 275.402 520.39C274.682 521.35 273.692 522.08 272.432 522.58C271.172 523.06 269.732 523.3 268.112 523.3C266.112 523.3 264.282 522.98 262.622 522.34C260.962 521.68 259.642 520.82 258.662 519.76L261.152 516.31C261.892 517.17 262.892 517.89 264.152 518.47C265.412 519.03 266.712 519.31 268.052 519.31C270.132 519.31 271.172 518.7 271.172 517.48C271.172 517.06 271.012 516.71 270.692 516.43C270.392 516.13 269.832 515.88 269.012 515.68L265.352 514.87C264.232 514.63 263.232 514.29 262.352 513.85C261.492 513.41 260.812 512.83 260.312 512.11C259.812 511.37 259.562 510.45 259.562 509.35C259.562 508.11 259.902 507.01 260.582 506.05C261.262 505.07 262.242 504.3 263.522 503.74C264.802 503.18 266.332 502.9 268.112 502.9ZM277.52 523L284.48 503.2H290.66L297.59 523H292.28L290.93 518.53H284.09L282.71 523H277.52ZM286.67 510.25L285.17 515.02H289.85L288.41 510.28L287.54 507.16H287.48L286.67 510.25Z" fill="black"/>
<path d="M31.58 177.9V201H28.78V177.9H31.58ZM59.9007 183.5V185.915H54.0557V201H51.2557V185.915H47.7557V183.5H51.2557V180.56C51.2557 178.997 51.7341 177.725 52.6907 176.745C53.6474 175.765 55.0824 175.275 56.9957 175.275C57.6024 175.275 58.1741 175.345 58.7107 175.485C59.2474 175.625 59.6674 175.823 59.9707 176.08L59.2357 178.355C58.6757 178.005 58.0107 177.83 57.2407 177.83C56.2374 177.83 55.4557 178.075 54.8957 178.565C54.3357 179.032 54.0557 179.79 54.0557 180.84V183.5H59.9007ZM70.4675 201.35C68.8108 201.35 67.3291 200.988 66.0225 200.265C64.7391 199.542 63.7358 198.503 63.0125 197.15C62.2891 195.773 61.9275 194.14 61.9275 192.25C61.9275 190.36 62.2891 188.738 63.0125 187.385C63.7358 186.008 64.7275 184.958 65.9875 184.235C67.2475 183.512 68.6825 183.15 70.2925 183.15C71.9258 183.15 73.3141 183.5 74.4575 184.2C75.6241 184.9 76.5108 185.857 77.1175 187.07C77.7241 188.26 78.0275 189.602 78.0275 191.095C78.0275 191.492 78.0158 191.853 77.9925 192.18C77.9691 192.507 77.9341 192.798 77.8875 193.055H64.6925C64.8325 194.898 65.4041 196.333 66.4075 197.36C67.4108 198.387 68.7408 198.9 70.3975 198.9C71.6808 198.9 72.7191 198.655 73.5125 198.165C74.3291 197.675 74.9825 197.01 75.4725 196.17L77.6775 197.465C77.0241 198.655 76.0791 199.6 74.8425 200.3C73.6291 201 72.1708 201.35 70.4675 201.35ZM70.2225 185.6C68.7525 185.6 67.5391 186.043 66.5825 186.93C65.6491 187.793 65.0541 189.007 64.7975 190.57H75.2275C75.1575 188.983 74.6675 187.758 73.7575 186.895C72.8475 186.032 71.6691 185.6 70.2225 185.6ZM90.6677 201.35C89.011 201.35 87.5293 200.988 86.2227 200.265C84.9393 199.542 83.936 198.503 83.2127 197.15C82.4893 195.773 82.1277 194.14 82.1277 192.25C82.1277 190.36 82.4893 188.738 83.2127 187.385C83.936 186.008 84.9277 184.958 86.1877 184.235C87.4477 183.512 88.8827 183.15 90.4927 183.15C92.126 183.15 93.5143 183.5 94.6577 184.2C95.8243 184.9 96.711 185.857 97.3177 187.07C97.9243 188.26 98.2277 189.602 98.2277 191.095C98.2277 191.492 98.216 191.853 98.1927 192.18C98.1693 192.507 98.1343 192.798 98.0877 193.055H84.8927C85.0327 194.898 85.6043 196.333 86.6077 197.36C87.611 198.387 88.941 198.9 90.5977 198.9C91.881 198.9 92.9193 198.655 93.7127 198.165C94.5293 197.675 95.1827 197.01 95.6727 196.17L97.8777 197.465C97.2243 198.655 96.2793 199.6 95.0427 200.3C93.8293 201 92.371 201.35 90.6677 201.35ZM90.4227 185.6C88.9527 185.6 87.7393 186.043 86.7827 186.93C85.8493 187.793 85.2543 189.007 84.9977 190.57H95.4277C95.3577 188.983 94.8677 187.758 93.9577 186.895C93.0477 186.032 91.8693 185.6 90.4227 185.6ZM106.213 175.45V196.555C106.213 197.442 106.376 198.06 106.703 198.41C107.03 198.737 107.555 198.9 108.278 198.9C108.745 198.9 109.13 198.865 109.433 198.795C109.736 198.725 110.145 198.597 110.658 198.41L110.203 200.86C109.433 201.187 108.57 201.35 107.613 201.35C104.813 201.35 103.413 199.787 103.413 196.66V175.45H106.213ZM134.766 183.5V185.915H128.396V196.17C128.396 197.033 128.641 197.675 129.131 198.095C129.621 198.515 130.251 198.725 131.021 198.725C131.697 198.725 132.281 198.608 132.771 198.375C133.261 198.142 133.704 197.827 134.101 197.43L135.081 199.775C134.544 200.265 133.902 200.65 133.156 200.93C132.432 201.21 131.592 201.35 130.636 201.35C129.749 201.35 128.921 201.198 128.151 200.895C127.381 200.568 126.762 200.067 126.296 199.39C125.852 198.69 125.619 197.78 125.596 196.66V185.915H122.096V183.5H125.596V179.3L128.396 178.53V183.5H134.766ZM138.929 201V175.45H141.729V186.125C142.335 185.075 143.14 184.317 144.144 183.85C145.147 183.383 146.244 183.15 147.434 183.15C148.694 183.15 149.837 183.395 150.864 183.885C151.89 184.352 152.707 185.075 153.314 186.055C153.944 187.035 154.259 188.283 154.259 189.8V201H151.459V190.78C151.459 188.843 151.039 187.502 150.199 186.755C149.382 185.985 148.367 185.6 147.154 185.6C146.314 185.6 145.474 185.798 144.634 186.195C143.794 186.592 143.094 187.245 142.534 188.155C141.997 189.042 141.729 190.232 141.729 191.725V201H138.929ZM170.819 189.695C170.819 188.388 170.469 187.385 169.769 186.685C169.069 185.962 168.077 185.6 166.794 185.6C165.58 185.6 164.554 185.868 163.714 186.405C162.874 186.918 162.255 187.758 161.859 188.925L159.584 187.525C160.05 186.218 160.914 185.168 162.174 184.375C163.434 183.558 164.997 183.15 166.864 183.15C168.124 183.15 169.267 183.372 170.294 183.815C171.32 184.235 172.125 184.888 172.709 185.775C173.315 186.638 173.619 187.758 173.619 189.135V197.605C173.619 198.445 174.062 198.865 174.949 198.865C175.392 198.865 175.824 198.807 176.244 198.69L176.104 200.895C175.637 201.128 175.03 201.245 174.284 201.245C173.42 201.245 172.674 201.035 172.044 200.615C171.437 200.195 171.04 199.553 170.854 198.69C170.247 199.6 169.419 200.277 168.369 200.72C167.319 201.14 166.28 201.35 165.254 201.35C164.227 201.35 163.27 201.175 162.384 200.825C161.497 200.475 160.785 199.95 160.249 199.25C159.735 198.527 159.479 197.64 159.479 196.59C159.479 195.283 159.91 194.21 160.774 193.37C161.66 192.507 162.885 191.923 164.449 191.62L170.819 190.36V189.695ZM162.349 196.45C162.349 197.173 162.629 197.768 163.189 198.235C163.772 198.678 164.589 198.9 165.639 198.9C166.549 198.9 167.389 198.748 168.159 198.445C168.952 198.118 169.594 197.64 170.084 197.01C170.574 196.357 170.819 195.528 170.819 194.525V192.67L165.744 193.72C164.6 193.953 163.749 194.28 163.189 194.7C162.629 195.12 162.349 195.703 162.349 196.45ZM190.239 183.5V185.915H183.869V196.17C183.869 197.033 184.114 197.675 184.604 198.095C185.094 198.515 185.724 198.725 186.494 198.725C187.171 198.725 187.754 198.608 188.244 198.375C188.734 198.142 189.178 197.827 189.574 197.43L190.554 199.775C190.018 200.265 189.376 200.65 188.629 200.93C187.906 201.21 187.066 201.35 186.109 201.35C185.223 201.35 184.394 201.198 183.624 200.895C182.854 200.568 182.236 200.067 181.769 199.39C181.326 198.69 181.093 197.78 181.069 196.66V185.915H177.569V183.5H181.069V179.3L183.869 178.53V183.5H190.239ZM209.656 177.9V201H206.856V177.9H209.656ZM235.931 201.35C234.275 201.35 232.793 200.988 231.486 200.265C230.203 199.542 229.2 198.503 228.476 197.15C227.753 195.773 227.391 194.14 227.391 192.25C227.391 190.36 227.753 188.738 228.476 187.385C229.2 186.008 230.191 184.958 231.451 184.235C232.711 183.512 234.146 183.15 235.756 183.15C237.39 183.15 238.778 183.5 239.921 184.2C241.088 184.9 241.975 185.857 242.581 187.07C243.188 188.26 243.491 189.602 243.491 191.095C243.491 191.492 243.48 191.853 243.456 192.18C243.433 192.507 243.398 192.798 243.351 193.055H230.156C230.296 194.898 230.868 196.333 231.871 197.36C232.875 198.387 234.205 198.9 235.861 198.9C237.145 198.9 238.183 198.655 238.976 198.165C239.793 197.675 240.446 197.01 240.936 196.17L243.141 197.465C242.488 198.655 241.543 199.6 240.306 200.3C239.093 201 237.635 201.35 235.931 201.35ZM235.686 185.6C234.216 185.6 233.003 186.043 232.046 186.93C231.113 187.793 230.518 189.007 230.261 190.57H240.691C240.621 188.983 240.131 187.758 239.221 186.895C238.311 186.032 237.133 185.6 235.686 185.6ZM259.037 189.695C259.037 188.388 258.687 187.385 257.987 186.685C257.287 185.962 256.295 185.6 255.012 185.6C253.798 185.6 252.772 185.868 251.932 186.405C251.092 186.918 250.473 187.758 250.077 188.925L247.802 187.525C248.268 186.218 249.132 185.168 250.392 184.375C251.652 183.558 253.215 183.15 255.082 183.15C256.342 183.15 257.485 183.372 258.512 183.815C259.538 184.235 260.343 184.888 260.927 185.775C261.533 186.638 261.837 187.758 261.837 189.135V197.605C261.837 198.445 262.28 198.865 263.167 198.865C263.61 198.865 264.042 198.807 264.462 198.69L264.322 200.895C263.855 201.128 263.248 201.245 262.502 201.245C261.638 201.245 260.892 201.035 260.262 200.615C259.655 200.195 259.258 199.553 259.072 198.69C258.465 199.6 257.637 200.277 256.587 200.72C255.537 201.14 254.498 201.35 253.472 201.35C252.445 201.35 251.488 201.175 250.602 200.825C249.715 200.475 249.003 199.95 248.467 199.25C247.953 198.527 247.697 197.64 247.697 196.59C247.697 195.283 248.128 194.21 248.992 193.37C249.878 192.507 251.103 191.923 252.667 191.62L259.037 190.36V189.695ZM250.567 196.45C250.567 197.173 250.847 197.768 251.407 198.235C251.99 198.678 252.807 198.9 253.857 198.9C254.767 198.9 255.607 198.748 256.377 198.445C257.17 198.118 257.812 197.64 258.302 197.01C258.792 196.357 259.037 195.528 259.037 194.525V192.67L253.962 193.72C252.818 193.953 251.967 194.28 251.407 194.7C250.847 195.12 250.567 195.703 250.567 196.45ZM278.457 183.5V185.915H272.087V196.17C272.087 197.033 272.332 197.675 272.822 198.095C273.312 198.515 273.942 198.725 274.712 198.725C275.389 198.725 275.972 198.608 276.462 198.375C276.952 198.142 277.395 197.827 277.792 197.43L278.772 199.775C278.235 200.265 277.594 200.65 276.847 200.93C276.124 201.21 275.284 201.35 274.327 201.35C273.44 201.35 272.612 201.198 271.842 200.895C271.072 200.568 270.454 200.067 269.987 199.39C269.544 198.69 269.31 197.78 269.287 196.66V185.915H265.787V183.5H269.287V179.3L272.087 178.53V183.5H278.457ZM301.794 183.15C303.451 183.15 304.909 183.512 306.169 184.235C307.452 184.958 308.456 186.008 309.179 187.385C309.902 188.738 310.264 190.36 310.264 192.25C310.264 194.14 309.902 195.773 309.179 197.15C308.456 198.503 307.452 199.542 306.169 200.265C304.909 200.988 303.451 201.35 301.794 201.35C300.161 201.35 298.702 200.988 297.419 200.265C296.136 199.542 295.132 198.503 294.409 197.15C293.686 195.773 293.324 194.14 293.324 192.25C293.324 190.36 293.686 188.738 294.409 187.385C295.132 186.008 296.136 184.958 297.419 184.235C298.702 183.512 300.161 183.15 301.794 183.15ZM301.794 185.565C300.021 185.565 298.632 186.16 297.629 187.35C296.626 188.54 296.124 190.173 296.124 192.25C296.124 194.327 296.626 195.96 297.629 197.15C298.632 198.34 300.021 198.935 301.794 198.935C303.567 198.935 304.956 198.34 305.959 197.15C306.962 195.96 307.464 194.327 307.464 192.25C307.464 190.173 306.962 188.54 305.959 187.35C304.956 186.16 303.567 185.565 301.794 185.565ZM321.87 201.35C320.75 201.35 319.689 201.14 318.685 200.72C317.705 200.3 316.9 199.623 316.27 198.69C315.664 197.733 315.36 196.497 315.36 194.98V183.5H318.16V194.245C318.16 196.018 318.545 197.243 319.315 197.92C320.085 198.573 321.17 198.9 322.57 198.9C323.457 198.9 324.297 198.702 325.09 198.305C325.884 197.885 326.537 197.243 327.05 196.38C327.564 195.517 327.82 194.397 327.82 193.02V183.5H330.62V201H328.17L327.995 198.34C327.389 199.39 326.56 200.16 325.51 200.65C324.484 201.117 323.27 201.35 321.87 201.35ZM347.637 183.5V185.915H341.267V196.17C341.267 197.033 341.512 197.675 342.002 198.095C342.492 198.515 343.122 198.725 343.892 198.725C344.569 198.725 345.152 198.608 345.642 198.375C346.132 198.142 346.575 197.827 346.972 197.43L347.952 199.775C347.415 200.265 346.774 200.65 346.027 200.93C345.304 201.21 344.464 201.35 343.507 201.35C342.62 201.35 341.792 201.198 341.022 200.895C340.252 200.568 339.634 200.067 339.167 199.39C338.724 198.69 338.49 197.78 338.467 196.66V185.915H334.967V183.5H338.467V179.3L341.267 178.53V183.5H347.637ZM30.915 216.45V237.555C30.915 238.442 31.0783 239.06 31.405 239.41C31.7317 239.737 32.2567 239.9 32.98 239.9C33.4467 239.9 33.8317 239.865 34.135 239.795C34.4383 239.725 34.8467 239.597 35.36 239.41L34.905 241.86C34.135 242.187 33.2717 242.35 32.315 242.35C29.515 242.35 28.115 240.787 28.115 237.66V216.45H30.915ZM46.2682 242.35C44.6116 242.35 43.1299 241.988 41.8232 241.265C40.5399 240.542 39.5366 239.503 38.8132 238.15C38.0899 236.773 37.7282 235.14 37.7282 233.25C37.7282 231.36 38.0899 229.738 38.8132 228.385C39.5366 227.008 40.5282 225.958 41.7882 225.235C43.0482 224.512 44.4832 224.15 46.0932 224.15C47.7266 224.15 49.1149 224.5 50.2582 225.2C51.4249 225.9 52.3116 226.857 52.9182 228.07C53.5249 229.26 53.8282 230.602 53.8282 232.095C53.8282 232.492 53.8166 232.853 53.7932 233.18C53.7699 233.507 53.7349 233.798 53.6882 234.055H40.4932C40.6332 235.898 41.2049 237.333 42.2082 238.36C43.2116 239.387 44.5416 239.9 46.1982 239.9C47.4816 239.9 48.5199 239.655 49.3132 239.165C50.1299 238.675 50.7832 238.01 51.2732 237.17L53.4782 238.465C52.8249 239.655 51.8799 240.6 50.6432 241.3C49.4299 242 47.9716 242.35 46.2682 242.35ZM46.0232 226.6C44.5532 226.6 43.3399 227.043 42.3832 227.93C41.4499 228.793 40.8549 230.007 40.5982 231.57H51.0282C50.9582 229.983 50.4682 228.758 49.5582 227.895C48.6482 227.032 47.4699 226.6 46.0232 226.6ZM65.4534 242.35C63.7501 242.35 62.1751 241.988 60.7284 241.265C59.3051 240.542 58.2084 239.515 57.4384 238.185L59.8184 236.47C60.3318 237.543 61.0784 238.383 62.0584 238.99C63.0618 239.597 64.2634 239.9 65.6634 239.9C66.9001 239.9 67.8684 239.667 68.5684 239.2C69.2684 238.71 69.6184 238.08 69.6184 237.31C69.6184 236.82 69.4551 236.377 69.1284 235.98C68.8251 235.56 68.2301 235.257 67.3434 235.07L63.1434 234.195C61.4401 233.845 60.2151 233.262 59.4684 232.445C58.7451 231.628 58.3834 230.613 58.3834 229.4C58.3834 228.443 58.6518 227.568 59.1884 226.775C59.7484 225.982 60.5301 225.352 61.5334 224.885C62.5601 224.395 63.7618 224.15 65.1384 224.15C66.8651 224.15 68.3234 224.488 69.5134 225.165C70.7034 225.842 71.5901 226.798 72.1734 228.035L69.8284 229.575C69.4318 228.548 68.7901 227.802 67.9034 227.335C67.0168 226.845 66.0951 226.6 65.1384 226.6C63.8784 226.6 62.8984 226.857 62.1984 227.37C61.4984 227.883 61.1484 228.525 61.1484 229.295C61.1484 229.808 61.3234 230.287 61.6734 230.73C62.0234 231.15 62.6768 231.453 63.6334 231.64L68.0084 232.55C69.6418 232.877 70.7851 233.413 71.4384 234.16C72.0918 234.907 72.4184 235.817 72.4184 236.89C72.4184 238.547 71.7768 239.877 70.4934 240.88C69.2101 241.86 67.5301 242.35 65.4534 242.35ZM83.9105 242.35C82.2071 242.35 80.6321 241.988 79.1855 241.265C77.7621 240.542 76.6655 239.515 75.8955 238.185L78.2755 236.47C78.7888 237.543 79.5355 238.383 80.5155 238.99C81.5188 239.597 82.7205 239.9 84.1205 239.9C85.3571 239.9 86.3255 239.667 87.0255 239.2C87.7255 238.71 88.0755 238.08 88.0755 237.31C88.0755 236.82 87.9121 236.377 87.5855 235.98C87.2821 235.56 86.6871 235.257 85.8005 235.07L81.6005 234.195C79.8971 233.845 78.6721 233.262 77.9255 232.445C77.2021 231.628 76.8405 230.613 76.8405 229.4C76.8405 228.443 77.1088 227.568 77.6455 226.775C78.2055 225.982 78.9871 225.352 79.9905 224.885C81.0171 224.395 82.2188 224.15 83.5955 224.15C85.3221 224.15 86.7805 224.488 87.9705 225.165C89.1605 225.842 90.0471 226.798 90.6305 228.035L88.2855 229.575C87.8888 228.548 87.2471 227.802 86.3605 227.335C85.4738 226.845 84.5521 226.6 83.5955 226.6C82.3355 226.6 81.3555 226.857 80.6555 227.37C79.9555 227.883 79.6055 228.525 79.6055 229.295C79.6055 229.808 79.7805 230.287 80.1305 230.73C80.4805 231.15 81.1338 231.453 82.0905 231.64L86.4655 232.55C88.0988 232.877 89.2421 233.413 89.8955 234.16C90.5488 234.907 90.8755 235.817 90.8755 236.89C90.8755 238.547 90.2338 239.877 88.9505 240.88C87.6671 241.86 85.9871 242.35 83.9105 242.35ZM118.216 230.695C118.216 229.388 117.866 228.385 117.166 227.685C116.466 226.962 115.475 226.6 114.191 226.6C112.978 226.6 111.951 226.868 111.111 227.405C110.271 227.918 109.653 228.758 109.256 229.925L106.981 228.525C107.448 227.218 108.311 226.168 109.571 225.375C110.831 224.558 112.395 224.15 114.261 224.15C115.521 224.15 116.665 224.372 117.691 224.815C118.718 225.235 119.523 225.888 120.106 226.775C120.713 227.638 121.016 228.758 121.016 230.135V238.605C121.016 239.445 121.46 239.865 122.346 239.865C122.79 239.865 123.221 239.807 123.641 239.69L123.501 241.895C123.035 242.128 122.428 242.245 121.681 242.245C120.818 242.245 120.071 242.035 119.441 241.615C118.835 241.195 118.438 240.553 118.251 239.69C117.645 240.6 116.816 241.277 115.766 241.72C114.716 242.14 113.678 242.35 112.651 242.35C111.625 242.35 110.668 242.175 109.781 241.825C108.895 241.475 108.183 240.95 107.646 240.25C107.133 239.527 106.876 238.64 106.876 237.59C106.876 236.283 107.308 235.21 108.171 234.37C109.058 233.507 110.283 232.923 111.846 232.62L118.216 231.36V230.695ZM109.746 237.45C109.746 238.173 110.026 238.768 110.586 239.235C111.17 239.678 111.986 239.9 113.036 239.9C113.946 239.9 114.786 239.748 115.556 239.445C116.35 239.118 116.991 238.64 117.481 238.01C117.971 237.357 118.216 236.528 118.216 235.525V233.67L113.141 234.72C111.998 234.953 111.146 235.28 110.586 235.7C110.026 236.12 109.746 236.703 109.746 237.45ZM127.82 242V224.5H130.27L130.445 227.23C131.052 226.133 131.88 225.352 132.93 224.885C133.98 224.395 135.112 224.15 136.325 224.15C137.585 224.15 138.729 224.395 139.755 224.885C140.782 225.352 141.599 226.075 142.205 227.055C142.835 228.035 143.15 229.283 143.15 230.8V242H140.35V231.78C140.35 229.843 139.93 228.502 139.09 227.755C138.274 226.985 137.259 226.6 136.045 226.6C135.205 226.6 134.365 226.798 133.525 227.195C132.685 227.592 131.985 228.233 131.425 229.12C130.889 230.007 130.62 231.197 130.62 232.69V242H127.82ZM156.315 242.35C154.869 242.35 153.539 241.988 152.325 241.265C151.112 240.542 150.144 239.503 149.42 238.15C148.697 236.773 148.335 235.14 148.335 233.25C148.335 231.313 148.72 229.668 149.49 228.315C150.26 226.962 151.275 225.935 152.535 225.235C153.795 224.512 155.149 224.15 156.595 224.15C157.855 224.15 158.975 224.442 159.955 225.025C160.935 225.585 161.659 226.355 162.125 227.335V216.45H164.925V242H162.475L162.3 238.71C161.81 239.9 161.017 240.81 159.92 241.44C158.824 242.047 157.622 242.35 156.315 242.35ZM156.595 239.9C158.252 239.9 159.582 239.282 160.585 238.045C161.612 236.808 162.125 235.128 162.125 233.005C162.125 230.998 161.624 229.435 160.62 228.315C159.617 227.172 158.322 226.6 156.735 226.6C154.962 226.6 153.585 227.207 152.605 228.42C151.625 229.633 151.135 231.243 151.135 233.25C151.135 235.257 151.614 236.867 152.57 238.08C153.527 239.293 154.869 239.9 156.595 239.9ZM192.777 239.76C194.434 239.76 195.729 240.145 196.662 240.915C197.596 241.662 198.062 242.665 198.062 243.925C198.062 245.068 197.677 246.06 196.907 246.9C196.161 247.74 195.146 248.382 193.862 248.825C192.602 249.292 191.179 249.525 189.592 249.525C186.839 249.525 184.774 249.058 183.397 248.125C182.044 247.192 181.367 246.072 181.367 244.765C181.367 243.972 181.589 243.248 182.032 242.595C182.476 241.942 183.211 241.475 184.237 241.195C183.677 240.938 183.222 240.588 182.872 240.145C182.522 239.678 182.347 239.06 182.347 238.29C182.347 237.567 182.557 236.913 182.977 236.33C183.397 235.723 184.027 235.257 184.867 234.93C183.981 234.417 183.304 233.74 182.837 232.9C182.371 232.06 182.137 231.115 182.137 230.065C182.137 228.898 182.441 227.872 183.047 226.985C183.677 226.098 184.529 225.41 185.602 224.92C186.676 224.407 187.912 224.15 189.312 224.15C190.782 224.15 192.101 224.442 193.267 225.025C193.431 223.858 193.944 222.948 194.807 222.295C195.694 221.618 196.732 221.28 197.922 221.28H198.097L198.727 223.765H198.482C197.409 223.765 196.569 223.963 195.962 224.36C195.356 224.757 195.017 225.375 194.947 226.215C195.974 227.288 196.487 228.572 196.487 230.065C196.487 231.208 196.184 232.235 195.577 233.145C194.971 234.032 194.119 234.732 193.022 235.245C191.949 235.735 190.712 235.98 189.312 235.98C188.449 235.98 187.644 235.898 186.897 235.735C186.197 235.945 185.696 236.237 185.392 236.61C185.089 236.983 184.937 237.392 184.937 237.835C184.937 239.118 185.847 239.76 187.667 239.76H192.777ZM189.312 226.425C188.099 226.425 187.084 226.763 186.267 227.44C185.451 228.093 185.042 228.968 185.042 230.065C185.042 231.138 185.451 232.013 186.267 232.69C187.084 233.367 188.099 233.705 189.312 233.705C190.526 233.705 191.541 233.367 192.357 232.69C193.174 232.013 193.582 231.138 193.582 230.065C193.582 228.968 193.174 228.093 192.357 227.44C191.541 226.763 190.526 226.425 189.312 226.425ZM189.557 247.18C191.587 247.18 193.081 246.877 194.037 246.27C194.994 245.687 195.472 245.01 195.472 244.24C195.472 243.61 195.216 243.108 194.702 242.735C194.212 242.362 193.314 242.175 192.007 242.175H186.617C185.871 242.175 185.241 242.362 184.727 242.735C184.214 243.132 183.957 243.668 183.957 244.345C183.957 245.208 184.447 245.897 185.427 246.41C186.431 246.923 187.807 247.18 189.557 247.18ZM209.305 242.35C207.649 242.35 206.167 241.988 204.86 241.265C203.577 240.542 202.574 239.503 201.85 238.15C201.127 236.773 200.765 235.14 200.765 233.25C200.765 231.36 201.127 229.738 201.85 228.385C202.574 227.008 203.565 225.958 204.825 225.235C206.085 224.512 207.52 224.15 209.13 224.15C210.764 224.15 212.152 224.5 213.295 225.2C214.462 225.9 215.349 226.857 215.955 228.07C216.562 229.26 216.865 230.602 216.865 232.095C216.865 232.492 216.854 232.853 216.83 233.18C216.807 233.507 216.772 233.798 216.725 234.055H203.53C203.67 235.898 204.242 237.333 205.245 238.36C206.249 239.387 207.579 239.9 209.235 239.9C210.519 239.9 211.557 239.655 212.35 239.165C213.167 238.675 213.82 238.01 214.31 237.17L216.515 238.465C215.862 239.655 214.917 240.6 213.68 241.3C212.467 242 211.009 242.35 209.305 242.35ZM209.06 226.6C207.59 226.6 206.377 227.043 205.42 227.93C204.487 228.793 203.892 230.007 203.635 231.57H214.065C213.995 229.983 213.505 228.758 212.595 227.895C211.685 227.032 210.507 226.6 209.06 226.6ZM232.178 224.5V226.915H225.808V237.17C225.808 238.033 226.053 238.675 226.543 239.095C227.033 239.515 227.663 239.725 228.433 239.725C229.11 239.725 229.693 239.608 230.183 239.375C230.673 239.142 231.116 238.827 231.513 238.43L232.493 240.775C231.956 241.265 231.315 241.65 230.568 241.93C229.845 242.21 229.005 242.35 228.048 242.35C227.161 242.35 226.333 242.198 225.563 241.895C224.793 241.568 224.175 241.067 223.708 240.39C223.265 239.69 223.031 238.78 223.008 237.66V226.915H219.508V224.5H223.008V220.3L225.808 219.53V224.5H232.178ZM256.845 242.35C255.515 242.35 254.325 242.035 253.275 241.405C252.225 240.775 251.431 239.947 250.895 238.92L250.72 242H248.27V216.45H251.07V227.23C251.63 226.32 252.411 225.585 253.415 225.025C254.441 224.442 255.596 224.15 256.88 224.15C258.326 224.15 259.656 224.512 260.87 225.235C262.083 225.958 263.051 226.997 263.775 228.35C264.498 229.703 264.86 231.337 264.86 233.25C264.86 235.14 264.486 236.773 263.74 238.15C263.016 239.503 262.048 240.542 260.835 241.265C259.621 241.988 258.291 242.35 256.845 242.35ZM256.565 239.9C258.291 239.9 259.633 239.293 260.59 238.08C261.57 236.867 262.06 235.257 262.06 233.25C262.06 231.243 261.581 229.633 260.625 228.42C259.668 227.207 258.326 226.6 256.6 226.6C254.966 226.6 253.636 227.218 252.61 228.455C251.583 229.692 251.07 231.313 251.07 233.32C251.07 235.327 251.571 236.925 252.575 238.115C253.601 239.305 254.931 239.9 256.565 239.9ZM277.528 242.35C275.871 242.35 274.39 241.988 273.083 241.265C271.8 240.542 270.796 239.503 270.073 238.15C269.35 236.773 268.988 235.14 268.988 233.25C268.988 231.36 269.35 229.738 270.073 228.385C270.796 227.008 271.788 225.958 273.048 225.235C274.308 224.512 275.743 224.15 277.353 224.15C278.986 224.15 280.375 224.5 281.518 225.2C282.685 225.9 283.571 226.857 284.178 228.07C284.785 229.26 285.088 230.602 285.088 232.095C285.088 232.492 285.076 232.853 285.053 233.18C285.03 233.507 284.995 233.798 284.948 234.055H271.753C271.893 235.898 272.465 237.333 273.468 238.36C274.471 239.387 275.801 239.9 277.458 239.9C278.741 239.9 279.78 239.655 280.573 239.165C281.39 238.675 282.043 238.01 282.533 237.17L284.738 238.465C284.085 239.655 283.14 240.6 281.903 241.3C280.69 242 279.231 242.35 277.528 242.35ZM277.283 226.6C275.813 226.6 274.6 227.043 273.643 227.93C272.71 228.793 272.115 230.007 271.858 231.57H282.288C282.218 229.983 281.728 228.758 280.818 227.895C279.908 227.032 278.73 226.6 277.283 226.6ZM300.401 224.5V226.915H294.031V237.17C294.031 238.033 294.276 238.675 294.766 239.095C295.256 239.515 295.886 239.725 296.656 239.725C297.332 239.725 297.916 239.608 298.406 239.375C298.896 239.142 299.339 238.827 299.736 238.43L300.716 240.775C300.179 241.265 299.537 241.65 298.791 241.93C298.067 242.21 297.227 242.35 296.271 242.35C295.384 242.35 294.556 242.198 293.786 241.895C293.016 241.568 292.397 241.067 291.931 240.39C291.487 239.69 291.254 238.78 291.231 237.66V226.915H287.731V224.5H291.231V220.3L294.031 219.53V224.5H300.401ZM312.808 224.5V226.915H306.438V237.17C306.438 238.033 306.683 238.675 307.173 239.095C307.663 239.515 308.293 239.725 309.063 239.725C309.739 239.725 310.323 239.608 310.813 239.375C311.303 239.142 311.746 238.827 312.143 238.43L313.123 240.775C312.586 241.265 311.944 241.65 311.198 241.93C310.474 242.21 309.634 242.35 308.678 242.35C307.791 242.35 306.963 242.198 306.193 241.895C305.423 241.568 304.804 241.067 304.338 240.39C303.894 239.69 303.661 238.78 303.638 237.66V226.915H300.138V224.5H303.638V220.3L306.438 219.53V224.5H312.808ZM324.286 242.35C322.629 242.35 321.147 241.988 319.841 241.265C318.557 240.542 317.554 239.503 316.831 238.15C316.107 236.773 315.746 235.14 315.746 233.25C315.746 231.36 316.107 229.738 316.831 228.385C317.554 227.008 318.546 225.958 319.806 225.235C321.066 224.512 322.501 224.15 324.111 224.15C325.744 224.15 327.132 224.5 328.276 225.2C329.442 225.9 330.329 226.857 330.936 228.07C331.542 229.26 331.846 230.602 331.846 232.095C331.846 232.492 331.834 232.853 331.811 233.18C331.787 233.507 331.752 233.798 331.706 234.055H318.511C318.651 235.898 319.222 237.333 320.226 238.36C321.229 239.387 322.559 239.9 324.216 239.9C325.499 239.9 326.537 239.655 327.331 239.165C328.147 238.675 328.801 238.01 329.291 237.17L331.496 238.465C330.842 239.655 329.897 240.6 328.661 241.3C327.447 242 325.989 242.35 324.286 242.35ZM324.041 226.6C322.571 226.6 321.357 227.043 320.401 227.93C319.467 228.793 318.872 230.007 318.616 231.57H329.046C328.976 229.983 328.486 228.758 327.576 227.895C326.666 227.032 325.487 226.6 324.041 226.6ZM337.171 242V224.5H339.446L339.831 227.37C340.811 225.223 342.678 224.15 345.431 224.15C345.734 224.15 346.061 224.173 346.411 224.22C346.784 224.267 347.099 224.36 347.356 224.5L346.866 227.055C346.609 226.962 346.329 226.892 346.026 226.845C345.723 226.798 345.291 226.775 344.731 226.775C344.008 226.775 343.273 226.985 342.526 227.405C341.803 227.825 341.196 228.467 340.706 229.33C340.216 230.17 339.971 231.243 339.971 232.55V242H337.171ZM38.475 271.695C38.475 270.388 38.125 269.385 37.425 268.685C36.725 267.962 35.7333 267.6 34.45 267.6C33.2367 267.6 32.21 267.868 31.37 268.405C30.53 268.918 29.9117 269.758 29.515 270.925L27.24 269.525C27.7067 268.218 28.57 267.168 29.83 266.375C31.09 265.558 32.6533 265.15 34.52 265.15C35.78 265.15 36.9233 265.372 37.95 265.815C38.9767 266.235 39.7817 266.888 40.365 267.775C40.9717 268.638 41.275 269.758 41.275 271.135V279.605C41.275 280.445 41.7183 280.865 42.605 280.865C43.0483 280.865 43.48 280.807 43.9 280.69L43.76 282.895C43.2933 283.128 42.6867 283.245 41.94 283.245C41.0767 283.245 40.33 283.035 39.7 282.615C39.0933 282.195 38.6967 281.553 38.51 280.69C37.9033 281.6 37.075 282.277 36.025 282.72C34.975 283.14 33.9367 283.35 32.91 283.35C31.8833 283.35 30.9267 283.175 30.04 282.825C29.1533 282.475 28.4417 281.95 27.905 281.25C27.3917 280.527 27.135 279.64 27.135 278.59C27.135 277.283 27.5667 276.21 28.43 275.37C29.3167 274.507 30.5417 273.923 32.105 273.62L38.475 272.36V271.695ZM30.005 278.45C30.005 279.173 30.285 279.768 30.845 280.235C31.4283 280.678 32.245 280.9 33.295 280.9C34.205 280.9 35.045 280.748 35.815 280.445C36.6083 280.118 37.25 279.64 37.74 279.01C38.23 278.357 38.475 277.528 38.475 276.525V274.67L33.4 275.72C32.2567 275.953 31.405 276.28 30.845 276.7C30.285 277.12 30.005 277.703 30.005 278.45ZM57.8956 265.5V267.915H51.5256V278.17C51.5256 279.033 51.7706 279.675 52.2606 280.095C52.7506 280.515 53.3806 280.725 54.1506 280.725C54.8273 280.725 55.4106 280.608 55.9006 280.375C56.3906 280.142 56.834 279.827 57.2306 279.43L58.2106 281.775C57.674 282.265 57.0323 282.65 56.2856 282.93C55.5623 283.21 54.7223 283.35 53.7656 283.35C52.879 283.35 52.0506 283.198 51.2806 282.895C50.5106 282.568 49.8923 282.067 49.4256 281.39C48.9823 280.69 48.749 279.78 48.7256 278.66V267.915H45.2256V265.5H48.7256V261.3L51.5256 260.53V265.5H57.8956ZM81.2324 265.15C83.0291 265.15 84.5224 265.57 85.7124 266.41C86.9024 267.227 87.8241 268.358 88.4774 269.805L85.8174 271.065C85.4441 269.945 84.8724 269.093 84.1024 268.51C83.3558 267.903 82.3758 267.6 81.1624 267.6C79.4124 267.6 78.0358 268.195 77.0324 269.385C76.0524 270.552 75.5624 272.173 75.5624 274.25C75.5624 276.327 76.0524 277.96 77.0324 279.15C78.0358 280.317 79.4124 280.9 81.1624 280.9C82.5391 280.9 83.6358 280.585 84.4524 279.955C85.2691 279.325 85.8058 278.438 86.0624 277.295L88.6524 278.205C88.0691 279.815 87.1474 281.075 85.8874 281.985C84.6508 282.895 83.0991 283.35 81.2324 283.35C79.5991 283.35 78.1408 282.988 76.8574 282.265C75.5741 281.542 74.5708 280.503 73.8474 279.15C73.1241 277.773 72.7624 276.14 72.7624 274.25C72.7624 272.36 73.1241 270.738 73.8474 269.385C74.5708 268.008 75.5741 266.958 76.8574 266.235C78.1408 265.512 79.5991 265.15 81.2324 265.15ZM100.817 265.15C102.474 265.15 103.932 265.512 105.192 266.235C106.476 266.958 107.479 268.008 108.202 269.385C108.926 270.738 109.287 272.36 109.287 274.25C109.287 276.14 108.926 277.773 108.202 279.15C107.479 280.503 106.476 281.542 105.192 282.265C103.932 282.988 102.474 283.35 100.817 283.35C99.184 283.35 97.7257 282.988 96.4424 282.265C95.159 281.542 94.1557 280.503 93.4324 279.15C92.709 277.773 92.3474 276.14 92.3474 274.25C92.3474 272.36 92.709 270.738 93.4324 269.385C94.1557 268.008 95.159 266.958 96.4424 266.235C97.7257 265.512 99.184 265.15 100.817 265.15ZM100.817 267.565C99.044 267.565 97.6557 268.16 96.6524 269.35C95.649 270.54 95.1474 272.173 95.1474 274.25C95.1474 276.327 95.649 277.96 96.6524 279.15C97.6557 280.34 99.044 280.935 100.817 280.935C102.591 280.935 103.979 280.34 104.982 279.15C105.986 277.96 106.487 276.327 106.487 274.25C106.487 272.173 105.986 270.54 104.982 269.35C103.979 268.16 102.591 267.565 100.817 267.565ZM121.804 265.15C123.46 265.15 124.919 265.512 126.179 266.235C127.462 266.958 128.465 268.008 129.189 269.385C129.912 270.738 130.274 272.36 130.274 274.25C130.274 276.14 129.912 277.773 129.189 279.15C128.465 280.503 127.462 281.542 126.179 282.265C124.919 282.988 123.46 283.35 121.804 283.35C120.17 283.35 118.712 282.988 117.429 282.265C116.145 281.542 115.142 280.503 114.419 279.15C113.695 277.773 113.334 276.14 113.334 274.25C113.334 272.36 113.695 270.738 114.419 269.385C115.142 268.008 116.145 266.958 117.429 266.235C118.712 265.512 120.17 265.15 121.804 265.15ZM121.804 267.565C120.03 267.565 118.642 268.16 117.639 269.35C116.635 270.54 116.134 272.173 116.134 274.25C116.134 276.327 116.635 277.96 117.639 279.15C118.642 280.34 120.03 280.935 121.804 280.935C123.577 280.935 124.965 280.34 125.969 279.15C126.972 277.96 127.474 276.327 127.474 274.25C127.474 272.173 126.972 270.54 125.969 269.35C124.965 268.16 123.577 267.565 121.804 267.565ZM150.91 265.5L144.085 272.325L151.33 283H147.935L142.055 274.355L138.345 278.065V283H135.545V257.45H138.345V274.565L147.375 265.5H150.91ZM156.803 262.14C156.173 262.14 155.66 261.953 155.263 261.58C154.89 261.183 154.703 260.67 154.703 260.04C154.703 259.41 154.89 258.908 155.263 258.535C155.66 258.138 156.173 257.94 156.803 257.94C157.433 257.94 157.935 258.138 158.308 258.535C158.705 258.908 158.903 259.41 158.903 260.04C158.903 260.67 158.705 261.183 158.308 261.58C157.935 261.953 157.433 262.14 156.803 262.14ZM158.203 265.5V283H155.403V265.5H158.203ZM164.7 283V265.5H167.15L167.325 268.23C167.932 267.133 168.76 266.352 169.81 265.885C170.86 265.395 171.992 265.15 173.205 265.15C174.465 265.15 175.609 265.395 176.635 265.885C177.662 266.352 178.479 267.075 179.085 268.055C179.715 269.035 180.03 270.283 180.03 271.8V283H177.23V272.78C177.23 270.843 176.81 269.502 175.97 268.755C175.154 267.985 174.139 267.6 172.925 267.6C172.085 267.6 171.245 267.798 170.405 268.195C169.565 268.592 168.865 269.233 168.305 270.12C167.769 271.007 167.5 272.197 167.5 273.69V283H164.7ZM195.785 280.76C197.442 280.76 198.737 281.145 199.67 281.915C200.604 282.662 201.07 283.665 201.07 284.925C201.07 286.068 200.685 287.06 199.915 287.9C199.169 288.74 198.154 289.382 196.87 289.825C195.61 290.292 194.187 290.525 192.6 290.525C189.847 290.525 187.782 290.058 186.405 289.125C185.052 288.192 184.375 287.072 184.375 285.765C184.375 284.972 184.597 284.248 185.04 283.595C185.484 282.942 186.219 282.475 187.245 282.195C186.685 281.938 186.23 281.588 185.88 281.145C185.53 280.678 185.355 280.06 185.355 279.29C185.355 278.567 185.565 277.913 185.985 277.33C186.405 276.723 187.035 276.257 187.875 275.93C186.989 275.417 186.312 274.74 185.845 273.9C185.379 273.06 185.145 272.115 185.145 271.065C185.145 269.898 185.449 268.872 186.055 267.985C186.685 267.098 187.537 266.41 188.61 265.92C189.684 265.407 190.92 265.15 192.32 265.15C193.79 265.15 195.109 265.442 196.275 266.025C196.439 264.858 196.952 263.948 197.815 263.295C198.702 262.618 199.74 262.28 200.93 262.28H201.105L201.735 264.765H201.49C200.417 264.765 199.577 264.963 198.97 265.36C198.364 265.757 198.025 266.375 197.955 267.215C198.982 268.288 199.495 269.572 199.495 271.065C199.495 272.208 199.192 273.235 198.585 274.145C197.979 275.032 197.127 275.732 196.03 276.245C194.957 276.735 193.72 276.98 192.32 276.98C191.457 276.98 190.652 276.898 189.905 276.735C189.205 276.945 188.704 277.237 188.4 277.61C188.097 277.983 187.945 278.392 187.945 278.835C187.945 280.118 188.855 280.76 190.675 280.76H195.785ZM192.32 267.425C191.107 267.425 190.092 267.763 189.275 268.44C188.459 269.093 188.05 269.968 188.05 271.065C188.05 272.138 188.459 273.013 189.275 273.69C190.092 274.367 191.107 274.705 192.32 274.705C193.534 274.705 194.549 274.367 195.365 273.69C196.182 273.013 196.59 272.138 196.59 271.065C196.59 269.968 196.182 269.093 195.365 268.44C194.549 267.763 193.534 267.425 192.32 267.425ZM192.565 288.18C194.595 288.18 196.089 287.877 197.045 287.27C198.002 286.687 198.48 286.01 198.48 285.24C198.48 284.61 198.224 284.108 197.71 283.735C197.22 283.362 196.322 283.175 195.015 283.175H189.625C188.879 283.175 188.249 283.362 187.735 283.735C187.222 284.132 186.965 284.668 186.965 285.345C186.965 286.208 187.455 286.897 188.435 287.41C189.439 287.923 190.815 288.18 192.565 288.18ZM225.502 283.35C224.172 283.35 222.982 283.035 221.932 282.405C220.882 281.775 220.089 280.947 219.552 279.92L219.377 283H216.927V257.45H219.727V268.23C220.287 267.32 221.069 266.585 222.072 266.025C223.099 265.442 224.254 265.15 225.537 265.15C226.984 265.15 228.314 265.512 229.527 266.235C230.74 266.958 231.709 267.997 232.432 269.35C233.155 270.703 233.517 272.337 233.517 274.25C233.517 276.14 233.144 277.773 232.397 279.15C231.674 280.503 230.705 281.542 229.492 282.265C228.279 282.988 226.949 283.35 225.502 283.35ZM225.222 280.9C226.949 280.9 228.29 280.293 229.247 279.08C230.227 277.867 230.717 276.257 230.717 274.25C230.717 272.243 230.239 270.633 229.282 269.42C228.325 268.207 226.984 267.6 225.257 267.6C223.624 267.6 222.294 268.218 221.267 269.455C220.24 270.692 219.727 272.313 219.727 274.32C219.727 276.327 220.229 277.925 221.232 279.115C222.259 280.305 223.589 280.9 225.222 280.9ZM252.743 265.5L244.518 285.94C243.841 287.643 243.071 288.833 242.208 289.51C241.368 290.187 240.329 290.525 239.093 290.525C238.299 290.525 237.564 290.408 236.888 290.175C236.234 289.965 235.651 289.673 235.138 289.3L235.908 286.85C236.374 287.27 236.864 287.573 237.378 287.76C237.914 287.97 238.439 288.075 238.953 288.075C239.559 288.075 240.131 287.888 240.668 287.515C241.204 287.142 241.694 286.383 242.138 285.24L243.048 282.965L241.298 278.8L235.733 265.5H238.918L243.293 276.91L244.378 280.025L245.638 276.56L249.733 265.5H252.743ZM273.779 283.35C272.659 283.35 271.598 283.14 270.594 282.72C269.614 282.3 268.809 281.623 268.179 280.69C267.573 279.733 267.269 278.497 267.269 276.98V265.5H270.069V276.245C270.069 278.018 270.454 279.243 271.224 279.92C271.994 280.573 273.079 280.9 274.479 280.9C275.366 280.9 276.206 280.702 276.999 280.305C277.793 279.885 278.446 279.243 278.959 278.38C279.473 277.517 279.729 276.397 279.729 275.02V265.5H282.529V283H280.079L279.904 280.34C279.298 281.39 278.469 282.16 277.419 282.65C276.393 283.117 275.179 283.35 273.779 283.35ZM295.346 283.35C293.643 283.35 292.068 282.988 290.621 282.265C289.198 281.542 288.101 280.515 287.331 279.185L289.711 277.47C290.224 278.543 290.971 279.383 291.951 279.99C292.954 280.597 294.156 280.9 295.556 280.9C296.793 280.9 297.761 280.667 298.461 280.2C299.161 279.71 299.511 279.08 299.511 278.31C299.511 277.82 299.348 277.377 299.021 276.98C298.718 276.56 298.123 276.257 297.236 276.07L293.036 275.195C291.333 274.845 290.108 274.262 289.361 273.445C288.638 272.628 288.276 271.613 288.276 270.4C288.276 269.443 288.544 268.568 289.081 267.775C289.641 266.982 290.423 266.352 291.426 265.885C292.453 265.395 293.654 265.15 295.031 265.15C296.758 265.15 298.216 265.488 299.406 266.165C300.596 266.842 301.483 267.798 302.066 269.035L299.721 270.575C299.324 269.548 298.683 268.802 297.796 268.335C296.909 267.845 295.988 267.6 295.031 267.6C293.771 267.6 292.791 267.857 292.091 268.37C291.391 268.883 291.041 269.525 291.041 270.295C291.041 270.808 291.216 271.287 291.566 271.73C291.916 272.15 292.569 272.453 293.526 272.64L297.901 273.55C299.534 273.877 300.678 274.413 301.331 275.16C301.984 275.907 302.311 276.817 302.311 277.89C302.311 279.547 301.669 280.877 300.386 281.88C299.103 282.86 297.423 283.35 295.346 283.35ZM308.903 262.14C308.273 262.14 307.76 261.953 307.363 261.58C306.99 261.183 306.803 260.67 306.803 260.04C306.803 259.41 306.99 258.908 307.363 258.535C307.76 258.138 308.273 257.94 308.903 257.94C309.533 257.94 310.035 258.138 310.408 258.535C310.805 258.908 311.003 259.41 311.003 260.04C311.003 260.67 310.805 261.183 310.408 261.58C310.035 261.953 309.533 262.14 308.903 262.14ZM310.303 265.5V283H307.503V265.5H310.303ZM316.8 283V265.5H319.25L319.425 268.23C320.032 267.133 320.86 266.352 321.91 265.885C322.96 265.395 324.092 265.15 325.305 265.15C326.565 265.15 327.708 265.395 328.735 265.885C329.762 266.352 330.578 267.075 331.185 268.055C331.815 269.035 332.13 270.283 332.13 271.8V283H329.33V272.78C329.33 270.843 328.91 269.502 328.07 268.755C327.253 267.985 326.238 267.6 325.025 267.6C324.185 267.6 323.345 267.798 322.505 268.195C321.665 268.592 320.965 269.233 320.405 270.12C319.868 271.007 319.6 272.197 319.6 273.69V283H316.8ZM347.885 280.76C349.542 280.76 350.837 281.145 351.77 281.915C352.703 282.662 353.17 283.665 353.17 284.925C353.17 286.068 352.785 287.06 352.015 287.9C351.268 288.74 350.253 289.382 348.97 289.825C347.71 290.292 346.287 290.525 344.7 290.525C341.947 290.525 339.882 290.058 338.505 289.125C337.152 288.192 336.475 287.072 336.475 285.765C336.475 284.972 336.697 284.248 337.14 283.595C337.583 282.942 338.318 282.475 339.345 282.195C338.785 281.938 338.33 281.588 337.98 281.145C337.63 280.678 337.455 280.06 337.455 279.29C337.455 278.567 337.665 277.913 338.085 277.33C338.505 276.723 339.135 276.257 339.975 275.93C339.088 275.417 338.412 274.74 337.945 273.9C337.478 273.06 337.245 272.115 337.245 271.065C337.245 269.898 337.548 268.872 338.155 267.985C338.785 267.098 339.637 266.41 340.71 265.92C341.783 265.407 343.02 265.15 344.42 265.15C345.89 265.15 347.208 265.442 348.375 266.025C348.538 264.858 349.052 263.948 349.915 263.295C350.802 262.618 351.84 262.28 353.03 262.28H353.205L353.835 264.765H353.59C352.517 264.765 351.677 264.963 351.07 265.36C350.463 265.757 350.125 266.375 350.055 267.215C351.082 268.288 351.595 269.572 351.595 271.065C351.595 272.208 351.292 273.235 350.685 274.145C350.078 275.032 349.227 275.732 348.13 276.245C347.057 276.735 345.82 276.98 344.42 276.98C343.557 276.98 342.752 276.898 342.005 276.735C341.305 276.945 340.803 277.237 340.5 277.61C340.197 277.983 340.045 278.392 340.045 278.835C340.045 280.118 340.955 280.76 342.775 280.76H347.885ZM344.42 267.425C343.207 267.425 342.192 267.763 341.375 268.44C340.558 269.093 340.15 269.968 340.15 271.065C340.15 272.138 340.558 273.013 341.375 273.69C342.192 274.367 343.207 274.705 344.42 274.705C345.633 274.705 346.648 274.367 347.465 273.69C348.282 273.013 348.69 272.138 348.69 271.065C348.69 269.968 348.282 269.093 347.465 268.44C346.648 267.763 345.633 267.425 344.42 267.425ZM344.665 288.18C346.695 288.18 348.188 287.877 349.145 287.27C350.102 286.687 350.58 286.01 350.58 285.24C350.58 284.61 350.323 284.108 349.81 283.735C349.32 283.362 348.422 283.175 347.115 283.175H341.725C340.978 283.175 340.348 283.362 339.835 283.735C339.322 284.132 339.065 284.668 339.065 285.345C339.065 286.208 339.555 286.897 340.535 287.41C341.538 287.923 342.915 288.18 344.665 288.18ZM38.755 306.5V308.915H32.385V319.17C32.385 320.033 32.63 320.675 33.12 321.095C33.61 321.515 34.24 321.725 35.01 321.725C35.6867 321.725 36.27 321.608 36.76 321.375C37.25 321.142 37.6933 320.827 38.09 320.43L39.07 322.775C38.5333 323.265 37.8917 323.65 37.145 323.93C36.4217 324.21 35.5817 324.35 34.625 324.35C33.7383 324.35 32.91 324.198 32.14 323.895C31.37 323.568 30.7517 323.067 30.285 322.39C29.8417 321.69 29.6083 320.78 29.585 319.66V308.915H26.085V306.5H29.585V302.3L32.385 301.53V306.5H38.755ZM42.9181 324V298.45H45.7181V309.125C46.3248 308.075 47.1298 307.317 48.1331 306.85C49.1364 306.383 50.2331 306.15 51.4231 306.15C52.6831 306.15 53.8264 306.395 54.8531 306.885C55.8798 307.352 56.6964 308.075 57.3031 309.055C57.9331 310.035 58.2481 311.283 58.2481 312.8V324H55.4481V313.78C55.4481 311.843 55.0281 310.502 54.1881 309.755C53.3714 308.985 52.3564 308.6 51.1431 308.6C50.3031 308.6 49.4631 308.798 48.6231 309.195C47.7831 309.592 47.0831 310.245 46.5231 311.155C45.9864 312.042 45.7181 313.232 45.7181 314.725V324H42.9181ZM71.903 324.35C70.2463 324.35 68.7647 323.988 67.458 323.265C66.1747 322.542 65.1713 321.503 64.448 320.15C63.7247 318.773 63.363 317.14 63.363 315.25C63.363 313.36 63.7247 311.738 64.448 310.385C65.1713 309.008 66.163 307.958 67.423 307.235C68.683 306.512 70.118 306.15 71.728 306.15C73.3613 306.15 74.7497 306.5 75.893 307.2C77.0597 307.9 77.9463 308.857 78.553 310.07C79.1597 311.26 79.463 312.602 79.463 314.095C79.463 314.492 79.4513 314.853 79.428 315.18C79.4047 315.507 79.3697 315.798 79.323 316.055H66.128C66.268 317.898 66.8397 319.333 67.843 320.36C68.8463 321.387 70.1763 321.9 71.833 321.9C73.1163 321.9 74.1547 321.655 74.948 321.165C75.7647 320.675 76.418 320.01 76.908 319.17L79.113 320.465C78.4597 321.655 77.5147 322.6 76.278 323.3C75.0647 324 73.6063 324.35 71.903 324.35ZM71.658 308.6C70.188 308.6 68.9747 309.043 68.018 309.93C67.0847 310.793 66.4897 312.007 66.233 313.57H76.663C76.593 311.983 76.103 310.758 75.193 309.895C74.283 309.032 73.1047 308.6 71.658 308.6ZM86.1882 303.14C85.5582 303.14 85.0449 302.953 84.6482 302.58C84.2749 302.183 84.0882 301.67 84.0882 301.04C84.0882 300.41 84.2749 299.908 84.6482 299.535C85.0449 299.138 85.5582 298.94 86.1882 298.94C86.8182 298.94 87.3199 299.138 87.6932 299.535C88.0899 299.908 88.2882 300.41 88.2882 301.04C88.2882 301.67 88.0899 302.183 87.6932 302.58C87.3199 302.953 86.8182 303.14 86.1882 303.14ZM87.5882 306.5V324H84.7882V306.5H87.5882ZM94.0851 324V306.5H96.3601L96.7451 309.37C97.7251 307.223 99.5917 306.15 102.345 306.15C102.648 306.15 102.975 306.173 103.325 306.22C103.698 306.267 104.013 306.36 104.27 306.5L103.78 309.055C103.523 308.962 103.243 308.892 102.94 308.845C102.637 308.798 102.205 308.775 101.645 308.775C100.922 308.775 100.187 308.985 99.4401 309.405C98.7167 309.825 98.1101 310.467 97.6201 311.33C97.1301 312.17 96.8851 313.243 96.8851 314.55V324H94.0851ZM126.796 324.35C125.139 324.35 123.657 323.988 122.351 323.265C121.067 322.542 120.064 321.503 119.341 320.15C118.617 318.773 118.256 317.14 118.256 315.25C118.256 313.36 118.617 311.738 119.341 310.385C120.064 309.008 121.056 307.958 122.316 307.235C123.576 306.512 125.011 306.15 126.621 306.15C128.254 306.15 129.642 306.5 130.786 307.2C131.952 307.9 132.839 308.857 133.446 310.07C134.052 311.26 134.356 312.602 134.356 314.095C134.356 314.492 134.344 314.853 134.321 315.18C134.297 315.507 134.262 315.798 134.216 316.055H121.021C121.161 317.898 121.732 319.333 122.736 320.36C123.739 321.387 125.069 321.9 126.726 321.9C128.009 321.9 129.047 321.655 129.841 321.165C130.657 320.675 131.311 320.01 131.801 319.17L134.006 320.465C133.352 321.655 132.407 322.6 131.171 323.3C129.957 324 128.499 324.35 126.796 324.35ZM126.551 308.6C125.081 308.6 123.867 309.043 122.911 309.93C121.977 310.793 121.382 312.007 121.126 313.57H131.556C131.486 311.983 130.996 310.758 130.086 309.895C129.176 309.032 127.997 308.6 126.551 308.6ZM149.901 312.695C149.901 311.388 149.551 310.385 148.851 309.685C148.151 308.962 147.159 308.6 145.876 308.6C144.662 308.6 143.636 308.868 142.796 309.405C141.956 309.918 141.337 310.758 140.941 311.925L138.666 310.525C139.132 309.218 139.996 308.168 141.256 307.375C142.516 306.558 144.079 306.15 145.946 306.15C147.206 306.15 148.349 306.372 149.376 306.815C150.402 307.235 151.207 307.888 151.791 308.775C152.397 309.638 152.701 310.758 152.701 312.135V320.605C152.701 321.445 153.144 321.865 154.031 321.865C154.474 321.865 154.906 321.807 155.326 321.69L155.186 323.895C154.719 324.128 154.112 324.245 153.366 324.245C152.502 324.245 151.756 324.035 151.126 323.615C150.519 323.195 150.122 322.553 149.936 321.69C149.329 322.6 148.501 323.277 147.451 323.72C146.401 324.14 145.362 324.35 144.336 324.35C143.309 324.35 142.352 324.175 141.466 323.825C140.579 323.475 139.867 322.95 139.331 322.25C138.817 321.527 138.561 320.64 138.561 319.59C138.561 318.283 138.992 317.21 139.856 316.37C140.742 315.507 141.967 314.923 143.531 314.62L149.901 313.36V312.695ZM141.431 319.45C141.431 320.173 141.711 320.768 142.271 321.235C142.854 321.678 143.671 321.9 144.721 321.9C145.631 321.9 146.471 321.748 147.241 321.445C148.034 321.118 148.676 320.64 149.166 320.01C149.656 319.357 149.901 318.528 149.901 317.525V315.67L144.826 316.72C143.682 316.953 142.831 317.28 142.271 317.7C141.711 318.12 141.431 318.703 141.431 319.45ZM165.805 324.35C164.102 324.35 162.527 323.988 161.08 323.265C159.657 322.542 158.56 321.515 157.79 320.185L160.17 318.47C160.683 319.543 161.43 320.383 162.41 320.99C163.413 321.597 164.615 321.9 166.015 321.9C167.252 321.9 168.22 321.667 168.92 321.2C169.62 320.71 169.97 320.08 169.97 319.31C169.97 318.82 169.807 318.377 169.48 317.98C169.177 317.56 168.582 317.257 167.695 317.07L163.495 316.195C161.792 315.845 160.567 315.262 159.82 314.445C159.097 313.628 158.735 312.613 158.735 311.4C158.735 310.443 159.003 309.568 159.54 308.775C160.1 307.982 160.882 307.352 161.885 306.885C162.912 306.395 164.113 306.15 165.49 306.15C167.217 306.15 168.675 306.488 169.865 307.165C171.055 307.842 171.942 308.798 172.525 310.035L170.18 311.575C169.783 310.548 169.142 309.802 168.255 309.335C167.368 308.845 166.447 308.6 165.49 308.6C164.23 308.6 163.25 308.857 162.55 309.37C161.85 309.883 161.5 310.525 161.5 311.295C161.5 311.808 161.675 312.287 162.025 312.73C162.375 313.15 163.028 313.453 163.985 313.64L168.36 314.55C169.993 314.877 171.137 315.413 171.79 316.16C172.443 316.907 172.77 317.817 172.77 318.89C172.77 320.547 172.128 321.877 170.845 322.88C169.562 323.86 167.882 324.35 165.805 324.35ZM191.287 306.5L183.062 326.94C182.386 328.643 181.616 329.833 180.752 330.51C179.912 331.187 178.874 331.525 177.637 331.525C176.844 331.525 176.109 331.408 175.432 331.175C174.779 330.965 174.196 330.673 173.682 330.3L174.452 327.85C174.919 328.27 175.409 328.573 175.922 328.76C176.459 328.97 176.984 329.075 177.497 329.075C178.104 329.075 178.676 328.888 179.212 328.515C179.749 328.142 180.239 327.383 180.682 326.24L181.592 323.965L179.842 319.8L174.277 306.5H177.462L181.837 317.91L182.922 321.025L184.182 317.56L188.277 306.5H191.287ZM227.148 306.5H230.263L224.173 324H221.373L216.438 310.07L211.783 324H208.983L202.893 306.5H206.008L210.418 320.745L215.178 306.5H217.978L222.738 320.745L227.148 306.5ZM241.229 324.35C239.573 324.35 238.091 323.988 236.784 323.265C235.501 322.542 234.498 321.503 233.774 320.15C233.051 318.773 232.689 317.14 232.689 315.25C232.689 313.36 233.051 311.738 233.774 310.385C234.498 309.008 235.489 307.958 236.749 307.235C238.009 306.512 239.444 306.15 241.054 306.15C242.688 306.15 244.076 306.5 245.219 307.2C246.386 307.9 247.273 308.857 247.879 310.07C248.486 311.26 248.789 312.602 248.789 314.095C248.789 314.492 248.778 314.853 248.754 315.18C248.731 315.507 248.696 315.798 248.649 316.055H235.454C235.594 317.898 236.166 319.333 237.169 320.36C238.173 321.387 239.503 321.9 241.159 321.9C242.443 321.9 243.481 321.655 244.274 321.165C245.091 320.675 245.744 320.01 246.234 319.17L248.439 320.465C247.786 321.655 246.841 322.6 245.604 323.3C244.391 324 242.933 324.35 241.229 324.35ZM240.984 308.6C239.514 308.6 238.301 309.043 237.344 309.93C236.411 310.793 235.816 312.007 235.559 313.57H245.989C245.919 311.983 245.429 310.758 244.519 309.895C243.609 309.032 242.431 308.6 240.984 308.6ZM262.689 324.35C261.359 324.35 260.169 324.035 259.119 323.405C258.069 322.775 257.276 321.947 256.739 320.92L256.564 324H254.114V298.45H256.914V309.23C257.474 308.32 258.256 307.585 259.259 307.025C260.286 306.442 261.441 306.15 262.724 306.15C264.171 306.15 265.501 306.512 266.714 307.235C267.928 307.958 268.896 308.997 269.619 310.35C270.343 311.703 270.704 313.337 270.704 315.25C270.704 317.14 270.331 318.773 269.584 320.15C268.861 321.503 267.893 322.542 266.679 323.265C265.466 323.988 264.136 324.35 262.689 324.35ZM262.409 321.9C264.136 321.9 265.478 321.293 266.434 320.08C267.414 318.867 267.904 317.257 267.904 315.25C267.904 313.243 267.426 311.633 266.469 310.42C265.513 309.207 264.171 308.6 262.444 308.6C260.811 308.6 259.481 309.218 258.454 310.455C257.428 311.692 256.914 313.313 256.914 315.32C256.914 317.327 257.416 318.925 258.419 320.115C259.446 321.305 260.776 321.9 262.409 321.9ZM282.358 324.35C280.654 324.35 279.079 323.988 277.633 323.265C276.209 322.542 275.113 321.515 274.343 320.185L276.723 318.47C277.236 319.543 277.983 320.383 278.963 320.99C279.966 321.597 281.168 321.9 282.568 321.9C283.804 321.9 284.773 321.667 285.473 321.2C286.173 320.71 286.523 320.08 286.523 319.31C286.523 318.82 286.359 318.377 286.033 317.98C285.729 317.56 285.134 317.257 284.248 317.07L280.048 316.195C278.344 315.845 277.119 315.262 276.373 314.445C275.649 313.628 275.288 312.613 275.288 311.4C275.288 310.443 275.556 309.568 276.093 308.775C276.653 307.982 277.434 307.352 278.438 306.885C279.464 306.395 280.666 306.15 282.043 306.15C283.769 306.15 285.228 306.488 286.418 307.165C287.608 307.842 288.494 308.798 289.078 310.035L286.733 311.575C286.336 310.548 285.694 309.802 284.808 309.335C283.921 308.845 282.999 308.6 282.043 308.6C280.783 308.6 279.803 308.857 279.103 309.37C278.403 309.883 278.053 310.525 278.053 311.295C278.053 311.808 278.228 312.287 278.578 312.73C278.928 313.15 279.581 313.453 280.538 313.64L284.913 314.55C286.546 314.877 287.689 315.413 288.343 316.16C288.996 316.907 289.323 317.817 289.323 318.89C289.323 320.547 288.681 321.877 287.398 322.88C286.114 323.86 284.434 324.35 282.358 324.35ZM295.915 303.14C295.285 303.14 294.771 302.953 294.375 302.58C294.001 302.183 293.815 301.67 293.815 301.04C293.815 300.41 294.001 299.908 294.375 299.535C294.771 299.138 295.285 298.94 295.915 298.94C296.545 298.94 297.046 299.138 297.42 299.535C297.816 299.908 298.015 300.41 298.015 301.04C298.015 301.67 297.816 302.183 297.42 302.58C297.046 302.953 296.545 303.14 295.915 303.14ZM297.315 306.5V324H294.515V306.5H297.315ZM314.312 306.5V308.915H307.942V319.17C307.942 320.033 308.187 320.675 308.677 321.095C309.167 321.515 309.797 321.725 310.567 321.725C311.243 321.725 311.827 321.608 312.317 321.375C312.807 321.142 313.25 320.827 313.647 320.43L314.627 322.775C314.09 323.265 313.448 323.65 312.702 323.93C311.978 324.21 311.138 324.35 310.182 324.35C309.295 324.35 308.467 324.198 307.697 323.895C306.927 323.568 306.308 323.067 305.842 322.39C305.398 321.69 305.165 320.78 305.142 319.66V308.915H301.642V306.5H305.142V302.3L307.942 301.53V306.5H314.312ZM325.79 324.35C324.133 324.35 322.651 323.988 321.345 323.265C320.061 322.542 319.058 321.503 318.335 320.15C317.611 318.773 317.25 317.14 317.25 315.25C317.25 313.36 317.611 311.738 318.335 310.385C319.058 309.008 320.05 307.958 321.31 307.235C322.57 306.512 324.005 306.15 325.615 306.15C327.248 306.15 328.636 306.5 329.78 307.2C330.946 307.9 331.833 308.857 332.44 310.07C333.046 311.26 333.35 312.602 333.35 314.095C333.35 314.492 333.338 314.853 333.315 315.18C333.291 315.507 333.256 315.798 333.21 316.055H320.015C320.155 317.898 320.726 319.333 321.73 320.36C322.733 321.387 324.063 321.9 325.72 321.9C327.003 321.9 328.041 321.655 328.835 321.165C329.651 320.675 330.305 320.01 330.795 319.17L333 320.465C332.346 321.655 331.401 322.6 330.165 323.3C328.951 324 327.493 324.35 325.79 324.35ZM325.545 308.6C324.075 308.6 322.861 309.043 321.905 309.93C320.971 310.793 320.376 312.007 320.12 313.57H330.55C330.48 311.983 329.99 310.758 329.08 309.895C328.17 309.032 326.991 308.6 325.545 308.6ZM344.975 324.35C343.272 324.35 341.697 323.988 340.25 323.265C338.827 322.542 337.73 321.515 336.96 320.185L339.34 318.47C339.853 319.543 340.6 320.383 341.58 320.99C342.583 321.597 343.785 321.9 345.185 321.9C346.422 321.9 347.39 321.667 348.09 321.2C348.79 320.71 349.14 320.08 349.14 319.31C349.14 318.82 348.977 318.377 348.65 317.98C348.347 317.56 347.752 317.257 346.865 317.07L342.665 316.195C340.962 315.845 339.737 315.262 338.99 314.445C338.267 313.628 337.905 312.613 337.905 311.4C337.905 310.443 338.173 309.568 338.71 308.775C339.27 307.982 340.052 307.352 341.055 306.885C342.082 306.395 343.283 306.15 344.66 306.15C346.387 306.15 347.845 306.488 349.035 307.165C350.225 307.842 351.112 308.798 351.695 310.035L349.35 311.575C348.953 310.548 348.312 309.802 347.425 309.335C346.538 308.845 345.617 308.6 344.66 308.6C343.4 308.6 342.42 308.857 341.72 309.37C341.02 309.883 340.67 310.525 340.67 311.295C340.67 311.808 340.845 312.287 341.195 312.73C341.545 313.15 342.198 313.453 343.155 313.64L347.53 314.55C349.163 314.877 350.307 315.413 350.96 316.16C351.613 316.907 351.94 317.817 351.94 318.89C351.94 320.547 351.298 321.877 350.015 322.88C348.732 323.86 347.052 324.35 344.975 324.35ZM358.532 319.8C359.209 319.8 359.757 320.01 360.177 320.43C360.597 320.85 360.807 321.398 360.807 322.075C360.807 322.752 360.597 323.3 360.177 323.72C359.757 324.14 359.209 324.35 358.532 324.35C357.855 324.35 357.307 324.14 356.887 323.72C356.467 323.3 356.257 322.752 356.257 322.075C356.257 321.398 356.467 320.85 356.887 320.43C357.307 320.01 357.855 319.8 358.532 319.8Z" fill="#2F2E41"/>
<path d="M40.3657 125.26C34.4657 125.26 29.83 122.984 26.4586 118.433C23.0871 113.881 21.4014 107.981 21.4014 100.733C21.4014 92.3043 23.5929 84.2128 27.9757 76.4586C32.3586 68.7043 39.3543 62.5514 48.9629 58L59.5829 67.8614C52.6714 70.2214 47.1086 73.8457 42.8943 78.7343C38.68 83.4543 35.9829 88.4271 34.8029 93.6529L35.8143 94.1586C36.4886 93.6529 37.3314 93.2314 38.3429 92.8943C39.3543 92.5571 40.8714 92.3886 42.8943 92.3886C45.9286 92.3886 48.9629 93.7371 51.9971 96.4343C55.2 98.9628 56.8014 102.924 56.8014 108.319C56.8014 112.87 55.2 116.831 51.9971 120.203C48.7943 123.574 44.9171 125.26 40.3657 125.26ZM87.9029 125.26C82.0029 125.26 77.3671 122.984 73.9957 118.433C70.6243 113.881 68.9386 107.981 68.9386 100.733C68.9386 92.3043 71.13 84.2128 75.5129 76.4586C79.8957 68.7043 86.8914 62.5514 96.5 58L107.12 67.8614C100.209 70.2214 94.6457 73.8457 90.4314 78.7343C86.2171 83.4543 83.52 88.4271 82.34 93.6529L83.3514 94.1586C84.0257 93.6529 84.8686 93.2314 85.88 92.8943C86.8914 92.5571 88.4086 92.3886 90.4314 92.3886C93.4657 92.3886 96.5 93.7371 99.5343 96.4343C102.737 98.9628 104.339 102.924 104.339 108.319C104.339 112.87 102.737 116.831 99.5343 120.203C96.3314 123.574 92.4543 125.26 87.9029 125.26Z" fill="#498352"/>
<path d="M105.739 439.063L94.9078 437.489L90.066 427.673C89.9337 427.404 89.7162 427.187 89.4474 427.054C88.7734 426.722 87.9543 426.999 87.6173 427.673L82.7754 437.489L71.9442 439.063C71.6456 439.106 71.3725 439.246 71.1635 439.46C70.9108 439.72 70.7715 440.069 70.7763 440.431C70.7811 440.794 70.9296 441.139 71.1891 441.392L79.0257 449.033L77.1742 459.821C77.1308 460.072 77.1586 460.33 77.2544 460.566C77.3502 460.802 77.5102 461.007 77.7163 461.156C77.9224 461.306 78.1663 461.395 78.4203 461.413C78.6744 461.431 78.9284 461.378 79.1536 461.259L88.8416 456.165L98.5296 461.259C98.7941 461.4 99.1013 461.447 99.3956 461.395C100.138 461.267 100.637 460.563 100.509 459.821L98.6576 449.033L106.494 441.392C106.707 441.183 106.848 440.91 106.891 440.612C107.006 439.865 106.486 439.174 105.739 439.063Z" fill="#FDA202"/>
<path d="M151.17 439.063L140.339 437.489L135.497 427.673C135.364 427.404 135.147 427.186 134.878 427.054C134.204 426.721 133.385 426.999 133.048 427.673L128.206 437.489L117.375 439.063C117.076 439.105 116.803 439.246 116.594 439.46C116.342 439.719 116.202 440.069 116.207 440.431C116.212 440.793 116.36 441.139 116.62 441.392L124.456 449.032L122.605 459.821C122.562 460.072 122.589 460.33 122.685 460.566C122.781 460.802 122.941 461.006 123.147 461.156C123.353 461.306 123.597 461.395 123.851 461.413C124.105 461.431 124.359 461.377 124.584 461.259L134.272 456.165L143.96 461.259C144.225 461.399 144.532 461.446 144.826 461.395C145.569 461.267 146.068 460.563 145.94 459.821L144.088 449.032L151.925 441.392C152.138 441.183 152.279 440.91 152.322 440.611C152.437 439.865 151.916 439.174 151.17 439.063Z" fill="#FDA202"/>
<path d="M196.601 439.063L185.769 437.489L180.927 427.673C180.795 427.404 180.578 427.186 180.309 427.054C179.635 426.721 178.816 426.999 178.479 427.673L173.637 437.489L162.806 439.063C162.507 439.105 162.234 439.246 162.025 439.46C161.772 439.719 161.633 440.069 161.638 440.431C161.643 440.793 161.791 441.139 162.051 441.392L169.887 449.032L168.036 459.821C167.992 460.072 168.02 460.33 168.116 460.566C168.212 460.802 168.372 461.006 168.578 461.156C168.784 461.306 169.028 461.395 169.282 461.413C169.536 461.431 169.79 461.377 170.015 461.259L179.703 456.165L189.391 461.259C189.656 461.399 189.963 461.446 190.257 461.395C190.999 461.267 191.498 460.563 191.37 459.821L189.519 449.032L197.356 441.392C197.569 441.183 197.71 440.91 197.752 440.611C197.868 439.865 197.347 439.174 196.601 439.063Z" fill="#FDA202"/>
<path d="M242.031 439.063L231.2 437.489L226.358 427.673C226.226 427.404 226.008 427.186 225.74 427.054C225.066 426.721 224.247 426.999 223.909 427.673L219.068 437.489L208.236 439.063C207.938 439.105 207.665 439.246 207.456 439.46C207.203 439.719 207.064 440.069 207.069 440.431C207.073 440.793 207.222 441.139 207.481 441.392L215.318 449.032L213.466 459.821C213.423 460.072 213.451 460.33 213.547 460.566C213.642 460.802 213.802 461.006 214.009 461.156C214.215 461.306 214.458 461.395 214.713 461.413C214.967 461.431 215.221 461.377 215.446 461.259L225.134 456.165L234.822 461.259C235.086 461.399 235.393 461.446 235.688 461.395C236.43 461.267 236.929 460.563 236.801 459.821L234.95 449.032L242.786 441.392C243 441.183 243.14 440.91 243.183 440.611C243.298 439.865 242.778 439.174 242.031 439.063Z" fill="#FDA202"/>
<path d="M287.462 439.063L276.631 437.489L271.789 427.673C271.657 427.404 271.439 427.186 271.17 427.054C270.496 426.721 269.677 426.999 269.34 427.673L264.498 437.489L253.667 439.063C253.368 439.105 253.095 439.246 252.886 439.46C252.634 439.719 252.494 440.069 252.499 440.431C252.504 440.793 252.653 441.139 252.912 441.392L260.749 449.032L258.897 459.821C258.854 460.072 258.882 460.33 258.977 460.566C259.073 460.802 259.233 461.006 259.439 461.156C259.645 461.306 259.889 461.395 260.143 461.413C260.397 461.431 260.651 461.377 260.877 461.259L270.565 456.165L280.253 461.259C280.517 461.399 280.824 461.446 281.119 461.395C281.861 461.267 282.36 460.563 282.232 459.821L280.381 449.032L288.217 441.392C288.43 441.183 288.571 440.91 288.614 440.611C288.729 439.865 288.209 439.174 287.462 439.063Z" fill="#FDA202"/>
</svg>
