<svg width="402" height="575" viewBox="0 0 402 575" fill="none" xmlns="http://www.w3.org/2000/svg">
<rect y="81" width="402" height="494" rx="10" fill="#CFE4D2"/>
<path d="M68.41 498.89V503.06H57.43V498.89H68.41ZM80.1058 488.9C81.9458 488.9 83.5658 489.19 84.9658 489.77C86.3858 490.33 87.6158 491.16 88.6558 492.26L86.1658 495.59C85.3058 494.69 84.3758 494.02 83.3758 493.58C82.3958 493.12 81.2758 492.89 80.0158 492.89C78.9158 492.89 78.1258 493.07 77.6458 493.43C77.1658 493.79 76.9258 494.23 76.9258 494.75C76.9258 495.17 77.1158 495.53 77.4958 495.83C77.8958 496.11 78.5358 496.35 79.4158 496.55L82.7458 497.3C84.7258 497.76 86.1758 498.43 87.0958 499.31C88.0158 500.19 88.4758 501.36 88.4758 502.82C88.4758 504.22 88.1158 505.41 87.3958 506.39C86.6758 507.35 85.6858 508.08 84.4258 508.58C83.1658 509.06 81.7258 509.3 80.1058 509.3C78.1058 509.3 76.2758 508.98 74.6158 508.34C72.9558 507.68 71.6358 506.82 70.6558 505.76L73.1458 502.31C73.8858 503.17 74.8858 503.89 76.1458 504.47C77.4058 505.03 78.7058 505.31 80.0458 505.31C82.1258 505.31 83.1658 504.7 83.1658 503.48C83.1658 503.06 83.0058 502.71 82.6858 502.43C82.3858 502.13 81.8258 501.88 81.0058 501.68L77.3458 500.87C76.2258 500.63 75.2258 500.29 74.3458 499.85C73.4858 499.41 72.8058 498.83 72.3058 498.11C71.8058 497.37 71.5558 496.45 71.5558 495.35C71.5558 494.11 71.8958 493.01 72.5758 492.05C73.2558 491.07 74.2358 490.3 75.5158 489.74C76.7958 489.18 78.3258 488.9 80.1058 488.9ZM98.4817 493.7C100.062 493.7 101.442 494.01 102.622 494.63C103.822 495.25 104.752 496.14 105.412 497.3C106.092 498.46 106.432 499.86 106.432 501.5C106.432 503.14 106.092 504.54 105.412 505.7C104.752 506.86 103.822 507.75 102.622 508.37C101.442 508.99 100.062 509.3 98.4817 509.3C96.9217 509.3 95.5417 508.99 94.3417 508.37C93.1617 507.75 92.2317 506.86 91.5517 505.7C90.8917 504.54 90.5617 503.14 90.5617 501.5C90.5617 499.86 90.8917 498.46 91.5517 497.3C92.2317 496.14 93.1617 495.25 94.3417 494.63C95.5417 494.01 96.9217 493.7 98.4817 493.7ZM98.4817 497.33C97.6017 497.33 96.9117 497.66 96.4117 498.32C95.9317 498.96 95.6917 500.02 95.6917 501.5C95.6917 502.96 95.9317 504.02 96.4117 504.68C96.9117 505.34 97.6017 505.67 98.4817 505.67C99.3817 505.67 100.072 505.34 100.552 504.68C101.052 504.02 101.302 502.96 101.302 501.5C101.302 500.02 101.052 498.96 100.552 498.32C100.072 497.66 99.3817 497.33 98.4817 497.33ZM109.301 515.3V494H113.891L114.041 497.03C114.461 496.03 115.091 495.23 115.931 494.63C116.791 494.01 117.801 493.7 118.961 493.7C120.801 493.7 122.281 494.38 123.401 495.74C124.541 497.1 125.111 499 125.111 501.44C125.111 503.92 124.531 505.85 123.371 507.23C122.231 508.61 120.741 509.3 118.901 509.3C117.821 509.3 116.901 509.04 116.141 508.52C115.381 507.98 114.801 507.28 114.401 506.42V515.3H109.301ZM117.161 505.55C118.041 505.55 118.731 505.23 119.231 504.59C119.731 503.93 119.981 502.9 119.981 501.5C119.981 500.1 119.731 499.08 119.231 498.44C118.751 497.78 118.071 497.45 117.191 497.45C116.331 497.45 115.651 497.8 115.151 498.5C114.651 499.18 114.401 500.18 114.401 501.5C114.401 502.76 114.641 503.75 115.121 504.47C115.601 505.19 116.281 505.55 117.161 505.55ZM128.109 509V487.64H133.209V496.73C133.649 495.73 134.279 494.98 135.099 494.48C135.919 493.96 136.869 493.7 137.949 493.7C139.489 493.7 140.739 494.15 141.699 495.05C142.659 495.95 143.139 497.27 143.139 499.01V509H138.039V500.42C138.039 499.34 137.839 498.6 137.439 498.2C137.059 497.78 136.549 497.57 135.909 497.57C135.189 497.57 134.559 497.85 134.019 498.41C133.479 498.95 133.209 499.85 133.209 501.11V509H128.109ZM149.263 492.26C148.223 492.26 147.463 492.07 146.983 491.69C146.523 491.29 146.293 490.67 146.293 489.83C146.293 488.97 146.523 488.35 146.983 487.97C147.463 487.57 148.223 487.37 149.263 487.37C150.283 487.37 151.033 487.57 151.513 487.97C151.993 488.35 152.233 488.97 152.233 489.83C152.233 490.67 151.993 491.29 151.513 491.69C151.033 492.07 150.283 492.26 149.263 492.26ZM151.813 494V509H146.713V494H151.813ZM163.813 499.49C163.813 498.79 163.613 498.24 163.213 497.84C162.833 497.42 162.313 497.21 161.653 497.21C160.993 497.21 160.423 497.38 159.943 497.72C159.483 498.04 159.163 498.62 158.983 499.46L154.663 498.44C154.943 497 155.683 495.85 156.883 494.99C158.083 494.13 159.773 493.7 161.953 493.7C164.153 493.7 165.853 494.19 167.053 495.17C168.273 496.13 168.883 497.54 168.883 499.4V504.89C168.883 505.67 169.233 506.06 169.933 506.06C170.293 506.06 170.583 506.02 170.803 505.94L170.503 508.85C169.903 509.13 169.173 509.27 168.313 509.27C167.373 509.27 166.563 509.09 165.883 508.73C165.203 508.35 164.743 507.78 164.503 507.02C164.083 507.8 163.413 508.38 162.493 508.76C161.593 509.12 160.633 509.3 159.613 509.3C158.073 509.3 156.843 508.95 155.923 508.25C155.023 507.53 154.573 506.5 154.573 505.16C154.573 504.08 154.893 503.19 155.533 502.49C156.193 501.77 157.223 501.27 158.623 500.99L163.813 499.91V499.49ZM159.613 504.68C159.613 505.12 159.773 505.45 160.093 505.67C160.413 505.89 160.793 506 161.233 506C161.913 506 162.513 505.8 163.033 505.4C163.553 504.98 163.813 504.33 163.813 503.45V502.61L161.383 503.12C160.783 503.24 160.333 503.42 160.033 503.66C159.753 503.88 159.613 504.22 159.613 504.68ZM191.282 494V497.63H187.022V509H181.922V497.63H179.522V494H181.922V492.62C181.922 491.34 182.192 490.31 182.732 489.53C183.292 488.73 184.022 488.15 184.922 487.79C185.842 487.41 186.832 487.22 187.892 487.22C188.712 487.22 189.432 487.31 190.052 487.49C190.672 487.65 191.132 487.84 191.432 488.06L190.922 491.24C190.702 491.12 190.452 491.02 190.172 490.94C189.892 490.84 189.542 490.79 189.122 490.79C188.402 490.79 187.822 490.95 187.382 491.27C186.942 491.59 186.722 492.15 186.722 492.95V494H191.282ZM193.353 509V494H197.853L198.063 497.24C198.423 496.14 198.973 495.28 199.713 494.66C200.473 494.02 201.443 493.7 202.623 493.7C203.003 493.7 203.323 493.74 203.583 493.82C203.863 493.88 204.083 493.95 204.243 494.03L203.733 498.23C203.533 498.17 203.273 498.11 202.953 498.05C202.653 497.99 202.283 497.96 201.843 497.96C200.923 497.96 200.123 498.25 199.443 498.83C198.783 499.41 198.453 500.28 198.453 501.44V509H193.353ZM213.208 493.7C214.788 493.7 216.168 494.01 217.348 494.63C218.548 495.25 219.478 496.14 220.138 497.3C220.818 498.46 221.158 499.86 221.158 501.5C221.158 503.14 220.818 504.54 220.138 505.7C219.478 506.86 218.548 507.75 217.348 508.37C216.168 508.99 214.788 509.3 213.208 509.3C211.648 509.3 210.268 508.99 209.068 508.37C207.888 507.75 206.958 506.86 206.278 505.7C205.618 504.54 205.288 503.14 205.288 501.5C205.288 499.86 205.618 498.46 206.278 497.3C206.958 496.14 207.888 495.25 209.068 494.63C210.268 494.01 211.648 493.7 213.208 493.7ZM213.208 497.33C212.328 497.33 211.638 497.66 211.138 498.32C210.658 498.96 210.418 500.02 210.418 501.5C210.418 502.96 210.658 504.02 211.138 504.68C211.638 505.34 212.328 505.67 213.208 505.67C214.108 505.67 214.798 505.34 215.278 504.68C215.778 504.02 216.028 502.96 216.028 501.5C216.028 500.02 215.778 498.96 215.278 498.32C214.798 497.66 214.108 497.33 213.208 497.33ZM224.027 509V494H228.587L228.737 496.91C229.217 495.85 229.887 495.05 230.747 494.51C231.627 493.97 232.637 493.7 233.777 493.7C234.877 493.7 235.837 493.95 236.657 494.45C237.497 494.95 238.117 495.69 238.517 496.67C238.977 495.69 239.657 494.95 240.557 494.45C241.477 493.95 242.477 493.7 243.557 493.7C245.037 493.7 246.257 494.15 247.217 495.05C248.197 495.93 248.687 497.25 248.687 499.01V509H243.587V500.18C243.587 499.22 243.397 498.55 243.017 498.17C242.637 497.79 242.147 497.6 241.547 497.6C240.787 497.6 240.157 497.89 239.657 498.47C239.157 499.03 238.907 499.87 238.907 500.99V509H233.807V500.18C233.807 499.22 233.617 498.55 233.237 498.17C232.857 497.79 232.367 497.6 231.767 497.6C231.067 497.6 230.447 497.87 229.907 498.41C229.387 498.95 229.127 499.84 229.127 501.08V509H224.027ZM266.373 489.2V509H261.213V489.2H266.373ZM270.346 509V494H274.906L275.056 497.03C275.516 495.93 276.186 495.1 277.066 494.54C277.946 493.98 278.986 493.7 280.186 493.7C281.726 493.7 282.976 494.15 283.936 495.05C284.896 495.95 285.376 497.27 285.376 499.01V509H280.276V500.36C280.276 499.32 280.076 498.6 279.676 498.2C279.276 497.8 278.766 497.6 278.146 497.6C277.406 497.6 276.766 497.86 276.226 498.38C275.706 498.9 275.446 499.79 275.446 501.05V509H270.346ZM294.469 509.3C292.609 509.3 291.109 508.62 289.969 507.26C288.849 505.9 288.289 504 288.289 501.56C288.289 499.88 288.549 498.46 289.069 497.3C289.609 496.12 290.349 495.23 291.289 494.63C292.249 494.01 293.349 493.7 294.589 493.7C295.649 493.7 296.549 493.96 297.289 494.48C298.049 495 298.619 495.69 298.999 496.55V487.64H304.099V509H299.539L299.359 506.06C298.939 507.06 298.299 507.85 297.439 508.43C296.599 509.01 295.609 509.3 294.469 509.3ZM296.239 505.55C297.079 505.55 297.749 505.2 298.249 504.5C298.749 503.8 298.999 502.77 298.999 501.41C298.999 500.15 298.759 499.18 298.279 498.5C297.799 497.8 297.129 497.45 296.269 497.45C295.389 497.45 294.689 497.78 294.169 498.44C293.669 499.08 293.419 500.1 293.419 501.5C293.419 502.9 293.669 503.93 294.169 504.59C294.669 505.23 295.359 505.55 296.239 505.55ZM310.308 492.26C309.268 492.26 308.508 492.07 308.028 491.69C307.568 491.29 307.338 490.67 307.338 489.83C307.338 488.97 307.568 488.35 308.028 487.97C308.508 487.57 309.268 487.37 310.308 487.37C311.328 487.37 312.078 487.57 312.558 487.97C313.038 488.35 313.278 488.97 313.278 489.83C313.278 490.67 313.038 491.29 312.558 491.69C312.078 492.07 311.328 492.26 310.308 492.26ZM312.858 494V509H307.758V494H312.858ZM324.858 499.49C324.858 498.79 324.658 498.24 324.258 497.84C323.878 497.42 323.358 497.21 322.698 497.21C322.038 497.21 321.468 497.38 320.988 497.72C320.528 498.04 320.208 498.62 320.028 499.46L315.708 498.44C315.988 497 316.728 495.85 317.928 494.99C319.128 494.13 320.818 493.7 322.998 493.7C325.198 493.7 326.898 494.19 328.098 495.17C329.318 496.13 329.928 497.54 329.928 499.4V504.89C329.928 505.67 330.278 506.06 330.978 506.06C331.338 506.06 331.628 506.02 331.848 505.94L331.548 508.85C330.948 509.13 330.218 509.27 329.358 509.27C328.418 509.27 327.608 509.09 326.928 508.73C326.248 508.35 325.788 507.78 325.548 507.02C325.128 507.8 324.458 508.38 323.538 508.76C322.638 509.12 321.678 509.3 320.658 509.3C319.118 509.3 317.888 508.95 316.968 508.25C316.068 507.53 315.618 506.5 315.618 505.16C315.618 504.08 315.938 503.19 316.578 502.49C317.238 501.77 318.268 501.27 319.668 500.99L324.858 499.91V499.49ZM320.658 504.68C320.658 505.12 320.818 505.45 321.138 505.67C321.458 505.89 321.838 506 322.278 506C322.958 506 323.558 505.8 324.078 505.4C324.598 504.98 324.858 504.33 324.858 503.45V502.61L322.428 503.12C321.828 503.24 321.378 503.42 321.078 503.66C320.798 503.88 320.658 504.22 320.658 504.68Z" fill="black"/>
<path d="M42.58 163.9V187H39.78V163.9H42.58ZM60.1114 169.5V171.915H53.7414V182.17C53.7414 183.033 53.9864 183.675 54.4764 184.095C54.9664 184.515 55.5964 184.725 56.3664 184.725C57.0431 184.725 57.6264 184.608 58.1164 184.375C58.6064 184.142 59.0498 183.827 59.4464 183.43L60.4264 185.775C59.8898 186.265 59.2481 186.65 58.5014 186.93C57.7781 187.21 56.9381 187.35 55.9814 187.35C55.0948 187.35 54.2664 187.198 53.4964 186.895C52.7264 186.568 52.1081 186.067 51.6414 185.39C51.1981 184.69 50.9648 183.78 50.9414 182.66V171.915H47.4414V169.5H50.9414V165.3L53.7414 164.53V169.5H60.1114ZM70.5745 187.35C68.8712 187.35 67.2962 186.988 65.8495 186.265C64.4262 185.542 63.3295 184.515 62.5595 183.185L64.9395 181.47C65.4529 182.543 66.1995 183.383 67.1795 183.99C68.1829 184.597 69.3845 184.9 70.7845 184.9C72.0212 184.9 72.9895 184.667 73.6895 184.2C74.3895 183.71 74.7395 183.08 74.7395 182.31C74.7395 181.82 74.5762 181.377 74.2495 180.98C73.9462 180.56 73.3512 180.257 72.4645 180.07L68.2645 179.195C66.5612 178.845 65.3362 178.262 64.5895 177.445C63.8662 176.628 63.5045 175.613 63.5045 174.4C63.5045 173.443 63.7729 172.568 64.3095 171.775C64.8695 170.982 65.6512 170.352 66.6545 169.885C67.6812 169.395 68.8829 169.15 70.2595 169.15C71.9862 169.15 73.4445 169.488 74.6345 170.165C75.8245 170.842 76.7112 171.798 77.2945 173.035L74.9495 174.575C74.5529 173.548 73.9112 172.802 73.0245 172.335C72.1379 171.845 71.2162 171.6 70.2595 171.6C68.9995 171.6 68.0195 171.857 67.3195 172.37C66.6195 172.883 66.2695 173.525 66.2695 174.295C66.2695 174.808 66.4445 175.287 66.7945 175.73C67.1445 176.15 67.7979 176.453 68.7545 176.64L73.1295 177.55C74.7629 177.877 75.9062 178.413 76.5595 179.16C77.2129 179.907 77.5395 180.817 77.5395 181.89C77.5395 183.547 76.8979 184.877 75.6145 185.88C74.3312 186.86 72.6512 187.35 70.5745 187.35ZM101.975 187.35C100.319 187.35 98.8369 186.988 97.5303 186.265C96.2469 185.542 95.2436 184.503 94.5203 183.15C93.7969 181.773 93.4353 180.14 93.4353 178.25C93.4353 176.36 93.7969 174.738 94.5203 173.385C95.2436 172.008 96.2353 170.958 97.4953 170.235C98.7553 169.512 100.19 169.15 101.8 169.15C103.434 169.15 104.822 169.5 105.965 170.2C107.132 170.9 108.019 171.857 108.625 173.07C109.232 174.26 109.535 175.602 109.535 177.095C109.535 177.492 109.524 177.853 109.5 178.18C109.477 178.507 109.442 178.798 109.395 179.055H96.2003C96.3403 180.898 96.9119 182.333 97.9153 183.36C98.9186 184.387 100.249 184.9 101.905 184.9C103.189 184.9 104.227 184.655 105.02 184.165C105.837 183.675 106.49 183.01 106.98 182.17L109.185 183.465C108.532 184.655 107.587 185.6 106.35 186.3C105.137 187 103.679 187.35 101.975 187.35ZM101.73 171.6C100.26 171.6 99.0469 172.043 98.0903 172.93C97.1569 173.793 96.5619 175.007 96.3053 176.57H106.735C106.665 174.983 106.175 173.758 105.265 172.895C104.355 172.032 103.177 171.6 101.73 171.6ZM125.08 175.695C125.08 174.388 124.73 173.385 124.03 172.685C123.33 171.962 122.339 171.6 121.055 171.6C119.842 171.6 118.815 171.868 117.975 172.405C117.135 172.918 116.517 173.758 116.12 174.925L113.845 173.525C114.312 172.218 115.175 171.168 116.435 170.375C117.695 169.558 119.259 169.15 121.125 169.15C122.385 169.15 123.529 169.372 124.555 169.815C125.582 170.235 126.387 170.888 126.97 171.775C127.577 172.638 127.88 173.758 127.88 175.135V183.605C127.88 184.445 128.324 184.865 129.21 184.865C129.654 184.865 130.085 184.807 130.505 184.69L130.365 186.895C129.899 187.128 129.292 187.245 128.545 187.245C127.682 187.245 126.935 187.035 126.305 186.615C125.699 186.195 125.302 185.553 125.115 184.69C124.509 185.6 123.68 186.277 122.63 186.72C121.58 187.14 120.542 187.35 119.515 187.35C118.489 187.35 117.532 187.175 116.645 186.825C115.759 186.475 115.047 185.95 114.51 185.25C113.997 184.527 113.74 183.64 113.74 182.59C113.74 181.283 114.172 180.21 115.035 179.37C115.922 178.507 117.147 177.923 118.71 177.62L125.08 176.36V175.695ZM116.61 182.45C116.61 183.173 116.89 183.768 117.45 184.235C118.034 184.678 118.85 184.9 119.9 184.9C120.81 184.9 121.65 184.748 122.42 184.445C123.214 184.118 123.855 183.64 124.345 183.01C124.835 182.357 125.08 181.528 125.08 180.525V178.67L120.005 179.72C118.862 179.953 118.01 180.28 117.45 180.7C116.89 181.12 116.61 181.703 116.61 182.45ZM140.985 187.35C139.281 187.35 137.706 186.988 136.26 186.265C134.836 185.542 133.74 184.515 132.97 183.185L135.35 181.47C135.863 182.543 136.61 183.383 137.59 183.99C138.593 184.597 139.795 184.9 141.195 184.9C142.431 184.9 143.4 184.667 144.1 184.2C144.8 183.71 145.15 183.08 145.15 182.31C145.15 181.82 144.986 181.377 144.66 180.98C144.356 180.56 143.761 180.257 142.875 180.07L138.675 179.195C136.971 178.845 135.746 178.262 135 177.445C134.276 176.628 133.915 175.613 133.915 174.4C133.915 173.443 134.183 172.568 134.72 171.775C135.28 170.982 136.061 170.352 137.065 169.885C138.091 169.395 139.293 169.15 140.67 169.15C142.396 169.15 143.855 169.488 145.045 170.165C146.235 170.842 147.121 171.798 147.705 173.035L145.36 174.575C144.963 173.548 144.321 172.802 143.435 172.335C142.548 171.845 141.626 171.6 140.67 171.6C139.41 171.6 138.43 171.857 137.73 172.37C137.03 172.883 136.68 173.525 136.68 174.295C136.68 174.808 136.855 175.287 137.205 175.73C137.555 176.15 138.208 176.453 139.165 176.64L143.54 177.55C145.173 177.877 146.316 178.413 146.97 179.16C147.623 179.907 147.95 180.817 147.95 181.89C147.95 183.547 147.308 184.877 146.025 185.88C144.741 186.86 143.061 187.35 140.985 187.35ZM166.467 169.5L158.242 189.94C157.565 191.643 156.795 192.833 155.932 193.51C155.092 194.187 154.054 194.525 152.817 194.525C152.024 194.525 151.289 194.408 150.612 194.175C149.959 193.965 149.375 193.673 148.862 193.3L149.632 190.85C150.099 191.27 150.589 191.573 151.102 191.76C151.639 191.97 152.164 192.075 152.677 192.075C153.284 192.075 153.855 191.888 154.392 191.515C154.929 191.142 155.419 190.383 155.862 189.24L156.772 186.965L155.022 182.8L149.457 169.5H152.642L157.017 180.91L158.102 184.025L159.362 180.56L163.457 169.5H166.467ZM190.985 169.5V171.915H184.615V182.17C184.615 183.033 184.86 183.675 185.35 184.095C185.84 184.515 186.47 184.725 187.24 184.725C187.917 184.725 188.5 184.608 188.99 184.375C189.48 184.142 189.924 183.827 190.32 183.43L191.3 185.775C190.764 186.265 190.122 186.65 189.375 186.93C188.652 187.21 187.812 187.35 186.855 187.35C185.969 187.35 185.14 187.198 184.37 186.895C183.6 186.568 182.982 186.067 182.515 185.39C182.072 184.69 181.839 183.78 181.815 182.66V171.915H178.315V169.5H181.815V165.3L184.615 164.53V169.5H190.985ZM202.394 169.15C204.05 169.15 205.509 169.512 206.769 170.235C208.052 170.958 209.055 172.008 209.779 173.385C210.502 174.738 210.864 176.36 210.864 178.25C210.864 180.14 210.502 181.773 209.779 183.15C209.055 184.503 208.052 185.542 206.769 186.265C205.509 186.988 204.05 187.35 202.394 187.35C200.76 187.35 199.302 186.988 198.019 186.265C196.735 185.542 195.732 184.503 195.009 183.15C194.285 181.773 193.924 180.14 193.924 178.25C193.924 176.36 194.285 174.738 195.009 173.385C195.732 172.008 196.735 170.958 198.019 170.235C199.302 169.512 200.76 169.15 202.394 169.15ZM202.394 171.565C200.62 171.565 199.232 172.16 198.229 173.35C197.225 174.54 196.724 176.173 196.724 178.25C196.724 180.327 197.225 181.96 198.229 183.15C199.232 184.34 200.62 184.935 202.394 184.935C204.167 184.935 205.555 184.34 206.559 183.15C207.562 181.96 208.064 180.327 208.064 178.25C208.064 176.173 207.562 174.54 206.559 173.35C205.555 172.16 204.167 171.565 202.394 171.565ZM234.399 187.35C233.279 187.35 232.217 187.14 231.214 186.72C230.234 186.3 229.429 185.623 228.799 184.69C228.192 183.733 227.889 182.497 227.889 180.98V169.5H230.689V180.245C230.689 182.018 231.074 183.243 231.844 183.92C232.614 184.573 233.699 184.9 235.099 184.9C235.985 184.9 236.825 184.702 237.619 184.305C238.412 183.885 239.065 183.243 239.579 182.38C240.092 181.517 240.349 180.397 240.349 179.02V169.5H243.149V187H240.699L240.524 184.34C239.917 185.39 239.089 186.16 238.039 186.65C237.012 187.117 235.799 187.35 234.399 187.35ZM255.965 187.35C254.262 187.35 252.687 186.988 251.24 186.265C249.817 185.542 248.72 184.515 247.95 183.185L250.33 181.47C250.843 182.543 251.59 183.383 252.57 183.99C253.573 184.597 254.775 184.9 256.175 184.9C257.412 184.9 258.38 184.667 259.08 184.2C259.78 183.71 260.13 183.08 260.13 182.31C260.13 181.82 259.967 181.377 259.64 180.98C259.337 180.56 258.742 180.257 257.855 180.07L253.655 179.195C251.952 178.845 250.727 178.262 249.98 177.445C249.257 176.628 248.895 175.613 248.895 174.4C248.895 173.443 249.163 172.568 249.7 171.775C250.26 170.982 251.042 170.352 252.045 169.885C253.072 169.395 254.273 169.15 255.65 169.15C257.377 169.15 258.835 169.488 260.025 170.165C261.215 170.842 262.102 171.798 262.685 173.035L260.34 174.575C259.943 173.548 259.302 172.802 258.415 172.335C257.528 171.845 256.607 171.6 255.65 171.6C254.39 171.6 253.41 171.857 252.71 172.37C252.01 172.883 251.66 173.525 251.66 174.295C251.66 174.808 251.835 175.287 252.185 175.73C252.535 176.15 253.188 176.453 254.145 176.64L258.52 177.55C260.153 177.877 261.297 178.413 261.95 179.16C262.603 179.907 262.93 180.817 262.93 181.89C262.93 183.547 262.288 184.877 261.005 185.88C259.722 186.86 258.042 187.35 255.965 187.35ZM275.437 187.35C273.781 187.35 272.299 186.988 270.992 186.265C269.709 185.542 268.706 184.503 267.982 183.15C267.259 181.773 266.897 180.14 266.897 178.25C266.897 176.36 267.259 174.738 267.982 173.385C268.706 172.008 269.697 170.958 270.957 170.235C272.217 169.512 273.652 169.15 275.262 169.15C276.896 169.15 278.284 169.5 279.427 170.2C280.594 170.9 281.481 171.857 282.087 173.07C282.694 174.26 282.997 175.602 282.997 177.095C282.997 177.492 282.986 177.853 282.962 178.18C282.939 178.507 282.904 178.798 282.857 179.055H269.662C269.802 180.898 270.374 182.333 271.377 183.36C272.381 184.387 273.711 184.9 275.367 184.9C276.651 184.9 277.689 184.655 278.482 184.165C279.299 183.675 279.952 183.01 280.442 182.17L282.647 183.465C281.994 184.655 281.049 185.6 279.812 186.3C278.599 187 277.141 187.35 275.437 187.35ZM275.192 171.6C273.722 171.6 272.509 172.043 271.552 172.93C270.619 173.793 270.024 175.007 269.767 176.57H280.197C280.127 174.983 279.637 173.758 278.727 172.895C277.817 172.032 276.639 171.6 275.192 171.6ZM291.297 163.9V173.91L290.877 179.72H288.777L288.357 173.91V163.9H291.297ZM289.827 182.8C290.504 182.8 291.052 183.01 291.472 183.43C291.892 183.85 292.102 184.398 292.102 185.075C292.102 185.752 291.892 186.3 291.472 186.72C291.052 187.14 290.504 187.35 289.827 187.35C289.151 187.35 288.602 187.14 288.182 186.72C287.762 186.3 287.552 185.752 287.552 185.075C287.552 184.398 287.762 183.85 288.182 183.43C288.602 183.01 289.151 182.8 289.827 182.8ZM313.112 163.9V187H310.312V163.9H313.112ZM41.915 202.45V223.555C41.915 224.442 42.0783 225.06 42.405 225.41C42.7317 225.737 43.2567 225.9 43.98 225.9C44.4467 225.9 44.8317 225.865 45.135 225.795C45.4383 225.725 45.8467 225.597 46.36 225.41L45.905 227.86C45.135 228.187 44.2717 228.35 43.315 228.35C40.515 228.35 39.115 226.787 39.115 223.66V202.45H41.915ZM57.1982 210.15C58.8549 210.15 60.3132 210.512 61.5732 211.235C62.8566 211.958 63.8599 213.008 64.5832 214.385C65.3066 215.738 65.6682 217.36 65.6682 219.25C65.6682 221.14 65.3066 222.773 64.5832 224.15C63.8599 225.503 62.8566 226.542 61.5732 227.265C60.3132 227.988 58.8549 228.35 57.1982 228.35C55.5649 228.35 54.1066 227.988 52.8232 227.265C51.5399 226.542 50.5366 225.503 49.8132 224.15C49.0899 222.773 48.7282 221.14 48.7282 219.25C48.7282 217.36 49.0899 215.738 49.8132 214.385C50.5366 213.008 51.5399 211.958 52.8232 211.235C54.1066 210.512 55.5649 210.15 57.1982 210.15ZM57.1982 212.565C55.4249 212.565 54.0366 213.16 53.0332 214.35C52.0299 215.54 51.5282 217.173 51.5282 219.25C51.5282 221.327 52.0299 222.96 53.0332 224.15C54.0366 225.34 55.4249 225.935 57.1982 225.935C58.9716 225.935 60.3599 225.34 61.3632 224.15C62.3666 222.96 62.8682 221.327 62.8682 219.25C62.8682 217.173 62.3666 215.54 61.3632 214.35C60.3599 213.16 58.9716 212.565 57.1982 212.565ZM82.5246 210.5H85.4646L78.1846 228H75.3846L68.1046 210.5H71.2896L76.8196 225.165L82.5246 210.5ZM96.4382 228.35C94.7815 228.35 93.2998 227.988 91.9932 227.265C90.7098 226.542 89.7065 225.503 88.9832 224.15C88.2598 222.773 87.8982 221.14 87.8982 219.25C87.8982 217.36 88.2598 215.738 88.9832 214.385C89.7065 213.008 90.6982 211.958 91.9582 211.235C93.2182 210.512 94.6532 210.15 96.2632 210.15C97.8965 210.15 99.2848 210.5 100.428 211.2C101.595 211.9 102.481 212.857 103.088 214.07C103.695 215.26 103.998 216.602 103.998 218.095C103.998 218.492 103.986 218.853 103.963 219.18C103.94 219.507 103.905 219.798 103.858 220.055H90.6632C90.8032 221.898 91.3748 223.333 92.3782 224.36C93.3815 225.387 94.7115 225.9 96.3682 225.9C97.6515 225.9 98.6898 225.655 99.4832 225.165C100.3 224.675 100.953 224.01 101.443 223.17L103.648 224.465C102.995 225.655 102.05 226.6 100.813 227.3C99.5998 228 98.1415 228.35 96.4382 228.35ZM96.1932 212.6C94.7232 212.6 93.5098 213.043 92.5532 213.93C91.6198 214.793 91.0248 216.007 90.7682 217.57H101.198C101.128 215.983 100.638 214.758 99.7282 213.895C98.8182 213.032 97.6398 212.6 96.1932 212.6ZM131.068 210.5V212.915H124.698V223.17C124.698 224.033 124.943 224.675 125.433 225.095C125.923 225.515 126.553 225.725 127.323 225.725C128 225.725 128.583 225.608 129.073 225.375C129.563 225.142 130.007 224.827 130.403 224.43L131.383 226.775C130.847 227.265 130.205 227.65 129.458 227.93C128.735 228.21 127.895 228.35 126.938 228.35C126.052 228.35 125.223 228.198 124.453 227.895C123.683 227.568 123.065 227.067 122.598 226.39C122.155 225.69 121.922 224.78 121.898 223.66V212.915H118.398V210.5H121.898V206.3L124.698 205.53V210.5H131.068ZM135.232 228V202.45H138.032V213.125C138.638 212.075 139.443 211.317 140.447 210.85C141.45 210.383 142.547 210.15 143.737 210.15C144.997 210.15 146.14 210.395 147.167 210.885C148.193 211.352 149.01 212.075 149.617 213.055C150.247 214.035 150.562 215.283 150.562 216.8V228H147.762V217.78C147.762 215.843 147.342 214.502 146.502 213.755C145.685 212.985 144.67 212.6 143.457 212.6C142.617 212.6 141.777 212.798 140.937 213.195C140.097 213.592 139.397 214.245 138.837 215.155C138.3 216.042 138.032 217.232 138.032 218.725V228H135.232ZM167.121 216.695C167.121 215.388 166.771 214.385 166.071 213.685C165.371 212.962 164.38 212.6 163.096 212.6C161.883 212.6 160.856 212.868 160.016 213.405C159.176 213.918 158.558 214.758 158.161 215.925L155.886 214.525C156.353 213.218 157.216 212.168 158.476 211.375C159.736 210.558 161.3 210.15 163.166 210.15C164.426 210.15 165.57 210.372 166.596 210.815C167.623 211.235 168.428 211.888 169.011 212.775C169.618 213.638 169.921 214.758 169.921 216.135V224.605C169.921 225.445 170.365 225.865 171.251 225.865C171.695 225.865 172.126 225.807 172.546 225.69L172.406 227.895C171.94 228.128 171.333 228.245 170.586 228.245C169.723 228.245 168.976 228.035 168.346 227.615C167.74 227.195 167.343 226.553 167.156 225.69C166.55 226.6 165.721 227.277 164.671 227.72C163.621 228.14 162.583 228.35 161.556 228.35C160.53 228.35 159.573 228.175 158.686 227.825C157.8 227.475 157.088 226.95 156.551 226.25C156.038 225.527 155.781 224.64 155.781 223.59C155.781 222.283 156.213 221.21 157.076 220.37C157.963 219.507 159.188 218.923 160.751 218.62L167.121 217.36V216.695ZM158.651 223.45C158.651 224.173 158.931 224.768 159.491 225.235C160.075 225.678 160.891 225.9 161.941 225.9C162.851 225.9 163.691 225.748 164.461 225.445C165.255 225.118 165.896 224.64 166.386 224.01C166.876 223.357 167.121 222.528 167.121 221.525V219.67L162.046 220.72C160.903 220.953 160.051 221.28 159.491 221.7C158.931 222.12 158.651 222.703 158.651 223.45ZM186.542 210.5V212.915H180.172V223.17C180.172 224.033 180.417 224.675 180.907 225.095C181.397 225.515 182.027 225.725 182.797 225.725C183.474 225.725 184.057 225.608 184.547 225.375C185.037 225.142 185.48 224.827 185.877 224.43L186.857 226.775C186.32 227.265 185.679 227.65 184.932 227.93C184.209 228.21 183.369 228.35 182.412 228.35C181.525 228.35 180.697 228.198 179.927 227.895C179.157 227.568 178.539 227.067 178.072 226.39C177.629 225.69 177.395 224.78 177.372 223.66V212.915H173.872V210.5H177.372V206.3L180.172 205.53V210.5H186.542ZM205.959 204.9V228H203.159V204.9H205.959ZM232.164 210.15C233.961 210.15 235.454 210.57 236.644 211.41C237.834 212.227 238.756 213.358 239.409 214.805L236.749 216.065C236.376 214.945 235.804 214.093 235.034 213.51C234.287 212.903 233.307 212.6 232.094 212.6C230.344 212.6 228.967 213.195 227.964 214.385C226.984 215.552 226.494 217.173 226.494 219.25C226.494 221.327 226.984 222.96 227.964 224.15C228.967 225.317 230.344 225.9 232.094 225.9C233.471 225.9 234.567 225.585 235.384 224.955C236.201 224.325 236.737 223.438 236.994 222.295L239.584 223.205C239.001 224.815 238.079 226.075 236.819 226.985C235.582 227.895 234.031 228.35 232.164 228.35C230.531 228.35 229.072 227.988 227.789 227.265C226.506 226.542 225.502 225.503 224.779 224.15C224.056 222.773 223.694 221.14 223.694 219.25C223.694 217.36 224.056 215.738 224.779 214.385C225.502 213.008 226.506 211.958 227.789 211.235C229.072 210.512 230.531 210.15 232.164 210.15ZM254.724 216.695C254.724 215.388 254.374 214.385 253.674 213.685C252.974 212.962 251.982 212.6 250.699 212.6C249.486 212.6 248.459 212.868 247.619 213.405C246.779 213.918 246.161 214.758 245.764 215.925L243.489 214.525C243.956 213.218 244.819 212.168 246.079 211.375C247.339 210.558 248.902 210.15 250.769 210.15C252.029 210.15 253.172 210.372 254.199 210.815C255.226 211.235 256.031 211.888 256.614 212.775C257.221 213.638 257.524 214.758 257.524 216.135V224.605C257.524 225.445 257.967 225.865 258.854 225.865C259.297 225.865 259.729 225.807 260.149 225.69L260.009 227.895C259.542 228.128 258.936 228.245 258.189 228.245C257.326 228.245 256.579 228.035 255.949 227.615C255.342 227.195 254.946 226.553 254.759 225.69C254.152 226.6 253.324 227.277 252.274 227.72C251.224 228.14 250.186 228.35 249.159 228.35C248.132 228.35 247.176 228.175 246.289 227.825C245.402 227.475 244.691 226.95 244.154 226.25C243.641 225.527 243.384 224.64 243.384 223.59C243.384 222.283 243.816 221.21 244.679 220.37C245.566 219.507 246.791 218.923 248.354 218.62L254.724 217.36V216.695ZM246.254 223.45C246.254 224.173 246.534 224.768 247.094 225.235C247.677 225.678 248.494 225.9 249.544 225.9C250.454 225.9 251.294 225.748 252.064 225.445C252.857 225.118 253.499 224.64 253.989 224.01C254.479 223.357 254.724 222.528 254.724 221.525V219.67L249.649 220.72C248.506 220.953 247.654 221.28 247.094 221.7C246.534 222.12 246.254 222.703 246.254 223.45ZM264.328 228V210.5H266.778L266.953 213.23C267.56 212.133 268.388 211.352 269.438 210.885C270.488 210.395 271.62 210.15 272.833 210.15C274.093 210.15 275.237 210.395 276.263 210.885C277.29 211.352 278.107 212.075 278.713 213.055C279.343 214.035 279.658 215.283 279.658 216.8V228H276.858V217.78C276.858 215.843 276.438 214.502 275.598 213.755C274.782 212.985 273.767 212.6 272.553 212.6C271.713 212.6 270.873 212.798 270.033 213.195C269.193 213.592 268.493 214.233 267.933 215.12C267.397 216.007 267.128 217.197 267.128 218.69V228H264.328ZM45.555 269.35C43.8517 269.35 42.2767 268.988 40.83 268.265C39.4067 267.542 38.31 266.515 37.54 265.185L39.92 263.47C40.4333 264.543 41.18 265.383 42.16 265.99C43.1633 266.597 44.365 266.9 45.765 266.9C47.0017 266.9 47.97 266.667 48.67 266.2C49.37 265.71 49.72 265.08 49.72 264.31C49.72 263.82 49.5567 263.377 49.23 262.98C48.9267 262.56 48.3317 262.257 47.445 262.07L43.245 261.195C41.5417 260.845 40.3167 260.262 39.57 259.445C38.8467 258.628 38.485 257.613 38.485 256.4C38.485 255.443 38.7533 254.568 39.29 253.775C39.85 252.982 40.6317 252.352 41.635 251.885C42.6617 251.395 43.8633 251.15 45.24 251.15C46.9667 251.15 48.425 251.488 49.615 252.165C50.805 252.842 51.6917 253.798 52.275 255.035L49.93 256.575C49.5333 255.548 48.8917 254.802 48.005 254.335C47.1183 253.845 46.1967 253.6 45.24 253.6C43.98 253.6 43 253.857 42.3 254.37C41.6 254.883 41.25 255.525 41.25 256.295C41.25 256.808 41.425 257.287 41.775 257.73C42.125 258.15 42.7783 258.453 43.735 258.64L48.11 259.55C49.7433 259.877 50.8867 260.413 51.54 261.16C52.1933 261.907 52.52 262.817 52.52 263.89C52.52 265.547 51.8783 266.877 50.595 267.88C49.3117 268.86 47.6317 269.35 45.555 269.35ZM65.027 269.35C63.3704 269.35 61.8887 268.988 60.582 268.265C59.2987 267.542 58.2954 266.503 57.572 265.15C56.8487 263.773 56.487 262.14 56.487 260.25C56.487 258.36 56.8487 256.738 57.572 255.385C58.2954 254.008 59.287 252.958 60.547 252.235C61.807 251.512 63.242 251.15 64.852 251.15C66.4854 251.15 67.8737 251.5 69.017 252.2C70.1837 252.9 71.0704 253.857 71.677 255.07C72.2837 256.26 72.587 257.602 72.587 259.095C72.587 259.492 72.5754 259.853 72.552 260.18C72.5287 260.507 72.4937 260.798 72.447 261.055H59.252C59.392 262.898 59.9637 264.333 60.967 265.36C61.9704 266.387 63.3004 266.9 64.957 266.9C66.2404 266.9 67.2787 266.655 68.072 266.165C68.8887 265.675 69.542 265.01 70.032 264.17L72.237 265.465C71.5837 266.655 70.6387 267.6 69.402 268.3C68.1887 269 66.7304 269.35 65.027 269.35ZM64.782 253.6C63.312 253.6 62.0987 254.043 61.142 254.93C60.2087 255.793 59.6137 257.007 59.357 258.57H69.787C69.717 256.983 69.227 255.758 68.317 254.895C67.407 254.032 66.2287 253.6 64.782 253.6ZM80.5722 243.45V264.555C80.5722 265.442 80.7356 266.06 81.0622 266.41C81.3889 266.737 81.9139 266.9 82.6372 266.9C83.1039 266.9 83.4889 266.865 83.7922 266.795C84.0956 266.725 84.5039 266.597 85.0172 266.41L84.5622 268.86C83.7922 269.187 82.9289 269.35 81.9722 269.35C79.1722 269.35 77.7722 267.787 77.7722 264.66V243.45H80.5722ZM95.9255 269.35C94.2688 269.35 92.7871 268.988 91.4805 268.265C90.1971 267.542 89.1938 266.503 88.4705 265.15C87.7471 263.773 87.3855 262.14 87.3855 260.25C87.3855 258.36 87.7471 256.738 88.4705 255.385C89.1938 254.008 90.1855 252.958 91.4455 252.235C92.7055 251.512 94.1405 251.15 95.7505 251.15C97.3838 251.15 98.7721 251.5 99.9155 252.2C101.082 252.9 101.969 253.857 102.575 255.07C103.182 256.26 103.485 257.602 103.485 259.095C103.485 259.492 103.474 259.853 103.45 260.18C103.427 260.507 103.392 260.798 103.345 261.055H90.1505C90.2905 262.898 90.8621 264.333 91.8655 265.36C92.8688 266.387 94.1988 266.9 95.8555 266.9C97.1388 266.9 98.1771 266.655 98.9705 266.165C99.7871 265.675 100.44 265.01 100.93 264.17L103.135 265.465C102.482 266.655 101.537 267.6 100.3 268.3C99.0871 269 97.6288 269.35 95.9255 269.35ZM95.6805 253.6C94.2105 253.6 92.9971 254.043 92.0405 254.93C91.1071 255.793 90.5121 257.007 90.2555 258.57H100.685C100.615 256.983 100.125 255.758 99.2155 254.895C98.3055 254.032 97.1271 253.6 95.6805 253.6ZM116.056 251.15C117.852 251.15 119.346 251.57 120.536 252.41C121.726 253.227 122.647 254.358 123.301 255.805L120.641 257.065C120.267 255.945 119.696 255.093 118.926 254.51C118.179 253.903 117.199 253.6 115.986 253.6C114.236 253.6 112.859 254.195 111.856 255.385C110.876 256.552 110.386 258.173 110.386 260.25C110.386 262.327 110.876 263.96 111.856 265.15C112.859 266.317 114.236 266.9 115.986 266.9C117.362 266.9 118.459 266.585 119.276 265.955C120.092 265.325 120.629 264.438 120.886 263.295L123.476 264.205C122.892 265.815 121.971 267.075 120.711 267.985C119.474 268.895 117.922 269.35 116.056 269.35C114.422 269.35 112.964 268.988 111.681 268.265C110.397 267.542 109.394 266.503 108.671 265.15C107.947 263.773 107.586 262.14 107.586 260.25C107.586 258.36 107.947 256.738 108.671 255.385C109.394 254.008 110.397 252.958 111.681 252.235C112.964 251.512 114.422 251.15 116.056 251.15ZM138.896 251.5V253.915H132.526V264.17C132.526 265.033 132.771 265.675 133.261 266.095C133.751 266.515 134.381 266.725 135.151 266.725C135.827 266.725 136.411 266.608 136.901 266.375C137.391 266.142 137.834 265.827 138.231 265.43L139.211 267.775C138.674 268.265 138.032 268.65 137.286 268.93C136.562 269.21 135.722 269.35 134.766 269.35C133.879 269.35 133.051 269.198 132.281 268.895C131.511 268.568 130.892 268.067 130.426 267.39C129.982 266.69 129.749 265.78 129.726 264.66V253.915H126.226V251.5H129.726V247.3L132.526 246.53V251.5H138.896ZM154.987 269V251.5H157.437L157.612 254.23C158.242 253.157 159.059 252.375 160.062 251.885C161.089 251.395 162.139 251.15 163.212 251.15C164.449 251.15 165.616 251.43 166.712 251.99C167.809 252.55 168.649 253.413 169.232 254.58C169.606 253.787 170.131 253.145 170.807 252.655C171.484 252.142 172.219 251.768 173.012 251.535C173.829 251.278 174.599 251.15 175.322 251.15C176.442 251.15 177.504 251.383 178.507 251.85C179.534 252.317 180.374 253.04 181.027 254.02C181.681 255 182.007 256.26 182.007 257.8V269H179.207V258.08C179.207 256.493 178.811 255.35 178.017 254.65C177.224 253.95 176.244 253.6 175.077 253.6C174.167 253.6 173.316 253.822 172.522 254.265C171.729 254.708 171.087 255.362 170.597 256.225C170.131 257.088 169.897 258.15 169.897 259.41V269H167.097V258.08C167.097 256.493 166.701 255.35 165.907 254.65C165.114 253.95 164.134 253.6 162.967 253.6C162.197 253.6 161.404 253.81 160.587 254.23C159.794 254.627 159.129 255.268 158.592 256.155C158.056 257.042 157.787 258.208 157.787 259.655V269H154.987ZM202.253 251.5L194.028 271.94C193.352 273.643 192.582 274.833 191.718 275.51C190.878 276.187 189.84 276.525 188.603 276.525C187.81 276.525 187.075 276.408 186.398 276.175C185.745 275.965 185.162 275.673 184.648 275.3L185.418 272.85C185.885 273.27 186.375 273.573 186.888 273.76C187.425 273.97 187.95 274.075 188.463 274.075C189.07 274.075 189.642 273.888 190.178 273.515C190.715 273.142 191.205 272.383 191.648 271.24L192.558 268.965L190.808 264.8L185.243 251.5H188.428L192.803 262.91L193.888 266.025L195.148 262.56L199.243 251.5H202.253ZM40.655 289.14C40.025 289.14 39.5117 288.953 39.115 288.58C38.7417 288.183 38.555 287.67 38.555 287.04C38.555 286.41 38.7417 285.908 39.115 285.535C39.5117 285.138 40.025 284.94 40.655 284.94C41.285 284.94 41.7867 285.138 42.16 285.535C42.5567 285.908 42.755 286.41 42.755 287.04C42.755 287.67 42.5567 288.183 42.16 288.58C41.7867 288.953 41.285 289.14 40.655 289.14ZM42.055 292.5V310H39.255V292.5H42.055ZM48.5519 310V292.5H51.0019L51.1769 295.23C51.7835 294.133 52.6119 293.352 53.6619 292.885C54.7119 292.395 55.8435 292.15 57.0569 292.15C58.3169 292.15 59.4602 292.395 60.4869 292.885C61.5135 293.352 62.3302 294.075 62.9369 295.055C63.5669 296.035 63.8819 297.283 63.8819 298.8V310H61.0819V299.78C61.0819 297.843 60.6619 296.502 59.8219 295.755C59.0052 294.985 57.9902 294.6 56.7769 294.6C55.9369 294.6 55.0969 294.798 54.2569 295.195C53.4169 295.592 52.7169 296.233 52.1569 297.12C51.6202 298.007 51.3519 299.197 51.3519 300.69V310H48.5519ZM79.6368 307.76C81.2935 307.76 82.5885 308.145 83.5218 308.915C84.4551 309.662 84.9218 310.665 84.9218 311.925C84.9218 313.068 84.5368 314.06 83.7668 314.9C83.0201 315.74 82.0051 316.382 80.7218 316.825C79.4618 317.292 78.0385 317.525 76.4518 317.525C73.6985 317.525 71.6335 317.058 70.2568 316.125C68.9035 315.192 68.2268 314.072 68.2268 312.765C68.2268 311.972 68.4485 311.248 68.8918 310.595C69.3351 309.942 70.0701 309.475 71.0968 309.195C70.5368 308.938 70.0818 308.588 69.7318 308.145C69.3818 307.678 69.2068 307.06 69.2068 306.29C69.2068 305.567 69.4168 304.913 69.8368 304.33C70.2568 303.723 70.8868 303.257 71.7268 302.93C70.8401 302.417 70.1635 301.74 69.6968 300.9C69.2301 300.06 68.9968 299.115 68.9968 298.065C68.9968 296.898 69.3001 295.872 69.9068 294.985C70.5368 294.098 71.3885 293.41 72.4618 292.92C73.5351 292.407 74.7718 292.15 76.1718 292.15C77.6418 292.15 78.9601 292.442 80.1268 293.025C80.2901 291.858 80.8035 290.948 81.6668 290.295C82.5535 289.618 83.5918 289.28 84.7818 289.28H84.9568L85.5868 291.765H85.3418C84.2685 291.765 83.4285 291.963 82.8218 292.36C82.2151 292.757 81.8768 293.375 81.8068 294.215C82.8335 295.288 83.3468 296.572 83.3468 298.065C83.3468 299.208 83.0435 300.235 82.4368 301.145C81.8301 302.032 80.9785 302.732 79.8818 303.245C78.8085 303.735 77.5718 303.98 76.1718 303.98C75.3085 303.98 74.5035 303.898 73.7568 303.735C73.0568 303.945 72.5551 304.237 72.2518 304.61C71.9485 304.983 71.7968 305.392 71.7968 305.835C71.7968 307.118 72.7068 307.76 74.5268 307.76H79.6368ZM76.1718 294.425C74.9585 294.425 73.9435 294.763 73.1268 295.44C72.3101 296.093 71.9018 296.968 71.9018 298.065C71.9018 299.138 72.3101 300.013 73.1268 300.69C73.9435 301.367 74.9585 301.705 76.1718 301.705C77.3851 301.705 78.4001 301.367 79.2168 300.69C80.0335 300.013 80.4418 299.138 80.4418 298.065C80.4418 296.968 80.0335 296.093 79.2168 295.44C78.4001 294.763 77.3851 294.425 76.1718 294.425ZM76.4168 315.18C78.4468 315.18 79.9401 314.877 80.8968 314.27C81.8535 313.687 82.3318 313.01 82.3318 312.24C82.3318 311.61 82.0751 311.108 81.5618 310.735C81.0718 310.362 80.1735 310.175 78.8668 310.175H73.4768C72.7301 310.175 72.1001 310.362 71.5868 310.735C71.0735 311.132 70.8168 311.668 70.8168 312.345C70.8168 313.208 71.3068 313.897 72.2868 314.41C73.2901 314.923 74.6668 315.18 76.4168 315.18ZM88.8497 310V292.5H91.1247L91.5097 295.37C92.4897 293.223 94.3564 292.15 97.1097 292.15C97.4131 292.15 97.7397 292.173 98.0897 292.22C98.4631 292.267 98.7781 292.36 99.0347 292.5L98.5447 295.055C98.2881 294.962 98.0081 294.892 97.7047 294.845C97.4014 294.798 96.9697 294.775 96.4097 294.775C95.6864 294.775 94.9514 294.985 94.2047 295.405C93.4814 295.825 92.8747 296.467 92.3847 297.33C91.8947 298.17 91.6497 299.243 91.6497 300.55V310H88.8497ZM109.905 310.35C108.248 310.35 106.767 309.988 105.46 309.265C104.177 308.542 103.173 307.503 102.45 306.15C101.727 304.773 101.365 303.14 101.365 301.25C101.365 299.36 101.727 297.738 102.45 296.385C103.173 295.008 104.165 293.958 105.425 293.235C106.685 292.512 108.12 292.15 109.73 292.15C111.363 292.15 112.752 292.5 113.895 293.2C115.062 293.9 115.948 294.857 116.555 296.07C117.162 297.26 117.465 298.602 117.465 300.095C117.465 300.492 117.453 300.853 117.43 301.18C117.407 301.507 117.372 301.798 117.325 302.055H104.13C104.27 303.898 104.842 305.333 105.845 306.36C106.848 307.387 108.178 307.9 109.835 307.9C111.118 307.9 112.157 307.655 112.95 307.165C113.767 306.675 114.42 306.01 114.91 305.17L117.115 306.465C116.462 307.655 115.517 308.6 114.28 309.3C113.067 310 111.608 310.35 109.905 310.35ZM109.66 294.6C108.19 294.6 106.977 295.043 106.02 295.93C105.087 296.793 104.492 298.007 104.235 299.57H114.665C114.595 297.983 114.105 296.758 113.195 295.895C112.285 295.032 111.107 294.6 109.66 294.6ZM129.615 310.35C128.168 310.35 126.838 309.988 125.625 309.265C124.412 308.542 123.443 307.503 122.72 306.15C121.997 304.773 121.635 303.14 121.635 301.25C121.635 299.313 122.02 297.668 122.79 296.315C123.56 294.962 124.575 293.935 125.835 293.235C127.095 292.512 128.448 292.15 129.895 292.15C131.155 292.15 132.275 292.442 133.255 293.025C134.235 293.585 134.958 294.355 135.425 295.335V284.45H138.225V310H135.775L135.6 306.71C135.11 307.9 134.317 308.81 133.22 309.44C132.123 310.047 130.922 310.35 129.615 310.35ZM129.895 307.9C131.552 307.9 132.882 307.282 133.885 306.045C134.912 304.808 135.425 303.128 135.425 301.005C135.425 298.998 134.923 297.435 133.92 296.315C132.917 295.172 131.622 294.6 130.035 294.6C128.262 294.6 126.885 295.207 125.905 296.42C124.925 297.633 124.435 299.243 124.435 301.25C124.435 303.257 124.913 304.867 125.87 306.08C126.827 307.293 128.168 307.9 129.895 307.9ZM146.134 289.14C145.504 289.14 144.99 288.953 144.594 288.58C144.22 288.183 144.034 287.67 144.034 287.04C144.034 286.41 144.22 285.908 144.594 285.535C144.99 285.138 145.504 284.94 146.134 284.94C146.764 284.94 147.265 285.138 147.639 285.535C148.035 285.908 148.234 286.41 148.234 287.04C148.234 287.67 148.035 288.183 147.639 288.58C147.265 288.953 146.764 289.14 146.134 289.14ZM147.534 292.5V310H144.734V292.5H147.534ZM161.345 310.35C159.689 310.35 158.207 309.988 156.9 309.265C155.617 308.542 154.614 307.503 153.89 306.15C153.167 304.773 152.805 303.14 152.805 301.25C152.805 299.36 153.167 297.738 153.89 296.385C154.614 295.008 155.605 293.958 156.865 293.235C158.125 292.512 159.56 292.15 161.17 292.15C162.804 292.15 164.192 292.5 165.335 293.2C166.502 293.9 167.389 294.857 167.995 296.07C168.602 297.26 168.905 298.602 168.905 300.095C168.905 300.492 168.894 300.853 168.87 301.18C168.847 301.507 168.812 301.798 168.765 302.055H155.57C155.71 303.898 156.282 305.333 157.285 306.36C158.289 307.387 159.619 307.9 161.275 307.9C162.559 307.9 163.597 307.655 164.39 307.165C165.207 306.675 165.86 306.01 166.35 305.17L168.555 306.465C167.902 307.655 166.957 308.6 165.72 309.3C164.507 310 163.049 310.35 161.345 310.35ZM161.1 294.6C159.63 294.6 158.417 295.043 157.46 295.93C156.527 296.793 155.932 298.007 155.675 299.57H166.105C166.035 297.983 165.545 296.758 164.635 295.895C163.725 295.032 162.547 294.6 161.1 294.6ZM174.231 310V292.5H176.681L176.856 295.23C177.462 294.133 178.291 293.352 179.341 292.885C180.391 292.395 181.522 292.15 182.736 292.15C183.996 292.15 185.139 292.395 186.166 292.885C187.192 293.352 188.009 294.075 188.616 295.055C189.246 296.035 189.561 297.283 189.561 298.8V310H186.761V299.78C186.761 297.843 186.341 296.502 185.501 295.755C184.684 294.985 183.669 294.6 182.456 294.6C181.616 294.6 180.776 294.798 179.936 295.195C179.096 295.592 178.396 296.233 177.836 297.12C177.299 298.007 177.031 299.197 177.031 300.69V310H174.231ZM206.161 292.5V294.915H199.791V305.17C199.791 306.033 200.036 306.675 200.526 307.095C201.016 307.515 201.646 307.725 202.416 307.725C203.093 307.725 203.676 307.608 204.166 307.375C204.656 307.142 205.1 306.827 205.496 306.43L206.476 308.775C205.94 309.265 205.298 309.65 204.551 309.93C203.828 310.21 202.988 310.35 202.031 310.35C201.145 310.35 200.316 310.198 199.546 309.895C198.776 309.568 198.158 309.067 197.691 308.39C197.248 307.69 197.015 306.78 196.991 305.66V294.915H193.491V292.5H196.991V288.3L199.791 287.53V292.5H206.161ZM216.624 310.35C214.921 310.35 213.346 309.988 211.899 309.265C210.476 308.542 209.379 307.515 208.609 306.185L210.989 304.47C211.503 305.543 212.249 306.383 213.229 306.99C214.233 307.597 215.434 307.9 216.834 307.9C218.071 307.9 219.039 307.667 219.739 307.2C220.439 306.71 220.789 306.08 220.789 305.31C220.789 304.82 220.626 304.377 220.299 303.98C219.996 303.56 219.401 303.257 218.514 303.07L214.314 302.195C212.611 301.845 211.386 301.262 210.639 300.445C209.916 299.628 209.554 298.613 209.554 297.4C209.554 296.443 209.823 295.568 210.359 294.775C210.919 293.982 211.701 293.352 212.704 292.885C213.731 292.395 214.933 292.15 216.309 292.15C218.036 292.15 219.494 292.488 220.684 293.165C221.874 293.842 222.761 294.798 223.344 296.035L220.999 297.575C220.603 296.548 219.961 295.802 219.074 295.335C218.188 294.845 217.266 294.6 216.309 294.6C215.049 294.6 214.069 294.857 213.369 295.37C212.669 295.883 212.319 296.525 212.319 297.295C212.319 297.808 212.494 298.287 212.844 298.73C213.194 299.15 213.848 299.453 214.804 299.64L219.179 300.55C220.813 300.877 221.956 301.413 222.609 302.16C223.263 302.907 223.589 303.817 223.589 304.89C223.589 306.547 222.948 307.877 221.664 308.88C220.381 309.86 218.701 310.35 216.624 310.35ZM247.08 283.715L248.69 285.325C246.38 287.448 244.758 289.723 243.825 292.15C242.915 294.577 242.46 297.248 242.46 300.165C242.46 303.082 242.915 305.753 243.825 308.18C244.758 310.607 246.38 312.882 248.69 315.005L247.08 316.615C242.087 312.298 239.59 306.815 239.59 300.165C239.59 293.515 242.087 288.032 247.08 283.715ZM254.871 292.15C255.548 292.15 256.096 292.36 256.516 292.78C256.936 293.2 257.146 293.748 257.146 294.425C257.146 295.102 256.936 295.65 256.516 296.07C256.096 296.49 255.548 296.7 254.871 296.7C254.195 296.7 253.646 296.49 253.226 296.07C252.806 295.65 252.596 295.102 252.596 294.425C252.596 293.748 252.806 293.2 253.226 292.78C253.646 292.36 254.195 292.15 254.871 292.15ZM254.871 305.8C255.548 305.8 256.096 306.01 256.516 306.43C256.936 306.85 257.146 307.398 257.146 308.075C257.146 308.752 256.936 309.3 256.516 309.72C256.096 310.14 255.548 310.35 254.871 310.35C254.195 310.35 253.646 310.14 253.226 309.72C252.806 309.3 252.596 308.752 252.596 308.075C252.596 307.398 252.806 306.85 253.226 306.43C253.646 306.01 254.195 305.8 254.871 305.8Z" fill="#2F2E41"/>
<path d="M37.3657 125.26C31.4657 125.26 26.83 122.984 23.4586 118.433C20.0871 113.881 18.4014 107.981 18.4014 100.733C18.4014 92.3043 20.5929 84.2128 24.9757 76.4586C29.3586 68.7043 36.3543 62.5514 45.9629 58L56.5829 67.8614C49.6714 70.2214 44.1086 73.8457 39.8943 78.7343C35.68 83.4543 32.9829 88.4271 31.8029 93.6529L32.8143 94.1586C33.4886 93.6529 34.3314 93.2314 35.3429 92.8943C36.3543 92.5571 37.8714 92.3886 39.8943 92.3886C42.9286 92.3886 45.9629 93.7371 48.9971 96.4343C52.2 98.9628 53.8014 102.924 53.8014 108.319C53.8014 112.87 52.2 116.831 48.9971 120.203C45.7943 123.574 41.9171 125.26 37.3657 125.26ZM84.9029 125.26C79.0029 125.26 74.3671 122.984 70.9957 118.433C67.6243 113.881 65.9386 107.981 65.9386 100.733C65.9386 92.3043 68.13 84.2128 72.5129 76.4586C76.8957 68.7043 83.8914 62.5514 93.5 58L104.12 67.8614C97.2086 70.2214 91.6457 73.8457 87.4314 78.7343C83.2171 83.4543 80.52 88.4271 79.34 93.6529L80.3514 94.1586C81.0257 93.6529 81.8686 93.2314 82.88 92.8943C83.8914 92.5571 85.4086 92.3886 87.4314 92.3886C90.4657 92.3886 93.5 93.7371 96.5343 96.4343C99.7371 98.9628 101.339 102.924 101.339 108.319C101.339 112.87 99.7371 116.831 96.5343 120.203C93.3314 123.574 89.4543 125.26 84.9029 125.26Z" fill="#498352"/>
<path d="M149.739 434.063L138.908 432.489L134.066 422.673C133.934 422.404 133.716 422.187 133.447 422.054C132.773 421.722 131.954 421.999 131.617 422.673L126.775 432.489L115.944 434.063C115.646 434.106 115.373 434.246 115.164 434.46C114.911 434.72 114.772 435.069 114.776 435.431C114.781 435.794 114.93 436.139 115.189 436.392L123.026 444.033L121.174 454.821C121.131 455.072 121.159 455.33 121.254 455.566C121.35 455.802 121.51 456.007 121.716 456.156C121.922 456.306 122.166 456.395 122.42 456.413C122.674 456.431 122.928 456.378 123.154 456.259L132.842 451.165L142.53 456.259C142.794 456.4 143.101 456.447 143.396 456.395C144.138 456.267 144.637 455.563 144.509 454.821L142.658 444.033L150.494 436.392C150.707 436.183 150.848 435.91 150.891 435.612C151.006 434.865 150.486 434.174 149.739 434.063Z" fill="#FDA202"/>
<path d="M195.17 434.063L184.339 432.489L179.497 422.673C179.364 422.404 179.147 422.186 178.878 422.054C178.204 421.721 177.385 421.999 177.048 422.673L172.206 432.489L161.375 434.063C161.076 434.105 160.803 434.246 160.594 434.46C160.342 434.719 160.202 435.069 160.207 435.431C160.212 435.793 160.36 436.139 160.62 436.392L168.456 444.032L166.605 454.821C166.562 455.072 166.589 455.33 166.685 455.566C166.781 455.802 166.941 456.006 167.147 456.156C167.353 456.306 167.597 456.395 167.851 456.413C168.105 456.431 168.359 456.377 168.584 456.259L178.272 451.165L187.96 456.259C188.225 456.399 188.532 456.446 188.826 456.395C189.569 456.267 190.068 455.563 189.94 454.821L188.088 444.032L195.925 436.392C196.138 436.183 196.279 435.91 196.322 435.611C196.437 434.865 195.916 434.174 195.17 434.063Z" fill="#FDA202"/>
<path d="M240.6 434.063L229.769 432.489L224.927 422.673C224.795 422.404 224.578 422.186 224.309 422.054C223.635 421.721 222.816 421.999 222.479 422.673L217.637 432.489L206.806 434.063C206.507 434.105 206.234 434.246 206.025 434.46C205.772 434.719 205.633 435.069 205.638 435.431C205.643 435.793 205.791 436.139 206.051 436.392L213.887 444.032L212.036 454.821C211.992 455.072 212.02 455.33 212.116 455.566C212.212 455.802 212.372 456.006 212.578 456.156C212.784 456.306 213.028 456.395 213.282 456.413C213.536 456.431 213.79 456.377 214.015 456.259L223.703 451.165L233.391 456.259C233.656 456.399 233.963 456.446 234.257 456.395C234.999 456.267 235.498 455.563 235.37 454.821L233.519 444.032L241.356 436.392C241.569 436.183 241.71 435.91 241.752 435.611C241.867 434.865 241.347 434.174 240.6 434.063Z" fill="#FDA202"/>
<path d="M286.031 434.063L275.2 432.489L270.358 422.673C270.226 422.404 270.008 422.186 269.74 422.054C269.066 421.721 268.247 421.999 267.909 422.673L263.068 432.489L252.236 434.063C251.938 434.105 251.665 434.246 251.456 434.46C251.203 434.719 251.064 435.069 251.069 435.431C251.073 435.793 251.222 436.139 251.481 436.392L259.318 444.032L257.466 454.821C257.423 455.072 257.451 455.33 257.547 455.566C257.642 455.802 257.802 456.006 258.009 456.156C258.215 456.306 258.458 456.395 258.713 456.413C258.967 456.431 259.221 456.377 259.446 456.259L269.134 451.165L278.822 456.259C279.086 456.399 279.393 456.446 279.688 456.395C280.43 456.267 280.929 455.563 280.801 454.821L278.95 444.032L286.786 436.392C287 436.183 287.14 435.91 287.183 435.611C287.298 434.865 286.778 434.174 286.031 434.063Z" fill="#FDA202"/>
</svg>
